RobotoCondensed-Regular.ufo
<glyph name="exclam" format="2">
  <advance width="504"/>
  <unicode hex="0021"/>
  <outline>
    <contour>
      <point x="346" y="1456" type="line"/>
      <point x="160" y="1456" type="line"/>
      <point x="174" y="411" type="line"/>
      <point x="333" y="411" type="line"/>
    </contour>
    <contour>
      <point x="157" y="93" type="curve" smooth="yes"/>
      <point x="157" y="35"/>
      <point x="191" y="-12"/>
      <point x="258" y="-12" type="curve" smooth="yes"/>
      <point x="324" y="-12"/>
      <point x="359" y="35"/>
      <point x="359" y="93" type="curve" smooth="yes"/>
      <point x="359" y="153"/>
      <point x="324" y="200"/>
      <point x="258" y="200" type="curve" smooth="yes"/>
      <point x="191" y="200"/>
      <point x="157" y="153"/>
    </contour>
  </outline>
</glyph>
<glyph name="quotedbl" format="2">
  <advance width="656"/>
  <unicode hex="0022"/>
  <outline>
    <contour>
      <point x="278" y="1536" type="line"/>
      <point x="137" y="1536" type="line"/>
      <point x="137" y="1391" type="line"/>
      <point x="137" y="1043" type="line"/>
      <point x="248" y="1043" type="line"/>
      <point x="278" y="1400" type="line"/>
    </contour>
    <contour>
      <point x="548" y="1536" type="line"/>
      <point x="407" y="1536" type="line"/>
      <point x="407" y="1398" type="line"/>
      <point x="407" y="1043" type="line"/>
      <point x="518" y="1043" type="line"/>
      <point x="548" y="1400" type="line"/>
    </contour>
  </outline>
</glyph>
<glyph name="numbersign" format="2">
  <advance width="1122"/>
  <unicode hex="0023"/>
  <outline>
    <contour>
      <point x="259" y="0" type="line"/>
      <point x="393" y="0" type="line"/>
      <point x="635" y="1456" type="line"/>
      <point x="500" y="1456" type="line"/>
    </contour>
    <contour>
      <point x="599" y="0" type="line"/>
      <point x="733" y="0" type="line"/>
      <point x="975" y="1456" type="line"/>
      <point x="841" y="1456" type="line"/>
    </contour>
    <contour>
      <point x="1068" y="901" type="line"/>
      <point x="1068" y="1040" type="line"/>
      <point x="195" y="1040" type="line"/>
      <point x="195" y="901" type="line"/>
    </contour>
    <contour>
      <point x="1005" y="410" type="line"/>
      <point x="1005" y="548" type="line"/>
      <point x="131" y="548" type="line"/>
      <point x="131" y="410" type="line"/>
    </contour>
  </outline>
</glyph>
<glyph name="dollar" format="2">
  <advance width="1012"/>
  <unicode hex="0024"/>
  <outline>
    <contour>
      <point x="597" y="1692" type="line"/>
      <point x="455" y="1692" type="line"/>
      <point x="455" y="1387" type="line"/>
      <point x="597" y="1387" type="line"/>
    </contour>
    <contour>
      <point x="577" y="59" type="line"/>
      <point x="437" y="59" type="line"/>
      <point x="437" y="-208" type="line"/>
      <point x="577" y="-208" type="line"/>
    </contour>
    <contour>
      <point x="724" y="375" type="curve"/>
      <point x="724" y="232"/>
      <point x="644" y="141"/>
      <point x="501" y="141" type="curve" smooth="yes"/>
      <point x="401" y="141"/>
      <point x="288" y="203"/>
      <point x="288" y="429" type="curve"/>
      <point x="111" y="429" type="line"/>
      <point x="111" y="92"/>
      <point x="310" y="-21"/>
      <point x="501" y="-21" type="curve" smooth="yes"/>
      <point x="744" y="-21"/>
      <point x="902" y="120"/>
      <point x="902" y="377" type="curve"/>
      <point x="902" y="614"/>
      <point x="782" y="726"/>
      <point x="564" y="809" type="curve" smooth="yes"/>
      <point x="394" y="883"/>
      <point x="336" y="954"/>
      <point x="336" y="1083" type="curve"/>
      <point x="336" y="1221"/>
      <point x="396" y="1315"/>
      <point x="524" y="1315" type="curve" smooth="yes"/>
      <point x="647" y="1315"/>
      <point x="715" y="1187"/>
      <point x="715" y="1008" type="curve"/>
      <point x="890" y="1008" type="line"/>
      <point x="890" y="1311"/>
      <point x="754" y="1477"/>
      <point x="524" y="1477" type="curve" smooth="yes"/>
      <point x="302" y="1477"/>
      <point x="159" y="1325"/>
      <point x="159" y="1080" type="curve"/>
      <point x="159" y="843"/>
      <point x="289" y="723"/>
      <point x="502" y="645" type="curve" smooth="yes"/>
      <point x="664" y="577"/>
      <point x="724" y="494"/>
    </contour>
  </outline>
</glyph>
<glyph name="percent" format="2">
  <advance width="1296"/>
  <unicode hex="0025"/>
  <outline>
    <contour>
      <point x="107" y="1099" type="line"/>
      <point x="107" y="936"/>
      <point x="203" y="800"/>
      <point x="363" y="800" type="curve" smooth="yes"/>
      <point x="522" y="800"/>
      <point x="617" y="936"/>
      <point x="617" y="1099" type="curve" smooth="yes"/>
      <point x="617" y="1176" type="line" smooth="yes"/>
      <point x="617" y="1341"/>
      <point x="522" y="1477"/>
      <point x="361" y="1477" type="curve" smooth="yes"/>
      <point x="203" y="1477"/>
      <point x="107" y="1341"/>
      <point x="107" y="1176" type="curve" smooth="yes"/>
    </contour>
    <contour>
      <point x="237" y="1176" type="line"/>
      <point x="237" y="1270"/>
      <point x="277" y="1357"/>
      <point x="361" y="1357" type="curve" smooth="yes"/>
      <point x="446" y="1357"/>
      <point x="487" y="1270"/>
      <point x="487" y="1176" type="curve" smooth="yes"/>
      <point x="487" y="1099" type="line" smooth="yes"/>
      <point x="487" y="1006"/>
      <point x="447" y="920"/>
      <point x="363" y="920" type="curve" smooth="yes"/>
      <point x="278" y="920"/>
      <point x="237" y="1007"/>
      <point x="237" y="1099" type="curve" smooth="yes"/>
    </contour>
    <contour>
      <point x="695" y="279" type="line"/>
      <point x="695" y="115"/>
      <point x="791" y="-21"/>
      <point x="951" y="-21" type="curve" smooth="yes"/>
      <point x="1110" y="-21"/>
      <point x="1205" y="115"/>
      <point x="1205" y="279" type="curve" smooth="yes"/>
      <point x="1205" y="357" type="line" smooth="yes"/>
      <point x="1205" y="521"/>
      <point x="1110" y="657"/>
      <point x="949" y="657" type="curve" smooth="yes"/>
      <point x="791" y="657"/>
      <point x="695" y="521"/>
      <point x="695" y="357" type="curve" smooth="yes"/>
    </contour>
    <contour>
      <point x="825" y="357" type="line"/>
      <point x="825" y="451"/>
      <point x="865" y="537"/>
      <point x="949" y="537" type="curve" smooth="yes"/>
      <point x="1035" y="537"/>
      <point x="1076" y="451"/>
      <point x="1076" y="357" type="curve" smooth="yes"/>
      <point x="1076" y="279" type="line" smooth="yes"/>
      <point x="1076" y="185"/>
      <point x="1036" y="99"/>
      <point x="951" y="99" type="curve" smooth="yes"/>
      <point x="866" y="99"/>
      <point x="825" y="186"/>
      <point x="825" y="279" type="curve" smooth="yes"/>
    </contour>
    <contour>
      <point x="997" y="1249" type="line"/>
      <point x="900" y="1315" type="line"/>
      <point x="303" y="177" type="line"/>
      <point x="399" y="111" type="line"/>
    </contour>
  </outline>
</glyph>
<glyph name="ampersand" format="2">
  <advance width="1114"/>
  <unicode hex="0026"/>
  <outline>
    <contour>
      <point x="371" y="808" type="line"/>
      <point x="213" y="683"/>
      <point x="104" y="575"/>
      <point x="104" y="392" type="curve"/>
      <point x="104" y="152"/>
      <point x="257" y="-20"/>
      <point x="504" y="-20" type="curve"/>
      <point x="622" y="-20"/>
      <point x="758" y="34"/>
      <point x="840" y="142" type="curve" smooth="yes"/>
      <point x="850" y="154"/>
      <point x="855" y="172"/>
      <point x="865" y="184" type="curve" smooth="yes"/>
      <point x="973" y="307"/>
      <point x="1020" y="474"/>
      <point x="1020" y="672" type="curve"/>
      <point x="863" y="672" type="line"/>
      <point x="863" y="349"/>
      <point x="684" y="132"/>
      <point x="504" y="132" type="curve" smooth="yes"/>
      <point x="353" y="132"/>
      <point x="280" y="250"/>
      <point x="280" y="392" type="curve"/>
      <point x="280" y="435"/>
      <point x="288" y="531"/>
      <point x="400" y="637" type="curve" smooth="yes"/>
      <point x="650" y="852" type="line" smooth="yes"/>
      <point x="755" y="939"/>
      <point x="817" y="1028"/>
      <point x="817" y="1169" type="curve"/>
      <point x="817" y="1334"/>
      <point x="701" y="1476"/>
      <point x="515" y="1476" type="curve" smooth="yes"/>
      <point x="325" y="1476"/>
      <point x="199" y="1350"/>
      <point x="199" y="1123" type="curve" smooth="yes"/>
      <point x="199" y="974"/>
      <point x="294" y="852"/>
      <point x="422" y="676" type="curve" smooth="yes"/>
      <point x="884" y="0" type="line"/>
      <point x="1096" y="0" type="line"/>
      <point x="523" y="826" type="line" smooth="yes"/>
      <point x="439" y="941"/>
      <point x="376" y="1038"/>
      <point x="376" y="1129" type="curve" smooth="yes"/>
      <point x="376" y="1234"/>
      <point x="423" y="1325"/>
      <point x="514" y="1325" type="curve" smooth="yes"/>
      <point x="603" y="1325"/>
      <point x="655" y="1248"/>
      <point x="655" y="1169" type="curve"/>
      <point x="655" y="1068"/>
      <point x="619" y="1020"/>
      <point x="549" y="963" type="curve"/>
    </contour>
  </outline>
</glyph>
<glyph name="parenleft" format="2">
  <advance width="644"/>
  <unicode hex="0028"/>
  <outline>
    <contour>
      <point x="130" y="582" type="line"/>
      <point x="130" y="-2"/>
      <point x="400" y="-365"/>
      <point x="553" y="-470" type="curve"/>
      <point x="589" y="-358" type="line"/>
      <point x="464" y="-230"/>
      <point x="307" y="73"/>
      <point x="307" y="580" type="curve"/>
      <point x="307" y="594" type="line" smooth="yes"/>
      <point x="307" y="1100"/>
      <point x="464" y="1402"/>
      <point x="589" y="1521" type="curve"/>
      <point x="553" y="1643" type="line"/>
      <point x="400" y="1538"/>
      <point x="130" y="1173"/>
      <point x="130" y="592" type="curve"/>
    </contour>
  </outline>
</glyph>
<glyph name="parenright" format="2">
  <advance width="653"/>
  <unicode hex="0029"/>
  <outline>
    <contour>
      <point x="513" y="592" type="line"/>
      <point x="513" y="1173"/>
      <point x="244" y="1538"/>
      <point x="90" y="1643" type="curve"/>
      <point x="55" y="1530" type="line"/>
      <point x="165" y="1413"/>
      <point x="337" y="1100"/>
      <point x="337" y="594" type="curve" smooth="yes"/>
      <point x="337" y="580" type="line"/>
      <point x="337" y="73"/>
      <point x="179" y="-239"/>
      <point x="55" y="-358" type="curve"/>
      <point x="90" y="-470" type="line"/>
      <point x="244" y="-365"/>
      <point x="513" y="-2"/>
      <point x="513" y="582" type="curve"/>
    </contour>
  </outline>
</glyph>
<glyph name="asterisk" format="2">
  <advance width="882"/>
  <unicode hex="002A"/>
  <outline>
    <contour>
      <point x="129" y="708" type="line"/>
      <point x="254" y="617" type="line"/>
      <point x="435" y="898" type="line"/>
      <point x="620" y="610" type="line"/>
      <point x="744" y="703" type="line"/>
      <point x="547" y="974" type="line"/>
      <point x="854" y="1065" type="line"/>
      <point x="808" y="1218" type="line"/>
      <point x="510" y="1107" type="line"/>
      <point x="520" y="1457" type="line"/>
      <point x="368" y="1457" type="line"/>
      <point x="377" y="1113" type="line"/>
      <point x="75" y="1224" type="line"/>
      <point x="28" y="1074" type="line"/>
      <point x="330" y="984" type="line"/>
    </contour>
  </outline>
</glyph>
<glyph name="comma" format="2">
  <advance width="403"/>
  <unicode hex="002C"/>
  <anchor x="306" y="224" name="_bottom"/>
  <anchor x="128" y="68" name="_right"/>
  <outline>
    <contour>
      <point x="309" y="220" type="line"/>
      <point x="128" y="220" type="line"/>
      <point x="128" y="68" type="line"/>
      <point x="128" y="-40"/>
      <point x="92" y="-130"/>
      <point x="29" y="-218" type="curve"/>
      <point x="134" y="-291" type="line"/>
      <point x="245" y="-200"/>
      <point x="309" y="-50"/>
      <point x="309" y="71" type="curve"/>
    </contour>
  </outline>
</glyph>
<glyph name="hyphen" format="2">
  <advance width="509"/>
  <unicode hex="002D"/>
  <outline>
    <contour>
      <point x="461" y="695" type="line"/>
      <point x="48" y="695" type="line"/>
      <point x="48" y="543" type="line"/>
      <point x="461" y="543" type="line"/>
    </contour>
  </outline>
</glyph>
<glyph name="period" format="2">
  <advance width="540"/>
  <unicode hex="002E"/>
  <outline>
    <contour>
      <point x="144" y="98" type="curve" smooth="yes"/>
      <point x="144" y="36"/>
      <point x="184" y="-12"/>
      <point x="259" y="-12" type="curve" smooth="yes"/>
      <point x="334" y="-12"/>
      <point x="374" y="36"/>
      <point x="374" y="98" type="curve" smooth="yes"/>
      <point x="374" y="161"/>
      <point x="334" y="210"/>
      <point x="259" y="210" type="curve" smooth="yes"/>
      <point x="184" y="210"/>
      <point x="144" y="161"/>
    </contour>
  </outline>
</glyph>
<glyph name="zero" format="2">
  <advance width="1012"/>
  <unicode hex="0030"/>
  <outline>
    <contour>
      <point x="896" y="844" type="line"/>
      <point x="896" y="1320"/>
      <point x="741" y="1476"/>
      <point x="504" y="1476" type="curve" smooth="yes"/>
      <point x="270" y="1476"/>
      <point x="115" y="1320"/>
      <point x="115" y="844" type="curve"/>
      <point x="115" y="622" type="line"/>
      <point x="115" y="145"/>
      <point x="272" y="-20"/>
      <point x="506" y="-20" type="curve" smooth="yes"/>
      <point x="743" y="-20"/>
      <point x="896" y="145"/>
      <point x="896" y="622" type="curve"/>
    </contour>
    <contour>
      <point x="718" y="592" type="line"/>
      <point x="718" y="266"/>
      <point x="646" y="132"/>
      <point x="506" y="132" type="curve" smooth="yes"/>
      <point x="371" y="132"/>
      <point x="292" y="266"/>
      <point x="292" y="592" type="curve" smooth="yes"/>
      <point x="292" y="875" type="line" smooth="yes"/>
      <point x="292" y="1203"/>
      <point x="370" y="1325"/>
      <point x="504" y="1325" type="curve" smooth="yes"/>
      <point x="643" y="1325"/>
      <point x="718" y="1203"/>
      <point x="718" y="875" type="curve"/>
    </contour>
  </outline>
</glyph>
<glyph name="one" format="2">
  <advance width="1012"/>
  <unicode hex="0031"/>
  <outline>
    <contour>
      <point x="644" y="1464" type="line"/>
      <point x="616" y="1464" type="line"/>
      <point x="161" y="1264" type="line"/>
      <point x="161" y="1097" type="line"/>
      <point x="467" y="1233" type="line"/>
      <point x="467" y="0" type="line"/>
      <point x="644" y="0" type="line"/>
    </contour>
  </outline>
</glyph>
<glyph name="two" format="2">
  <advance width="1012"/>
  <unicode hex="0032"/>
  <outline>
    <contour>
      <point x="931" y="152" type="line"/>
      <point x="329" y="152" type="line"/>
      <point x="652" y="575" type="line" smooth="yes"/>
      <point x="777" y="737"/>
      <point x="877" y="915"/>
      <point x="877" y="1087" type="curve" smooth="yes"/>
      <point x="877" y="1320"/>
      <point x="738" y="1476"/>
      <point x="503" y="1476" type="curve" smooth="yes"/>
      <point x="232" y="1476"/>
      <point x="95" y="1274"/>
      <point x="95" y="1028" type="curve"/>
      <point x="272" y="1028" type="line"/>
      <point x="272" y="1202"/>
      <point x="342" y="1324"/>
      <point x="503" y="1324" type="curve" smooth="yes"/>
      <point x="628" y="1324"/>
      <point x="700" y="1208"/>
      <point x="700" y="1065" type="curve" smooth="yes"/>
      <point x="700" y="951"/>
      <point x="665" y="860"/>
      <point x="518" y="664" type="curve" smooth="yes"/>
      <point x="118" y="133" type="line"/>
      <point x="118" y="0" type="line"/>
      <point x="931" y="0" type="line"/>
    </contour>
  </outline>
</glyph>
<glyph name="three" format="2">
  <advance width="1012"/>
  <unicode hex="0033"/>
  <outline>
    <contour>
      <point x="344" y="819" type="line"/>
      <point x="344" y="707" type="line"/>
      <point x="484" y="707" type="line" smooth="yes"/>
      <point x="758" y="707"/>
      <point x="860" y="916"/>
      <point x="860" y="1064" type="curve" smooth="yes"/>
      <point x="860" y="1335"/>
      <point x="709" y="1476"/>
      <point x="486" y="1476" type="curve" smooth="yes"/>
      <point x="254" y="1476"/>
      <point x="106" y="1297"/>
      <point x="106" y="1075" type="curve"/>
      <point x="282" y="1075" type="line"/>
      <point x="282" y="1227"/>
      <point x="362" y="1324"/>
      <point x="486" y="1324" type="curve" smooth="yes"/>
      <point x="617" y="1324"/>
      <point x="683" y="1235"/>
      <point x="683" y="1068" type="curve" smooth="yes"/>
      <point x="683" y="925"/>
      <point x="611" y="819"/>
      <point x="459" y="819" type="curve" smooth="yes"/>
    </contour>
    <contour>
      <point x="344" y="667" type="line"/>
      <point x="459" y="667" type="line" smooth="yes"/>
      <point x="607" y="667"/>
      <point x="700" y="583"/>
      <point x="700" y="402" type="curve" smooth="yes"/>
      <point x="700" y="220"/>
      <point x="617" y="132"/>
      <point x="485" y="132" type="curve" smooth="yes"/>
      <point x="352" y="132"/>
      <point x="275" y="232"/>
      <point x="275" y="385" type="curve"/>
      <point x="99" y="385" type="line"/>
      <point x="99" y="126"/>
      <point x="267" y="-20"/>
      <point x="485" y="-20" type="curve" smooth="yes"/>
      <point x="708" y="-20"/>
      <point x="877" y="134"/>
      <point x="877" y="406" type="curve" smooth="yes"/>
      <point x="877" y="579"/>
      <point x="807" y="778"/>
      <point x="484" y="778" type="curve" smooth="yes"/>
      <point x="344" y="778" type="line"/>
    </contour>
  </outline>
</glyph>
<glyph name="five" format="2">
  <advance width="1012"/>
  <unicode hex="0035"/>
  <outline>
    <contour>
      <point x="331" y="693" type="line"/>
      <point x="385" y="750"/>
      <point x="418" y="786"/>
      <point x="518" y="786" type="curve"/>
      <point x="666" y="786"/>
      <point x="749" y="645"/>
      <point x="749" y="462" type="curve" smooth="yes"/>
      <point x="749" y="259"/>
      <point x="668" y="132"/>
      <point x="531" y="132" type="curve" smooth="yes"/>
      <point x="410" y="132"/>
      <point x="332" y="218"/>
      <point x="312" y="383" type="curve"/>
      <point x="145" y="383" type="line"/>
      <point x="167" y="111"/>
      <point x="331" y="-20"/>
      <point x="531" y="-20" type="curve" smooth="yes"/>
      <point x="795" y="-20"/>
      <point x="926" y="185"/>
      <point x="926" y="464" type="curve" smooth="yes"/>
      <point x="926" y="761"/>
      <point x="789" y="952"/>
      <point x="561" y="952" type="curve"/>
      <point x="476" y="952"/>
      <point x="412" y="920"/>
      <point x="367" y="889" type="curve"/>
      <point x="401" y="1285" type="line"/>
      <point x="886" y="1285" type="line"/>
      <point x="886" y="1456" type="line"/>
      <point x="252" y="1456" type="line"/>
      <point x="190" y="731" type="line"/>
    </contour>
  </outline>
</glyph>
<glyph name="six" format="2">
  <advance width="1012"/>
  <unicode hex="0036"/>
  <outline>
    <contour>
      <point x="720" y="1458" type="line" name="hr00"/>
      <point x="218" y="1458"/>
      <point x="133" y="1036"/>
      <point x="133" y="626" type="curve" smooth="yes"/>
      <point x="133" y="539" type="line" smooth="yes"/>
      <point x="133" y="268"/>
      <point x="253" y="-20"/>
      <point x="525" y="-20" type="curve" smooth="yes"/>
      <point x="781" y="-20"/>
      <point x="911" y="199"/>
      <point x="911" y="475" type="curve" smooth="yes"/>
      <point x="911" y="714"/>
      <point x="808" y="955"/>
      <point x="560" y="955" type="curve" smooth="yes"/>
      <point x="390" y="955"/>
      <point x="242" y="834"/>
      <point x="204" y="536" type="curve"/>
      <point x="296" y="535" type="line"/>
      <point x="307" y="676"/>
      <point x="410" y="802"/>
      <point x="531" y="802" type="curve" smooth="yes"/>
      <point x="671" y="802"/>
      <point x="737" y="640"/>
      <point x="737" y="466" type="curve" smooth="yes"/>
      <point x="737" y="272"/>
      <point x="661" y="133"/>
      <point x="525" y="133" type="curve" smooth="yes"/>
      <point x="418" y="133"/>
      <point x="310" y="274"/>
      <point x="310" y="533" type="curve"/>
      <point x="310" y="747" type="line" smooth="yes"/>
      <point x="310" y="1020"/>
      <point x="383" y="1301"/>
      <point x="720" y="1301" type="curve" smooth="yes"/>
      <point x="733" y="1301" type="line"/>
      <point x="733" y="1458" type="line"/>
    </contour>
  </outline>
</glyph>
<glyph name="eight" format="2">
  <advance width="1012"/>
  <unicode hex="0038"/>
  <outline>
    <contour>
      <point x="895" y="394" type="curve" smooth="yes"/>
      <point x="895" y="625"/>
      <point x="731" y="793"/>
      <point x="504" y="793" type="curve" smooth="yes"/>
      <point x="275" y="793"/>
      <point x="117" y="625"/>
      <point x="117" y="394" type="curve" smooth="yes"/>
      <point x="117" y="128"/>
      <point x="286" y="-20"/>
      <point x="506" y="-20" type="curve" smooth="yes"/>
      <point x="725" y="-20"/>
      <point x="895" y="128"/>
    </contour>
    <contour>
      <point x="717" y="398" type="curve" smooth="yes"/>
      <point x="717" y="230"/>
      <point x="641" y="132"/>
      <point x="506" y="132" type="curve" smooth="yes"/>
      <point x="371" y="132"/>
      <point x="293" y="230"/>
      <point x="293" y="398" type="curve" smooth="yes"/>
      <point x="293" y="560"/>
      <point x="372" y="674"/>
      <point x="504" y="674" type="curve" smooth="yes"/>
      <point x="634" y="674"/>
      <point x="717" y="560"/>
    </contour>
    <contour>
      <point x="867" y="1077" type="curve" smooth="yes"/>
      <point x="867" y="1331"/>
      <point x="717" y="1476"/>
      <point x="505" y="1476" type="curve" smooth="yes"/>
      <point x="295" y="1476"/>
      <point x="143" y="1331"/>
      <point x="143" y="1077" type="curve" smooth="yes"/>
      <point x="143" y="864"/>
      <point x="293" y="703"/>
      <point x="506" y="703" type="curve" smooth="yes"/>
      <point x="713" y="703"/>
      <point x="867" y="864"/>
    </contour>
    <contour>
      <point x="691" y="1074" type="curve" smooth="yes"/>
      <point x="691" y="923"/>
      <point x="618" y="825"/>
      <point x="506" y="825" type="curve" smooth="yes"/>
      <point x="393" y="825"/>
      <point x="321" y="923"/>
      <point x="321" y="1074" type="curve" smooth="yes"/>
      <point x="321" y="1227"/>
      <point x="394" y="1324"/>
      <point x="505" y="1324" type="curve" smooth="yes"/>
      <point x="617" y="1324"/>
      <point x="691" y="1219"/>
    </contour>
  </outline>
</glyph>
<glyph name="nine" format="2">
  <advance width="1012"/>
  <unicode hex="0039"/>
  <outline>
    <contour>
      <point x="277" y="155" type="line"/>
      <point x="277" y="-2" type="line"/>
      <point x="291" y="-2" type="line" smooth="yes"/>
      <point x="823" y="-2"/>
      <point x="877" y="442"/>
      <point x="877" y="820" type="curve" smooth="yes"/>
      <point x="877" y="887" type="line" smooth="yes"/>
      <point x="877" y="1182"/>
      <point x="773" y="1476"/>
      <point x="487" y="1476" type="curve" smooth="yes"/>
      <point x="231" y="1476"/>
      <point x="104" y="1250"/>
      <point x="104" y="973" type="curve" smooth="yes"/>
      <point x="104" y="735"/>
      <point x="204" y="487"/>
      <point x="452" y="487" type="curve" smooth="yes"/>
      <point x="656" y="487"/>
      <point x="808" y="721"/>
      <point x="808" y="942" type="curve"/>
      <point x="725" y="942" type="line"/>
      <point x="715" y="785"/>
      <point x="600" y="641"/>
      <point x="482" y="641" type="curve" smooth="yes"/>
      <point x="341" y="641"/>
      <point x="277" y="810"/>
      <point x="277" y="983" type="curve" smooth="yes"/>
      <point x="277" y="1177"/>
      <point x="352" y="1323"/>
      <point x="486" y="1323" type="curve" smooth="yes"/>
      <point x="594" y="1323"/>
      <point x="702" y="1177"/>
      <point x="702" y="912" type="curve"/>
      <point x="702" y="689" type="line"/>
      <point x="702" y="420"/>
      <point x="651" y="155"/>
      <point x="291" y="155" type="curve" smooth="yes"/>
    </contour>
  </outline>
</glyph>
<glyph name="less" format="2">
  <advance width="913"/>
  <unicode hex="003C"/>
  <outline>
    <contour>
      <point x="200" y="672" type="line"/>
      <point x="79" y="690" type="line"/>
      <point x="79" y="575" type="line"/>
      <point x="763" y="196" type="line"/>
      <point x="763" y="392" type="line"/>
    </contour>
    <contour>
      <point x="763" y="902" type="line"/>
      <point x="763" y="1098" type="line"/>
      <point x="79" y="720" type="line"/>
      <point x="79" y="604" type="line"/>
      <point x="201" y="618" type="line"/>
    </contour>
  </outline>
</glyph>
<glyph name="equal" format="2">
  <advance width="981"/>
  <unicode hex="003D"/>
  <outline>
    <contour>
      <point x="849" y="975" type="line"/>
      <point x="148" y="975" type="line"/>
      <point x="148" y="814" type="line"/>
      <point x="849" y="814" type="line"/>
    </contour>
    <contour>
      <point x="849" y="560" type="line"/>
      <point x="148" y="560" type="line"/>
      <point x="148" y="399" type="line"/>
      <point x="849" y="399" type="line"/>
    </contour>
  </outline>
</glyph>
<glyph name="greater" format="2">
  <advance width="943"/>
  <unicode hex="003E"/>
  <outline>
    <contour>
      <point x="720" y="632" type="line"/>
      <point x="857" y="605" type="line"/>
      <point x="857" y="722" type="line"/>
      <point x="137" y="1100" type="line"/>
      <point x="137" y="909" type="line"/>
    </contour>
    <contour>
      <point x="137" y="388" type="line"/>
      <point x="137" y="197" type="line"/>
      <point x="857" y="576" type="line"/>
      <point x="857" y="692" type="line"/>
      <point x="721" y="671" type="line"/>
    </contour>
  </outline>
</glyph>
<glyph name="question" format="2">
  <advance width="865"/>
  <unicode hex="003F"/>
  <outline>
    <contour>
      <point x="491" y="410" type="line"/>
      <point x="491" y="509"/>
      <point x="506" y="595"/>
      <point x="563" y="663" type="curve" smooth="yes"/>
      <point x="666" y="782"/>
      <point x="779" y="917"/>
      <point x="779" y="1096" type="curve" smooth="yes"/>
      <point x="779" y="1330"/>
      <point x="652" y="1476"/>
      <point x="434" y="1476" type="curve" smooth="yes"/>
      <point x="234" y="1476"/>
      <point x="83" y="1341"/>
      <point x="80" y="1115" type="curve"/>
      <point x="256" y="1115" type="line"/>
      <point x="257" y="1254"/>
      <point x="348" y="1314"/>
      <point x="434" y="1314" type="curve" smooth="yes"/>
      <point x="542" y="1314"/>
      <point x="601" y="1229"/>
      <point x="601" y="1091" type="curve" smooth="yes"/>
      <point x="601" y="955"/>
      <point x="533" y="890"/>
      <point x="462" y="796" type="curve" smooth="yes"/>
      <point x="353" y="666"/>
      <point x="315" y="602"/>
      <point x="314" y="410" type="curve"/>
    </contour>
    <contour>
      <point x="310" y="93" type="curve" smooth="yes"/>
      <point x="310" y="35"/>
      <point x="344" y="-12"/>
      <point x="410" y="-12" type="curve" smooth="yes"/>
      <point x="477" y="-12"/>
      <point x="511" y="35"/>
      <point x="511" y="93" type="curve" smooth="yes"/>
      <point x="511" y="153"/>
      <point x="477" y="200"/>
      <point x="410" y="200" type="curve" smooth="yes"/>
      <point x="344" y="200"/>
      <point x="310" y="153"/>
    </contour>
  </outline>
</glyph>
<glyph name="at" format="2">
  <advance width="1575"/>
  <unicode hex="0040"/>
  <outline>
    <contour>
      <point x="1473" y="503" type="curve"/>
      <point x="1493" y="1071"/>
      <point x="1254" y="1431"/>
      <point x="829" y="1431" type="curve" smooth="yes"/>
      <point x="406" y="1431"/>
      <point x="135" y="1026"/>
      <point x="115" y="478" type="curve" smooth="yes"/>
      <point x="95" y="-96"/>
      <point x="342" y="-453"/>
      <point x="768" y="-453" type="curve" smooth="yes"/>
      <point x="873" y="-453"/>
      <point x="1003" y="-424"/>
      <point x="1083" y="-364" type="curve"/>
      <point x="1049" y="-250" type="line"/>
      <point x="980" y="-298"/>
      <point x="870" y="-328"/>
      <point x="771" y="-328" type="curve" smooth="yes"/>
      <point x="423" y="-328"/>
      <point x="232" y="-21"/>
      <point x="252" y="478" type="curve" smooth="yes"/>
      <point x="267" y="966"/>
      <point x="476" y="1300"/>
      <point x="825" y="1300" type="curve" smooth="yes"/>
      <point x="1205" y="1300"/>
      <point x="1371" y="1001"/>
      <point x="1353" y="503" type="curve" smooth="yes"/>
      <point x="1345" y="278"/>
      <point x="1274" y="98"/>
      <point x="1144" y="98" type="curve" smooth="yes"/>
      <point x="1089" y="98"/>
      <point x="1032" y="135"/>
      <point x="1045" y="330" type="curve"/>
      <point x="1089" y="884" type="line"/>
      <point x="950" y="884" type="line"/>
      <point x="907" y="330" type="line" smooth="yes"/>
      <point x="888" y="116"/>
      <point x="964" y="-21"/>
      <point x="1123" y="-21" type="curve"/>
      <point x="1372" y="-21"/>
      <point x="1465" y="257"/>
    </contour>
    <contour>
      <point x="628" y="418" type="curve" smooth="yes"/>
      <point x="649" y="710"/>
      <point x="739" y="861"/>
      <point x="857" y="861" type="curve" smooth="yes"/>
      <point x="927" y="861"/>
      <point x="980" y="822"/>
      <point x="1012" y="785" type="curve"/>
      <point x="1089" y="884" type="line"/>
      <point x="1024" y="941"/>
      <point x="965" y="990"/>
      <point x="841" y="990" type="curve" smooth="yes"/>
      <point x="671" y="990"/>
      <point x="504" y="769"/>
      <point x="478" y="418" type="curve" smooth="yes"/>
      <point x="457" y="155"/>
      <point x="539" y="-21"/>
      <point x="706" y="-21" type="curve" smooth="yes"/>
      <point x="815" y="-21"/>
      <point x="933" y="94"/>
      <point x="985" y="312" type="curve"/>
      <point x="924" y="384" type="line"/>
      <point x="888" y="196"/>
      <point x="810" y="123"/>
      <point x="753" y="123" type="curve" smooth="yes"/>
      <point x="661" y="123"/>
      <point x="614" y="230"/>
    </contour>
  </outline>
</glyph>
<glyph name="B" format="2">
  <advance width="1118"/>
  <unicode hex="0042"/>
  <anchor x="536" y="1612" name="top"/>
  <anchor x="543" y="10" name="bottom"/>
  <anchor x="1098" y="1600" name="top_dd"/>
  <anchor x="1098" y="-407" name="bottom_dd"/>
  <anchor x="1098" y="1612" name="top0315"/>
  <outline>
    <contour>
      <point x="598" y="681" type="line"/>
      <point x="654" y="728" type="line"/>
      <point x="841" y="753"/>
      <point x="972" y="888"/>
      <point x="972" y="1068" type="curve"/>
      <point x="972" y="1339"/>
      <point x="824" y="1456"/>
      <point x="573" y="1456" type="curve"/>
      <point x="157" y="1456" type="line"/>
      <point x="157" y="0" type="line"/>
      <point x="341" y="0" type="line"/>
      <point x="341" y="1298" type="line"/>
      <point x="573" y="1298" type="line"/>
      <point x="719" y="1298"/>
      <point x="787" y="1230"/>
      <point x="787" y="1070" type="curve"/>
      <point x="787" y="923"/>
      <point x="699" y="836"/>
      <point x="576" y="836" type="curve"/>
      <point x="300" y="836" type="line"/>
      <point x="302" y="681" type="line"/>
    </contour>
    <contour>
      <point x="591" y="0" type="line"/>
      <point x="840" y="0"/>
      <point x="1000" y="148"/>
      <point x="1000" y="420" type="curve" smooth="yes"/>
      <point x="1000" y="608"/>
      <point x="905" y="761"/>
      <point x="724" y="780" type="curve"/>
      <point x="684" y="836" type="line"/>
      <point x="363" y="836" type="line"/>
      <point x="361" y="681" type="line"/>
      <point x="598" y="681" type="line" smooth="yes"/>
      <point x="753" y="681"/>
      <point x="817" y="580"/>
      <point x="817" y="418" type="curve" smooth="yes"/>
      <point x="817" y="258"/>
      <point x="735" y="157"/>
      <point x="591" y="157" type="curve" smooth="yes"/>
      <point x="332" y="157" type="line"/>
      <point x="226" y="0" type="line"/>
    </contour>
  </outline>
</glyph>
<glyph name="C" format="2">
  <advance width="1161"/>
  <unicode hex="0043"/>
  <anchor x="592" y="1633" name="top"/>
  <anchor x="592" y="-10" name="bottom"/>
  <anchor x="1141" y="1600" name="top_dd"/>
  <anchor x="1141" y="-407" name="bottom_dd"/>
  <anchor x="1141" y="1633" name="top0315"/>
  <outline>
    <contour>
      <point x="886" y="463" type="line"/>
      <point x="867" y="231"/>
      <point x="803" y="137"/>
      <point x="601" y="137" type="curve" smooth="yes"/>
      <point x="387" y="137"/>
      <point x="309" y="339"/>
      <point x="309" y="594" type="curve" smooth="yes"/>
      <point x="309" y="865" type="line" smooth="yes"/>
      <point x="309" y="1139"/>
      <point x="405" y="1318"/>
      <point x="618" y="1318" type="curve" smooth="yes"/>
      <point x="798" y="1318"/>
      <point x="871" y="1218"/>
      <point x="886" y="989" type="curve"/>
      <point x="1070" y="989" type="line"/>
      <point x="1056" y="1302"/>
      <point x="901" y="1476"/>
      <point x="618" y="1476" type="curve" smooth="yes"/>
      <point x="309" y="1476"/>
      <point x="125" y="1236"/>
      <point x="125" y="863" type="curve"/>
      <point x="125" y="594" type="line"/>
      <point x="125" y="219"/>
      <point x="310" y="-20"/>
      <point x="601" y="-20" type="curve" smooth="yes"/>
      <point x="904" y="-20"/>
      <point x="1055" y="163"/>
      <point x="1070" y="463" type="curve"/>
    </contour>
  </outline>
</glyph>
<glyph name="F" format="2">
  <advance width="984"/>
  <unicode hex="0046"/>
  <anchor x="466" y="10" name="bottom"/>
  <anchor x="540" y="1612" name="top"/>
  <anchor x="964" y="1612" name="top0315"/>
  <anchor x="300" y="337" name="cross"/>
  <anchor x="964" y="1600" name="top_dd"/>
  <anchor x="964" y="-407" name="bottom_dd"/>
  <outline>
    <contour>
      <point x="341" y="1456" type="line"/>
      <point x="157" y="1456" type="line"/>
      <point x="157" y="0" type="line"/>
      <point x="341" y="0" type="line"/>
    </contour>
    <contour>
      <point x="832" y="801" type="line"/>
      <point x="306" y="801" type="line"/>
      <point x="306" y="643" type="line"/>
      <point x="832" y="643" type="line"/>
    </contour>
    <contour>
      <point x="915" y="1456" type="line"/>
      <point x="306" y="1456" type="line"/>
      <point x="306" y="1298" type="line"/>
      <point x="915" y="1298" type="line"/>
    </contour>
  </outline>
</glyph>
<glyph name="I" format="2">
  <advance width="512"/>
  <unicode hex="0049"/>
  <anchor x="344" y="0" name="right"/>
  <anchor x="492" y="1612" name="top0315"/>
  <anchor x="3" y="1457" name="tonos"/>
  <anchor x="256" y="1612" name="top"/>
  <anchor x="256" y="9" name="bottom"/>
  <anchor x="492" y="1600" name="top_dd"/>
  <anchor x="315" y="0" name="ogonek"/>
  <anchor x="492" y="-407" name="bottom_dd"/>
  <outline>
    <contour>
      <point x="349" y="1456" type="line"/>
      <point x="165" y="1456" type="line"/>
      <point x="165" y="0" type="line"/>
      <point x="349" y="0" type="line"/>
    </contour>
  </outline>
</glyph>
<glyph name="J" format="2">
  <advance width="990"/>
  <unicode hex="004A"/>
  <anchor x="728" y="1599" name="top"/>
  <anchor x="450" y="-10" name="bottom"/>
  <anchor x="970" y="1600" name="top_dd"/>
  <anchor x="970" y="-407" name="bottom_dd"/>
  <anchor x="970" y="1599" name="top0315"/>
  <outline>
    <contour>
      <point x="660" y="425" type="line"/>
      <point x="660" y="236"/>
      <point x="571" y="137"/>
      <point x="451" y="137" type="curve" smooth="yes"/>
      <point x="333" y="137"/>
      <point x="243" y="219"/>
      <point x="243" y="403" type="curve"/>
      <point x="59" y="403" type="line"/>
      <point x="59" y="116"/>
      <point x="225" y="-20"/>
      <point x="451" y="-20" type="curve" smooth="yes"/>
      <point x="680" y="-20"/>
      <point x="843" y="137"/>
      <point x="843" y="425" type="curve"/>
      <point x="843" y="1456" type="line"/>
      <point x="660" y="1456" type="line"/>
    </contour>
  </outline>
</glyph>
<glyph name="L" format="2">
  <advance width="974"/>
  <unicode hex="004C"/>
  <anchor x="954" y="1596" name="top0315"/>
  <anchor x="247" y="1596" name="top"/>
  <anchor x="540" y="10" name="bottom"/>
  <anchor x="533" y="1455" name="caron"/>
  <anchor x="954" y="1600" name="top_dd"/>
  <anchor x="954" y="-407" name="bottom_dd"/>
  <anchor x="524" y="791" name="dot"/>
  <outline>
    <contour>
      <point x="912" y="157" type="line"/>
      <point x="309" y="157" type="line"/>
      <point x="309" y="0" type="line"/>
      <point x="912" y="0" type="line"/>
    </contour>
    <contour>
      <point x="341" y="1456" type="line"/>
      <point x="157" y="1456" type="line"/>
      <point x="157" y="0" type="line"/>
      <point x="341" y="0" type="line"/>
    </contour>
  </outline>
</glyph>
<glyph name="M" format="2">
  <advance width="1547"/>
  <unicode hex="004D"/>
  <anchor x="1376" y="0" name="right"/>
  <anchor x="772" y="10" name="bottom"/>
  <anchor x="768" y="1601" name="top"/>
  <anchor x="1527" y="1601" name="top0315"/>
  <anchor x="1527" y="1600" name="top_dd"/>
  <anchor x="1527" y="-407" name="bottom_dd"/>
  <outline>
    <contour>
      <point x="215" y="1456" type="line"/>
      <point x="703" y="0" type="line"/>
      <point x="842" y="0" type="line"/>
      <point x="1332" y="1456" type="line"/>
      <point x="1154" y="1456" type="line"/>
      <point x="774" y="269" type="line"/>
      <point x="393" y="1456" type="line"/>
    </contour>
    <contour>
      <point x="157" y="1456" type="line"/>
      <point x="157" y="0" type="line"/>
      <point x="340" y="0" type="line"/>
      <point x="340" y="568" type="line"/>
      <point x="313" y="1456" type="line"/>
    </contour>
    <contour>
      <point x="1233" y="1456" type="line"/>
      <point x="1206" y="568" type="line"/>
      <point x="1206" y="0" type="line"/>
      <point x="1389" y="0" type="line"/>
      <point x="1389" y="1456" type="line"/>
    </contour>
  </outline>
</glyph>
<glyph name="N" format="2">
  <advance width="1269"/>
  <unicode hex="004E"/>
  <anchor x="1108" y="0" name="right"/>
  <anchor x="624" y="10" name="bottom"/>
  <anchor x="630" y="1601" name="top"/>
  <anchor x="1249" y="1601" name="top0315"/>
  <anchor x="1249" y="1600" name="top_dd"/>
  <anchor x="1249" y="-407" name="bottom_dd"/>
  <outline>
    <contour>
      <point x="1109" y="1456" type="line"/>
      <point x="927" y="1456" type="line"/>
      <point x="927" y="330" type="line"/>
      <point x="341" y="1456" type="line"/>
      <point x="157" y="1456" type="line"/>
      <point x="157" y="0" type="line"/>
      <point x="341" y="0" type="line"/>
      <point x="341" y="1123" type="line"/>
      <point x="924" y="0" type="line"/>
      <point x="1109" y="0" type="line"/>
    </contour>
  </outline>
</glyph>
<glyph name="P" format="2">
  <advance width="1135"/>
  <unicode hex="0050"/>
  <anchor x="465" y="10" name="bottom"/>
  <anchor x="43" y="1454" name="tonos"/>
  <anchor x="536" y="1612" name="top"/>
  <anchor x="1115" y="1612" name="top0315"/>
  <anchor x="1115" y="1600" name="top_dd"/>
  <anchor x="1115" y="-407" name="bottom_dd"/>
  <outline>
    <contour>
      <point x="621" y="571" type="line"/>
      <point x="901" y="571"/>
      <point x="1057" y="731"/>
      <point x="1057" y="1012" type="curve"/>
      <point x="1057" y="1270"/>
      <point x="902" y="1456"/>
      <point x="621" y="1456" type="curve"/>
      <point x="157" y="1456" type="line"/>
      <point x="157" y="0" type="line"/>
      <point x="341" y="0" type="line"/>
      <point x="341" y="1298" type="line"/>
      <point x="621" y="1298" type="line"/>
      <point x="800" y="1298"/>
      <point x="873" y="1160"/>
      <point x="873" y="1010" type="curve"/>
      <point x="873" y="845"/>
      <point x="800" y="728"/>
      <point x="621" y="728" type="curve"/>
      <point x="303" y="728" type="line"/>
      <point x="303" y="571" type="line"/>
    </contour>
  </outline>
</glyph>
<glyph name="Q" format="2">
  <advance width="1231"/>
  <unicode hex="0051"/>
  <anchor x="608" y="1600" name="top"/>
  <anchor x="606" y="-10" name="bottom"/>
  <anchor x="1211" y="1600" name="top_dd"/>
  <anchor x="1211" y="-407" name="bottom_dd"/>
  <anchor x="1211" y="1600" name="top0315"/>
  <outline>
    <contour>
      <point x="793" y="167" type="line"/>
      <point x="676" y="43" type="line"/>
      <point x="992" y="-246" type="line"/>
      <point x="1115" y="-126" type="line"/>
    </contour>
    <contour>
      <point x="1096" y="854" type="line"/>
      <point x="1096" y="1266"/>
      <point x="907" y="1476"/>
      <point x="606" y="1476" type="curve" smooth="yes"/>
      <point x="314" y="1476"/>
      <point x="117" y="1266"/>
      <point x="117" y="854" type="curve"/>
      <point x="117" y="602" type="line"/>
      <point x="117" y="189"/>
      <point x="316" y="-20"/>
      <point x="608" y="-20" type="curve" smooth="yes"/>
      <point x="909" y="-20"/>
      <point x="1096" y="189"/>
      <point x="1096" y="602" type="curve"/>
    </contour>
    <contour>
      <point x="914" y="602" type="line"/>
      <point x="914" y="279"/>
      <point x="808" y="143"/>
      <point x="608" y="143" type="curve" smooth="yes"/>
      <point x="420" y="143"/>
      <point x="299" y="279"/>
      <point x="299" y="602" type="curve" smooth="yes"/>
      <point x="299" y="856" type="line" smooth="yes"/>
      <point x="299" y="1176"/>
      <point x="418" y="1312"/>
      <point x="606" y="1312" type="curve" smooth="yes"/>
      <point x="806" y="1312"/>
      <point x="914" y="1176"/>
      <point x="914" y="856" type="curve"/>
    </contour>
  </outline>
</glyph>
<glyph name="S" format="2">
  <advance width="1062"/>
  <unicode hex="0053"/>
  <anchor x="541" y="1603" name="top"/>
  <anchor x="547" y="-1" name="bottom"/>
  <anchor x="1042" y="1600" name="top_dd"/>
  <anchor x="1042" y="-407" name="bottom_dd"/>
  <anchor x="1042" y="1603" name="top0315"/>
  <outline>
    <contour>
      <point x="793" y="368" type="curve" smooth="yes"/>
      <point x="793" y="226"/>
      <point x="710" y="137"/>
      <point x="550" y="137" type="curve" smooth="yes"/>
      <point x="396" y="137"/>
      <point x="269" y="223"/>
      <point x="269" y="422" type="curve"/>
      <point x="86" y="422" type="line"/>
      <point x="86" y="132"/>
      <point x="321" y="-20"/>
      <point x="550" y="-20" type="curve" smooth="yes"/>
      <point x="813" y="-20"/>
      <point x="979" y="133"/>
      <point x="979" y="370" type="curve"/>
      <point x="979" y="596"/>
      <point x="863" y="724"/>
      <point x="579" y="818" type="curve"/>
      <point x="395" y="884"/>
      <point x="308" y="960"/>
      <point x="308" y="1082" type="curve"/>
      <point x="308" y="1217"/>
      <point x="380" y="1318"/>
      <point x="542" y="1318" type="curve" smooth="yes"/>
      <point x="717" y="1318"/>
      <point x="794" y="1199"/>
      <point x="794" y="1036" type="curve"/>
      <point x="977" y="1036" type="line"/>
      <point x="977" y="1263"/>
      <point x="825" y="1476"/>
      <point x="542" y="1476" type="curve" smooth="yes"/>
      <point x="287" y="1476"/>
      <point x="124" y="1306"/>
      <point x="124" y="1080" type="curve"/>
      <point x="124" y="854"/>
      <point x="279" y="734"/>
      <point x="519" y="650" type="curve"/>
      <point x="742" y="570"/>
      <point x="793" y="504"/>
    </contour>
  </outline>
</glyph>
<glyph name="T" format="2">
  <advance width="1066"/>
  <unicode hex="0054"/>
  <anchor x="621" y="0" name="right"/>
  <anchor x="1046" y="1600" name="top0315"/>
  <anchor x="535" y="1600" name="top"/>
  <anchor x="536" y="0" name="bottom"/>
  <anchor x="541" y="895" name="cross"/>
  <anchor x="1046" y="1600" name="top_dd"/>
  <anchor x="1046" y="-407" name="bottom_dd"/>
  <outline>
    <contour>
      <point x="625" y="1456" type="line"/>
      <point x="443" y="1456" type="line"/>
      <point x="443" y="0" type="line"/>
      <point x="625" y="0" type="line"/>
    </contour>
    <contour>
      <point x="1008" y="1456" type="line"/>
      <point x="61" y="1456" type="line"/>
      <point x="61" y="1298" type="line"/>
      <point x="1008" y="1298" type="line"/>
    </contour>
  </outline>
</glyph>
<glyph name="U" format="2">
  <advance width="1150"/>
  <unicode hex="0055"/>
  <anchor x="726" y="0" name="right"/>
  <anchor x="1130" y="1601" name="top0315"/>
  <anchor x="575" y="1601" name="top"/>
  <anchor x="577" y="0" name="bottom"/>
  <anchor x="1130" y="1600" name="top_dd"/>
  <anchor x="811" y="44" name="ogonek"/>
  <anchor x="1130" y="-407" name="bottom_dd"/>
  <outline>
    <contour>
      <point x="842" y="1456" type="line"/>
      <point x="842" y="431" type="line" smooth="yes"/>
      <point x="842" y="203"/>
      <point x="738" y="137"/>
      <point x="577" y="137" type="curve" smooth="yes"/>
      <point x="417" y="137"/>
      <point x="313" y="203"/>
      <point x="313" y="431" type="curve" smooth="yes"/>
      <point x="313" y="1456" type="line"/>
      <point x="130" y="1456" type="line"/>
      <point x="130" y="431" type="line"/>
      <point x="130" y="103"/>
      <point x="325" y="-20"/>
      <point x="577" y="-20" type="curve" smooth="yes"/>
      <point x="813" y="-20"/>
      <point x="1025" y="103"/>
      <point x="1025" y="431" type="curve"/>
      <point x="1025" y="1456" type="line"/>
    </contour>
  </outline>
</glyph>
<glyph name="W" format="2">
  <advance width="1560"/>
  <unicode hex="0057"/>
  <anchor x="796" y="1601" name="top"/>
  <anchor x="794" y="10" name="bottom"/>
  <anchor x="1540" y="1600" name="top_dd"/>
  <anchor x="1540" y="-407" name="bottom_dd"/>
  <anchor x="1540" y="1601" name="top0315"/>
  <outline>
    <contour>
      <point x="483" y="440" type="line"/>
      <point x="396" y="0" type="line"/>
      <point x="527" y="0" type="line"/>
      <point x="779" y="1061" type="line"/>
      <point x="848" y="1456" type="line"/>
      <point x="717" y="1456" type="line"/>
    </contour>
    <contour>
      <point x="254" y="1456" type="line"/>
      <point x="71" y="1456" type="line"/>
      <point x="361" y="0" type="line"/>
      <point x="490" y="0" type="line"/>
      <point x="435" y="460" type="line"/>
    </contour>
    <contour>
      <point x="1146" y="461" type="line"/>
      <point x="1088" y="0" type="line"/>
      <point x="1217" y="0" type="line"/>
      <point x="1506" y="1456" type="line"/>
      <point x="1323" y="1456" type="line"/>
    </contour>
    <contour>
      <point x="869" y="1456" type="line"/>
      <point x="740" y="1456" type="line"/>
      <point x="809" y="1061" type="line"/>
      <point x="1052" y="0" type="line"/>
      <point x="1182" y="0" type="line"/>
      <point x="1095" y="440" type="line"/>
    </contour>
  </outline>
</glyph>
<glyph name="X" format="2">
  <advance width="1128"/>
  <unicode hex="0058"/>
  <anchor x="951" y="0" name="right"/>
  <anchor x="1108" y="1612" name="top0315"/>
  <anchor x="567" y="1612" name="top"/>
  <anchor x="560" y="10" name="bottom"/>
  <anchor x="566" y="742" name="cross"/>
  <anchor x="1108" y="1600" name="top_dd"/>
  <anchor x="1108" y="-407" name="bottom_dd"/>
  <outline>
    <contour>
      <point x="291" y="1456" type="line"/>
      <point x="77" y="1456" type="line"/>
      <point x="457" y="735" type="line"/>
      <point x="69" y="0" type="line"/>
      <point x="286" y="0" type="line"/>
      <point x="566" y="569" type="line"/>
      <point x="847" y="0" type="line"/>
      <point x="1063" y="0" type="line"/>
      <point x="676" y="735" type="line"/>
      <point x="1055" y="1456" type="line"/>
      <point x="841" y="1456" type="line"/>
      <point x="566" y="898" type="line"/>
    </contour>
  </outline>
</glyph>
<glyph name="bracketleft" format="2">
  <advance width="513"/>
  <unicode hex="005B"/>
  <outline>
    <contour>
      <point x="469" y="1664" type="line"/>
      <point x="138" y="1664" type="line"/>
      <point x="138" y="-312" type="line"/>
      <point x="469" y="-312" type="line"/>
      <point x="469" y="-160" type="line"/>
      <point x="314" y="-160" type="line"/>
      <point x="314" y="1512" type="line"/>
      <point x="469" y="1512" type="line"/>
    </contour>
  </outline>
</glyph>
<glyph name="bracketright" format="2">
  <advance width="513"/>
  <unicode hex="005D"/>
  <outline>
    <contour>
      <point x="31" y="1512" type="line"/>
      <point x="187" y="1512" type="line"/>
      <point x="187" y="-160" type="line"/>
      <point x="31" y="-160" type="line"/>
      <point x="31" y="-312" type="line"/>
      <point x="364" y="-312" type="line"/>
      <point x="364" y="1664" type="line"/>
      <point x="31" y="1664" type="line"/>
    </contour>
  </outline>
</glyph>
<glyph name="grave" format="2">
  <advance width="633"/>
  <unicode hex="0060"/>
  <anchor x="369" y="1290" name="_top"/>
  <anchor x="369" y="1641" name="mkmktop_acc"/>
  <outline>
    <contour>
      <point x="238" y="1536" type="line"/>
      <point x="14" y="1536" type="line"/>
      <point x="272" y="1242" type="line"/>
      <point x="431" y="1242" type="line"/>
    </contour>
  </outline>
</glyph>
<glyph name="a" format="2">
  <advance width="981"/>
  <unicode hex="0061"/>
  <anchor x="961" y="1290" name="top0315"/>
  <anchor x="759" y="654" name="rhotichook"/>
  <anchor x="510" y="1290" name="top"/>
  <anchor x="441" y="0" name="bottom"/>
  <anchor x="961" y="1600" name="top_dd"/>
  <anchor x="841" y="0" name="ogonek"/>
  <anchor x="961" y="-407" name="bottom_dd"/>
  <anchor x="608" y="1288" name="rhalfring"/>
  <outline>
    <contour>
      <point x="663" y="185" type="line"/>
      <point x="663" y="124"/>
      <point x="673" y="42"/>
      <point x="690" y="0" type="curve"/>
      <point x="873" y="0" type="line"/>
      <point x="873" y="16" type="line"/>
      <point x="851" y="74"/>
      <point x="839" y="164"/>
      <point x="839" y="236" type="curve" smooth="yes"/>
      <point x="839" y="770" type="line"/>
      <point x="839" y="1012"/>
      <point x="698" y="1102"/>
      <point x="499" y="1102" type="curve" smooth="yes"/>
      <point x="274" y="1102"/>
      <point x="133" y="937"/>
      <point x="133" y="782" type="curve"/>
      <point x="309" y="782" type="line"/>
      <point x="309" y="873"/>
      <point x="376" y="950"/>
      <point x="490" y="950" type="curve" smooth="yes"/>
      <point x="605" y="950"/>
      <point x="663" y="900"/>
      <point x="663" y="772" type="curve"/>
    </contour>
    <contour>
      <point x="691" y="656" type="line"/>
      <point x="541" y="656" type="line"/>
      <point x="257" y="656"/>
      <point x="114" y="503"/>
      <point x="114" y="295" type="curve" smooth="yes"/>
      <point x="114" y="89"/>
      <point x="238" y="-20"/>
      <point x="427" y="-20" type="curve" smooth="yes"/>
      <point x="597" y="-20"/>
      <point x="706" y="143"/>
      <point x="717" y="246" type="curve"/>
      <point x="678" y="329" type="line"/>
      <point x="682" y="253"/>
      <point x="587" y="141"/>
      <point x="454" y="141" type="curve" smooth="yes"/>
      <point x="343" y="141"/>
      <point x="292" y="187"/>
      <point x="292" y="317" type="curve" smooth="yes"/>
      <point x="292" y="451"/>
      <point x="401" y="526"/>
      <point x="571" y="526" type="curve"/>
      <point x="693" y="526" type="line"/>
    </contour>
  </outline>
</glyph>
<glyph name="b" format="2">
  <advance width="1011"/>
  <unicode hex="0062"/>
  <anchor x="562" y="1611" name="top"/>
  <anchor x="525" y="-10" name="bottom"/>
  <anchor x="991" y="1600" name="top_dd"/>
  <anchor x="991" y="-407" name="bottom_dd"/>
  <anchor x="991" y="1611" name="top0315"/>
  <outline>
    <contour>
      <point x="133" y="1536" type="line"/>
      <point x="133" y="0" type="line"/>
      <point x="294" y="0" type="line"/>
      <point x="310" y="210" type="line"/>
      <point x="310" y="1536" type="line"/>
    </contour>
    <contour>
      <point x="917" y="590" type="line"/>
      <point x="917" y="946"/>
      <point x="790" y="1102"/>
      <point x="559" y="1102" type="curve" smooth="yes"/>
      <point x="336" y="1102"/>
      <point x="240" y="914"/>
      <point x="216" y="607" type="curve"/>
      <point x="216" y="472" type="line"/>
      <point x="241" y="168"/>
      <point x="336" y="-20"/>
      <point x="561" y="-20" type="curve" smooth="yes"/>
      <point x="788" y="-20"/>
      <point x="917" y="147"/>
      <point x="917" y="489" type="curve" smooth="yes"/>
    </contour>
    <contour>
      <point x="740" y="489" type="line"/>
      <point x="740" y="248"/>
      <point x="677" y="137"/>
      <point x="515" y="137" type="curve" smooth="yes"/>
      <point x="368" y="137"/>
      <point x="300" y="267"/>
      <point x="274" y="397" type="curve"/>
      <point x="274" y="681" type="line"/>
      <point x="299" y="818"/>
      <point x="371" y="946"/>
      <point x="513" y="946" type="curve" smooth="yes"/>
      <point x="685" y="946"/>
      <point x="740" y="830"/>
      <point x="740" y="590" type="curve" smooth="yes"/>
    </contour>
  </outline>
</glyph>
<glyph name="c" format="2">
  <advance width="946"/>
  <unicode hex="0063"/>
  <anchor x="465" y="1290" name="marktop"/>
  <anchor x="926" y="1290" name="top0315"/>
  <anchor x="465" y="1290" name="top"/>
  <anchor x="465" y="-10" name="bottom"/>
  <anchor x="926" y="1600" name="top_dd"/>
  <anchor x="926" y="-407" name="bottom_dd"/>
  <outline>
    <contour>
      <point x="508" y="131" type="curve" smooth="yes"/>
      <point x="320" y="131"/>
      <point x="274" y="268"/>
      <point x="274" y="480" type="curve" smooth="yes"/>
      <point x="274" y="602" type="line" smooth="yes"/>
      <point x="274" y="812"/>
      <point x="322" y="950"/>
      <point x="508" y="950" type="curve"/>
      <point x="628" y="950"/>
      <point x="699" y="870"/>
      <point x="707" y="710" type="curve"/>
      <point x="875" y="710" type="line"/>
      <point x="866" y="957"/>
      <point x="728" y="1102"/>
      <point x="508" y="1102" type="curve" smooth="yes"/>
      <point x="228" y="1102"/>
      <point x="97" y="916"/>
      <point x="97" y="602" type="curve" smooth="yes"/>
      <point x="97" y="480" type="line" smooth="yes"/>
      <point x="97" y="166"/>
      <point x="227" y="-20"/>
      <point x="508" y="-20" type="curve"/>
      <point x="703" y="-20"/>
      <point x="866" y="125"/>
      <point x="875" y="342" type="curve"/>
      <point x="707" y="342" type="line"/>
      <point x="699" y="192"/>
      <point x="613" y="131"/>
    </contour>
  </outline>
</glyph>
<glyph name="d" format="2">
  <advance width="1016"/>
  <unicode hex="0064"/>
  <anchor x="996" y="1612" name="top0315"/>
  <anchor x="483" y="1612" name="top"/>
  <anchor x="541" y="0" name="bottom"/>
  <anchor x="763" y="1306" name="cross"/>
  <anchor x="959" y="1536" name="caron"/>
  <anchor x="996" y="1600" name="top_dd"/>
  <anchor x="996" y="-407" name="bottom_dd"/>
  <outline>
    <contour>
      <point x="699" y="210" type="line"/>
      <point x="715" y="0" type="line"/>
      <point x="877" y="0" type="line"/>
      <point x="877" y="1536" type="line"/>
      <point x="699" y="1536" type="line"/>
    </contour>
    <contour>
      <point x="95" y="489" type="line"/>
      <point x="95" y="147"/>
      <point x="243" y="-20"/>
      <point x="457" y="-20" type="curve" smooth="yes"/>
      <point x="680" y="-20"/>
      <point x="777" y="168"/>
      <point x="800" y="472" type="curve"/>
      <point x="800" y="607" type="line"/>
      <point x="778" y="914"/>
      <point x="680" y="1102"/>
      <point x="458" y="1102" type="curve" smooth="yes"/>
      <point x="241" y="1102"/>
      <point x="95" y="946"/>
      <point x="95" y="590" type="curve" smooth="yes"/>
    </contour>
    <contour>
      <point x="273" y="590" type="line"/>
      <point x="273" y="831"/>
      <point x="340" y="946"/>
      <point x="504" y="946" type="curve" smooth="yes"/>
      <point x="647" y="946"/>
      <point x="717" y="818"/>
      <point x="744" y="681" type="curve"/>
      <point x="744" y="397" type="line"/>
      <point x="709" y="258"/>
      <point x="649" y="137"/>
      <point x="503" y="137" type="curve" smooth="yes"/>
      <point x="340" y="137"/>
      <point x="273" y="248"/>
      <point x="273" y="489" type="curve" smooth="yes"/>
    </contour>
  </outline>
</glyph>
<glyph name="e" format="2">
  <advance width="960"/>
  <unicode hex="0065"/>
  <anchor x="941" y="1290" name="top0315"/>
  <anchor x="784" y="654" name="rhotichook"/>
  <anchor x="494" y="1290" name="top"/>
  <anchor x="498" y="0" name="bottom"/>
  <anchor x="941" y="1600" name="top_dd"/>
  <anchor x="699" y="26" name="ogonek"/>
  <anchor x="941" y="-407" name="bottom_dd"/>
  <outline>
    <contour>
      <point x="520" y="-20" type="curve"/>
      <point x="707" y="-20"/>
      <point x="812" y="60"/>
      <point x="870" y="143" type="curve"/>
      <point x="778" y="254" type="line"/>
      <point x="720" y="182"/>
      <point x="648" y="131"/>
      <point x="530" y="131" type="curve" smooth="yes"/>
      <point x="366" y="131"/>
      <point x="276" y="232"/>
      <point x="276" y="463" type="curve" smooth="yes"/>
      <point x="276" y="585" type="line" smooth="yes"/>
      <point x="276" y="875"/>
      <point x="369" y="950"/>
      <point x="499" y="950" type="curve"/>
      <point x="654" y="950"/>
      <point x="693" y="832"/>
      <point x="702" y="665" type="curve"/>
      <point x="702" y="640" type="line"/>
      <point x="203" y="640" type="line"/>
      <point x="203" y="489" type="line"/>
      <point x="879" y="489" type="line"/>
      <point x="879" y="592" type="line" smooth="yes"/>
      <point x="879" y="922"/>
      <point x="771" y="1102"/>
      <point x="499" y="1102" type="curve" smooth="yes"/>
      <point x="296" y="1102"/>
      <point x="99" y="966"/>
      <point x="99" y="585" type="curve" smooth="yes"/>
      <point x="99" y="463" type="line" smooth="yes"/>
      <point x="99" y="132"/>
      <point x="260" y="-20"/>
    </contour>
  </outline>
</glyph>
<glyph name="f" format="2">
  <advance width="649"/>
  <unicode hex="0066"/>
  <anchor x="439" y="1754" name="top"/>
  <anchor x="297" y="10" name="bottom"/>
  <anchor x="629" y="1600" name="top_dd"/>
  <anchor x="629" y="-407" name="bottom_dd"/>
  <anchor x="629" y="1754" name="top0315"/>
  <outline>
    <contour>
      <point x="388" y="0" type="line"/>
      <point x="388" y="1196" type="line"/>
      <point x="388" y="1327"/>
      <point x="443" y="1399"/>
      <point x="539" y="1399" type="curve" smooth="yes"/>
      <point x="565" y="1399"/>
      <point x="598" y="1396"/>
      <point x="620" y="1390" type="curve"/>
      <point x="629" y="1541" type="line"/>
      <point x="593" y="1551"/>
      <point x="557" y="1557"/>
      <point x="521" y="1557" type="curve" smooth="yes"/>
      <point x="328" y="1557"/>
      <point x="211" y="1429"/>
      <point x="211" y="1196" type="curve"/>
      <point x="211" y="0" type="line"/>
    </contour>
    <contour>
      <point x="572" y="1082" type="line"/>
      <point x="70" y="1082" type="line"/>
      <point x="70" y="940" type="line"/>
      <point x="572" y="940" type="line"/>
    </contour>
  </outline>
</glyph>
<glyph name="g" format="2">
  <advance width="1010"/>
  <unicode hex="0067"/>
  <anchor x="485" y="1290" name="top"/>
  <anchor x="485" y="-447" name="bottom"/>
  <anchor x="990" y="1600" name="top_dd"/>
  <anchor x="990" y="-407" name="bottom_dd"/>
  <anchor x="990" y="1290" name="top0315"/>
  <outline>
    <contour>
      <point x="719" y="1082" type="line"/>
      <point x="702" y="844" type="line"/>
      <point x="702" y="-18" type="line" smooth="yes"/>
      <point x="702" y="-207"/>
      <point x="612" y="-275"/>
      <point x="475" y="-275" type="curve" smooth="yes"/>
      <point x="399" y="-275"/>
      <point x="309" y="-244"/>
      <point x="232" y="-167" type="curve"/>
      <point x="159" y="-290" type="line"/>
      <point x="239" y="-383"/>
      <point x="406" y="-427"/>
      <point x="488" y="-427" type="curve" smooth="yes"/>
      <point x="718" y="-427"/>
      <point x="878" y="-296"/>
      <point x="878" y="-9" type="curve" smooth="yes"/>
      <point x="878" y="1082" type="line"/>
    </contour>
    <contour>
      <point x="98" y="489" type="line"/>
      <point x="98" y="147"/>
      <point x="239" y="-20"/>
      <point x="458" y="-20" type="curve" smooth="yes"/>
      <point x="682" y="-20"/>
      <point x="778" y="168"/>
      <point x="802" y="472" type="curve"/>
      <point x="802" y="607" type="line"/>
      <point x="779" y="914"/>
      <point x="682" y="1102"/>
      <point x="459" y="1102" type="curve" smooth="yes"/>
      <point x="236" y="1102"/>
      <point x="98" y="946"/>
      <point x="98" y="590" type="curve" smooth="yes"/>
    </contour>
    <contour>
      <point x="274" y="590" type="line"/>
      <point x="274" y="831"/>
      <point x="341" y="946"/>
      <point x="505" y="946" type="curve" smooth="yes"/>
      <point x="648" y="946"/>
      <point x="719" y="818"/>
      <point x="744" y="681" type="curve"/>
      <point x="744" y="397" type="line"/>
      <point x="710" y="258"/>
      <point x="651" y="137"/>
      <point x="503" y="137" type="curve" smooth="yes"/>
      <point x="341" y="137"/>
      <point x="274" y="248"/>
      <point x="274" y="489" type="curve" smooth="yes"/>
    </contour>
  </outline>
</glyph>
<glyph name="h" format="2">
  <advance width="989"/>
  <unicode hex="0068"/>
  <anchor x="859" y="0" name="right"/>
  <anchor x="969" y="1611" name="top0315"/>
  <anchor x="445" y="1611" name="top"/>
  <anchor x="516" y="10" name="bottom"/>
  <anchor x="253" y="1306" name="cross"/>
  <anchor x="969" y="1600" name="top_dd"/>
  <anchor x="969" y="-407" name="bottom_dd"/>
  <outline>
    <contour>
      <point x="310" y="1536" type="line"/>
      <point x="133" y="1536" type="line"/>
      <point x="133" y="0" type="line"/>
      <point x="310" y="0" type="line"/>
    </contour>
    <contour>
      <point x="267" y="582" type="line"/>
      <point x="267" y="777"/>
      <point x="372" y="946"/>
      <point x="513" y="946" type="curve" smooth="yes"/>
      <point x="625" y="946"/>
      <point x="682" y="880"/>
      <point x="682" y="711" type="curve" smooth="yes"/>
      <point x="682" y="0" type="line"/>
      <point x="859" y="0" type="line"/>
      <point x="859" y="709" type="line" smooth="yes"/>
      <point x="859" y="993"/>
      <point x="745" y="1102"/>
      <point x="567" y="1102" type="curve" smooth="yes"/>
      <point x="343" y="1102"/>
      <point x="194" y="882"/>
      <point x="195" y="585" type="curve"/>
    </contour>
  </outline>
</glyph>
<glyph name="i" format="2">
  <advance width="470"/>
  <unicode hex="0069"/>
  <anchor x="450" y="1600" name="top0315"/>
  <anchor x="263" y="654" name="rhotichook"/>
  <anchor x="236" y="1600" name="top"/>
  <anchor x="235" y="10" name="bottom"/>
  <anchor x="450" y="1600" name="top_dd"/>
  <anchor x="308" y="0" name="ogonek"/>
  <anchor x="450" y="-407" name="bottom_dd"/>
  <outline>
    <contour>
      <point x="324" y="1082" type="line"/>
      <point x="146" y="1082" type="line"/>
      <point x="146" y="0" type="line"/>
      <point x="324" y="0" type="line"/>
    </contour>
    <contour>
      <point x="137" y="1369" type="curve" smooth="yes"/>
      <point x="137" y="1311"/>
      <point x="170" y="1265"/>
      <point x="237" y="1265" type="curve"/>
      <point x="303" y="1265"/>
      <point x="338" y="1311"/>
      <point x="338" y="1369" type="curve"/>
      <point x="338" y="1429"/>
      <point x="303" y="1476"/>
      <point x="237" y="1476" type="curve"/>
      <point x="170" y="1476"/>
      <point x="137" y="1429"/>
    </contour>
  </outline>
</glyph>
<glyph name="j" format="2">
  <advance width="459"/>
  <unicode hex="006A"/>
  <anchor x="207" y="1600" name="top"/>
  <anchor x="180" y="-459" name="bottom"/>
  <anchor x="439" y="1600" name="top_dd"/>
  <anchor x="439" y="-407" name="bottom_dd"/>
  <anchor x="439" y="1600" name="top0315"/>
  <outline>
    <contour>
      <point x="136" y="1082" type="line"/>
      <point x="136" y="-129" type="line"/>
      <point x="136" y="-239"/>
      <point x="105" y="-280"/>
      <point x="47" y="-280" type="curve" smooth="yes"/>
      <point x="29" y="-280"/>
      <point x="-1" y="-277"/>
      <point x="-23" y="-271" type="curve"/>
      <point x="-23" y="-420" type="line"/>
      <point x="4" y="-430"/>
      <point x="48" y="-437"/>
      <point x="76" y="-437" type="curve" smooth="yes"/>
      <point x="237" y="-437"/>
      <point x="314" y="-328"/>
      <point x="314" y="-129" type="curve"/>
      <point x="314" y="1082" type="line"/>
    </contour>
    <contour>
      <point x="121" y="1369" type="curve" smooth="yes"/>
      <point x="121" y="1311"/>
      <point x="155" y="1265"/>
      <point x="221" y="1265" type="curve" smooth="yes"/>
      <point x="288" y="1265"/>
      <point x="322" y="1311"/>
      <point x="322" y="1369" type="curve" smooth="yes"/>
      <point x="322" y="1429"/>
      <point x="288" y="1476"/>
      <point x="221" y="1476" type="curve" smooth="yes"/>
      <point x="155" y="1476"/>
      <point x="121" y="1429"/>
    </contour>
  </outline>
</glyph>
<glyph name="k" format="2">
  <advance width="923"/>
  <unicode hex="006B"/>
  <anchor x="482" y="1611" name="marktop"/>
  <anchor x="794" y="1611" name="top0315"/>
  <anchor x="482" y="1611" name="top"/>
  <anchor x="466" y="71" name="bottom"/>
  <anchor x="215" y="1289" name="cross"/>
  <anchor x="903" y="1600" name="top_dd"/>
  <anchor x="903" y="-407" name="bottom_dd"/>
  <outline>
    <contour>
      <point x="311" y="1536" type="line"/>
      <point x="133" y="1536" type="line"/>
      <point x="133" y="0" type="line"/>
      <point x="311" y="0" type="line"/>
    </contour>
    <contour>
      <point x="860" y="1082" type="line"/>
      <point x="647" y="1082" type="line"/>
      <point x="390" y="726" type="line"/>
      <point x="226" y="500" type="line"/>
      <point x="237" y="303" type="line"/>
      <point x="475" y="577" type="line"/>
    </contour>
    <contour>
      <point x="698" y="0" type="line"/>
      <point x="905" y="0" type="line"/>
      <point x="485" y="681" type="line"/>
      <point x="394" y="516" type="line"/>
    </contour>
  </outline>
</glyph>
<glyph name="m" format="2">
  <advance width="1542"/>
  <unicode hex="006D"/>
  <anchor x="770" y="10" name="bottom"/>
  <anchor x="1522" y="1290" name="top0315"/>
  <anchor x="784" y="1290" name="top"/>
  <anchor x="784" y="1290" name="marktop"/>
  <anchor x="1522" y="1600" name="top_dd"/>
  <anchor x="1522" y="-407" name="bottom_dd"/>
  <outline>
    <contour>
      <point x="310" y="867" type="line"/>
      <point x="300" y="1082" type="line"/>
      <point x="133" y="1082" type="line"/>
      <point x="133" y="0" type="line"/>
      <point x="310" y="0" type="line"/>
    </contour>
    <contour>
      <point x="274" y="582" type="line"/>
      <point x="273" y="777"/>
      <point x="324" y="946"/>
      <point x="499" y="946" type="curve" smooth="yes"/>
      <point x="611" y="946"/>
      <point x="682" y="881"/>
      <point x="682" y="712" type="curve"/>
      <point x="682" y="0" type="line"/>
      <point x="859" y="0" type="line"/>
      <point x="859" y="721" type="line"/>
      <point x="859" y="992"/>
      <point x="731" y="1102"/>
      <point x="564" y="1102" type="curve" smooth="yes"/>
      <point x="313" y="1102"/>
      <point x="190" y="882"/>
      <point x="192" y="585" type="curve"/>
    </contour>
    <contour>
      <point x="857" y="684" type="line"/>
      <point x="856" y="825"/>
      <point x="925" y="946"/>
      <point x="1047" y="946" type="curve" smooth="yes"/>
      <point x="1161" y="946"/>
      <point x="1231" y="894"/>
      <point x="1231" y="713" type="curve" smooth="yes"/>
      <point x="1231" y="0" type="line"/>
      <point x="1408" y="0" type="line"/>
      <point x="1408" y="711" type="line" smooth="yes"/>
      <point x="1408" y="984"/>
      <point x="1298" y="1102"/>
      <point x="1101" y="1102" type="curve" smooth="yes"/>
      <point x="862" y="1102"/>
      <point x="737" y="883"/>
      <point x="739" y="646" type="curve"/>
    </contour>
  </outline>
</glyph>
<glyph name="n" format="2">
  <advance width="992"/>
  <unicode hex="006E"/>
  <anchor x="859" y="0" name="right"/>
  <anchor x="491" y="10" name="bottom"/>
  <anchor x="501" y="1290" name="top"/>
  <anchor x="972" y="1290" name="top0315"/>
  <anchor x="501" y="1290" name="marktop"/>
  <anchor x="-8" y="1539" name="caron"/>
  <anchor x="972" y="1600" name="top_dd"/>
  <anchor x="972" y="-407" name="bottom_dd"/>
  <outline>
    <contour>
      <point x="310" y="851" type="line"/>
      <point x="300" y="1082" type="line"/>
      <point x="133" y="1082" type="line"/>
      <point x="133" y="0" type="line"/>
      <point x="310" y="0" type="line"/>
    </contour>
    <contour>
      <point x="267" y="582" type="line"/>
      <point x="267" y="777"/>
      <point x="372" y="946"/>
      <point x="513" y="946" type="curve" smooth="yes"/>
      <point x="625" y="946"/>
      <point x="682" y="880"/>
      <point x="682" y="711" type="curve" smooth="yes"/>
      <point x="682" y="0" type="line"/>
      <point x="859" y="0" type="line"/>
      <point x="859" y="709" type="line" smooth="yes"/>
      <point x="859" y="993"/>
      <point x="745" y="1102"/>
      <point x="567" y="1102" type="curve" smooth="yes"/>
      <point x="343" y="1102"/>
      <point x="194" y="882"/>
      <point x="195" y="585" type="curve"/>
    </contour>
  </outline>
</glyph>
<glyph name="o" format="2">
  <advance width="1029"/>
  <unicode hex="006F"/>
  <anchor x="513" y="-1" name="bottom"/>
  <anchor x="853" y="654" name="rhotichook"/>
  <anchor x="504" y="1290" name="top"/>
  <anchor x="1008" y="1290" name="top0315"/>
  <anchor x="1008" y="1600" name="top_dd"/>
  <anchor x="1008" y="-407" name="bottom_dd"/>
  <outline>
    <contour>
      <point x="96" y="489" type="line"/>
      <point x="96" y="152"/>
      <point x="280" y="-20"/>
      <point x="515" y="-20" type="curve" smooth="yes"/>
      <point x="749" y="-20"/>
      <point x="932" y="152"/>
      <point x="932" y="489" type="curve"/>
      <point x="932" y="592" type="line"/>
      <point x="932" y="929"/>
      <point x="749" y="1102"/>
      <point x="513" y="1102" type="curve" smooth="yes"/>
      <point x="280" y="1102"/>
      <point x="96" y="929"/>
      <point x="96" y="592" type="curve"/>
    </contour>
    <contour>
      <point x="273" y="592" type="line"/>
      <point x="273" y="828"/>
      <point x="376" y="950"/>
      <point x="513" y="950" type="curve" smooth="yes"/>
      <point x="652" y="950"/>
      <point x="756" y="828"/>
      <point x="756" y="592" type="curve"/>
      <point x="756" y="489" type="line"/>
      <point x="756" y="251"/>
      <point x="676" y="131"/>
      <point x="515" y="131" type="curve" smooth="yes"/>
      <point x="376" y="131"/>
      <point x="273" y="251"/>
      <point x="273" y="489" type="curve"/>
    </contour>
  </outline>
</glyph>
<glyph name="p" format="2">
  <advance width="1011"/>
  <unicode hex="0070"/>
  <anchor x="556" y="1280" name="marktop"/>
  <anchor x="991" y="1280" name="top0315"/>
  <anchor x="556" y="1280" name="top"/>
  <anchor x="220" y="-407" name="bottom"/>
  <anchor x="991" y="1600" name="top_dd"/>
  <anchor x="991" y="-407" name="bottom_dd"/>
  <outline>
    <contour>
      <point x="310" y="874" type="line"/>
      <point x="294" y="1082" type="line"/>
      <point x="133" y="1082" type="line"/>
      <point x="133" y="-416" type="line"/>
      <point x="310" y="-416" type="line"/>
    </contour>
    <contour>
      <point x="915" y="590" type="line"/>
      <point x="915" y="946"/>
      <point x="789" y="1102"/>
      <point x="557" y="1102" type="curve" smooth="yes"/>
      <point x="333" y="1102"/>
      <point x="230" y="914"/>
      <point x="207" y="607" type="curve"/>
      <point x="207" y="453" type="line"/>
      <point x="231" y="161"/>
      <point x="334" y="-20"/>
      <point x="560" y="-20" type="curve" smooth="yes"/>
      <point x="787" y="-20"/>
      <point x="915" y="147"/>
      <point x="915" y="489" type="curve" smooth="yes"/>
    </contour>
    <contour>
      <point x="738" y="489" type="line"/>
      <point x="738" y="248"/>
      <point x="667" y="131"/>
      <point x="505" y="131" type="curve" smooth="yes"/>
      <point x="358" y="131"/>
      <point x="298" y="249"/>
      <point x="264" y="378" type="curve"/>
      <point x="264" y="681" type="line"/>
      <point x="289" y="818"/>
      <point x="361" y="946"/>
      <point x="503" y="946" type="curve" smooth="yes"/>
      <point x="667" y="946"/>
      <point x="738" y="831"/>
      <point x="738" y="590" type="curve" smooth="yes"/>
    </contour>
  </outline>
</glyph>
<glyph name="q" format="2">
  <advance width="1025"/>
  <unicode hex="0071"/>
  <anchor x="471" y="1290" name="marktop"/>
  <anchor x="1005" y="1290" name="top0315"/>
  <anchor x="471" y="1290" name="top"/>
  <anchor x="788" y="-407" name="bottom"/>
  <anchor x="1005" y="1600" name="top_dd"/>
  <anchor x="1005" y="-407" name="bottom_dd"/>
  <outline>
    <contour>
      <point x="698" y="-416" type="line"/>
      <point x="876" y="-416" type="line"/>
      <point x="876" y="1082" type="line"/>
      <point x="714" y="1082" type="line"/>
      <point x="698" y="874" type="line"/>
    </contour>
    <contour>
      <point x="95" y="489" type="line"/>
      <point x="95" y="147"/>
      <point x="233" y="-20"/>
      <point x="460" y="-20" type="curve" smooth="yes"/>
      <point x="684" y="-20"/>
      <point x="786" y="168"/>
      <point x="809" y="472" type="curve"/>
      <point x="809" y="607" type="line"/>
      <point x="786" y="914"/>
      <point x="685" y="1102"/>
      <point x="461" y="1102" type="curve" smooth="yes"/>
      <point x="231" y="1102"/>
      <point x="95" y="946"/>
      <point x="95" y="590" type="curve" smooth="yes"/>
    </contour>
    <contour>
      <point x="273" y="590" type="line"/>
      <point x="273" y="831"/>
      <point x="343" y="950"/>
      <point x="507" y="950" type="curve" smooth="yes"/>
      <point x="650" y="950"/>
      <point x="727" y="817"/>
      <point x="753" y="681" type="curve"/>
      <point x="753" y="397" type="line"/>
      <point x="718" y="256"/>
      <point x="653" y="131"/>
      <point x="506" y="131" type="curve" smooth="yes"/>
      <point x="343" y="131"/>
      <point x="273" y="248"/>
      <point x="273" y="489" type="curve" smooth="yes"/>
    </contour>
  </outline>
</glyph>
<glyph name="r" format="2">
  <advance width="624"/>
  <unicode hex="0072"/>
  <anchor x="362" y="1290" name="top"/>
  <anchor x="234" y="11" name="bottom"/>
  <anchor x="604" y="1600" name="top_dd"/>
  <anchor x="604" y="-407" name="bottom_dd"/>
  <anchor x="604" y="1290" name="top0315"/>
  <outline>
    <contour>
      <point x="310" y="912" type="line"/>
      <point x="305" y="1082" type="line"/>
      <point x="133" y="1082" type="line"/>
      <point x="133" y="0" type="line"/>
      <point x="310" y="0" type="line"/>
    </contour>
    <contour>
      <point x="579" y="1088" type="line"/>
      <point x="569" y="1094"/>
      <point x="530" y="1102"/>
      <point x="509" y="1102" type="curve"/>
      <point x="319" y="1102"/>
      <point x="237" y="884"/>
      <point x="237" y="624" type="curve"/>
      <point x="284" y="654" type="line"/>
      <point x="300" y="811"/>
      <point x="367" y="924"/>
      <point x="500" y="924" type="curve"/>
      <point x="531" y="924"/>
      <point x="552" y="922"/>
      <point x="579" y="916" type="curve"/>
    </contour>
  </outline>
</glyph>
<glyph name="s" format="2">
  <advance width="934"/>
  <unicode hex="0073"/>
  <anchor x="500" y="1290" name="top"/>
  <anchor x="500" y="-10" name="bottom"/>
  <anchor x="914" y="1600" name="top_dd"/>
  <anchor x="914" y="-407" name="bottom_dd"/>
  <anchor x="914" y="1290" name="top0315"/>
  <outline>
    <contour>
      <point x="658" y="277" type="curve" smooth="yes"/>
      <point x="658" y="188"/>
      <point x="595" y="132"/>
      <point x="479" y="132" type="curve" smooth="yes"/>
      <point x="388" y="132"/>
      <point x="284" y="171"/>
      <point x="277" y="324" type="curve"/>
      <point x="100" y="324" type="line"/>
      <point x="100" y="145"/>
      <point x="232" y="-20"/>
      <point x="479" y="-20" type="curve" smooth="yes"/>
      <point x="693" y="-20"/>
      <point x="835" y="101"/>
      <point x="835" y="291" type="curve"/>
      <point x="835" y="465"/>
      <point x="717" y="541"/>
      <point x="497" y="627" type="curve" smooth="yes"/>
      <point x="346" y="694"/>
      <point x="308" y="722"/>
      <point x="308" y="801" type="curve"/>
      <point x="308" y="880"/>
      <point x="355" y="950"/>
      <point x="474" y="950" type="curve" smooth="yes"/>
      <point x="586" y="950"/>
      <point x="648" y="863"/>
      <point x="648" y="774" type="curve"/>
      <point x="825" y="774" type="line"/>
      <point x="825" y="960"/>
      <point x="694" y="1102"/>
      <point x="474" y="1102" type="curve" smooth="yes"/>
      <point x="267" y="1102"/>
      <point x="132" y="967"/>
      <point x="132" y="795" type="curve"/>
      <point x="132" y="621"/>
      <point x="249" y="554"/>
      <point x="450" y="471" type="curve" smooth="yes"/>
      <point x="604" y="404"/>
      <point x="658" y="359"/>
    </contour>
  </outline>
</glyph>
<glyph name="t" format="2">
  <advance width="606"/>
  <unicode hex="0074"/>
  <anchor x="508" y="1358" name="marktop"/>
  <anchor x="586" y="1481" name="top0315"/>
  <anchor x="289" y="1481" name="top"/>
  <anchor x="407" y="0" name="bottom"/>
  <anchor x="269" y="675" name="cross"/>
  <anchor x="482" y="1656" name="caron"/>
  <anchor x="586" y="1600" name="top_dd"/>
  <anchor x="586" y="-407" name="bottom_dd"/>
  <outline>
    <contour>
      <point x="528" y="1082" type="line"/>
      <point x="23" y="1082" type="line"/>
      <point x="23" y="940" type="line"/>
      <point x="528" y="940" type="line"/>
    </contour>
    <contour>
      <point x="189" y="1345" type="line"/>
      <point x="189" y="269" type="line"/>
      <point x="189" y="52"/>
      <point x="288" y="-20"/>
      <point x="403" y="-20" type="curve" smooth="yes"/>
      <point x="464" y="-20"/>
      <point x="503" y="-9"/>
      <point x="527" y="0" type="curve"/>
      <point x="528" y="151" type="line"/>
      <point x="517" y="147"/>
      <point x="482" y="139"/>
      <point x="458" y="139" type="curve" smooth="yes"/>
      <point x="410" y="139"/>
      <point x="365" y="157"/>
      <point x="365" y="268" type="curve"/>
      <point x="365" y="1345" type="line"/>
    </contour>
  </outline>
</glyph>
<glyph name="u" format="2">
  <advance width="990"/>
  <unicode hex="0075"/>
  <anchor x="493" y="0" name="bottom"/>
  <anchor x="792" y="654" name="rhotichook"/>
  <anchor x="494" y="1290" name="top"/>
  <anchor x="970" y="1290" name="top0315"/>
  <anchor x="447" y="0" name="bottomu"/>
  <anchor x="970" y="1600" name="top_dd"/>
  <anchor x="847" y="0" name="ogonek"/>
  <anchor x="970" y="-407" name="bottom_dd"/>
  <outline>
    <contour>
      <point x="679" y="250" type="line"/>
      <point x="688" y="0" type="line"/>
      <point x="857" y="0" type="line"/>
      <point x="857" y="1082" type="line"/>
      <point x="679" y="1082" type="line"/>
    </contour>
    <contour>
      <point x="713" y="478" type="line"/>
      <point x="713" y="288"/>
      <point x="646" y="137"/>
      <point x="457" y="137" type="curve" smooth="yes"/>
      <point x="384" y="137"/>
      <point x="306" y="187"/>
      <point x="306" y="382" type="curve"/>
      <point x="306" y="1082" type="line"/>
      <point x="130" y="1082" type="line"/>
      <point x="130" y="384" type="line"/>
      <point x="130" y="96"/>
      <point x="250" y="-20"/>
      <point x="428" y="-20" type="curve" smooth="yes"/>
      <point x="690" y="-20"/>
      <point x="783" y="192"/>
      <point x="783" y="480" type="curve"/>
    </contour>
  </outline>
</glyph>
<glyph name="v" format="2">
  <advance width="876"/>
  <unicode hex="0076"/>
  <anchor x="446" y="1280" name="top"/>
  <anchor x="446" y="10" name="bottom"/>
  <anchor x="856" y="1600" name="top_dd"/>
  <anchor x="856" y="-407" name="bottom_dd"/>
  <anchor x="856" y="1280" name="top0315"/>
  <outline>
    <contour>
      <point x="413" y="167" type="line"/>
      <point x="388" y="0" type="line"/>
      <point x="503" y="0" type="line"/>
      <point x="825" y="1082" type="line"/>
      <point x="645" y="1082" type="line"/>
    </contour>
    <contour>
      <point x="227" y="1082" type="line"/>
      <point x="46" y="1082" type="line"/>
      <point x="371" y="0" type="line"/>
      <point x="487" y="0" type="line"/>
      <point x="468" y="162" type="line"/>
    </contour>
  </outline>
</glyph>
<glyph name="w" format="2">
  <advance width="1331"/>
  <unicode hex="0077"/>
  <anchor x="660" y="1290" name="marktop"/>
  <anchor x="1311" y="1290" name="top0315"/>
  <anchor x="660" y="1290" name="top"/>
  <anchor x="663" y="10" name="bottom"/>
  <anchor x="1311" y="1600" name="top_dd"/>
  <anchor x="1311" y="-407" name="bottom_dd"/>
  <outline>
    <contour>
      <point x="355" y="192" type="line"/>
      <point x="345" y="0" type="line"/>
      <point x="456" y="0" type="line"/>
      <point x="697" y="905" type="line"/>
      <point x="709" y="1082" type="line"/>
      <point x="594" y="1082" type="line"/>
    </contour>
    <contour>
      <point x="225" y="1082" type="line"/>
      <point x="50" y="1082" type="line"/>
      <point x="313" y="0" type="line"/>
      <point x="431" y="0" type="line"/>
      <point x="426" y="182" type="line"/>
    </contour>
    <contour>
      <point x="913" y="189" type="line"/>
      <point x="898" y="0" type="line"/>
      <point x="1014" y="0" type="line"/>
      <point x="1278" y="1082" type="line"/>
      <point x="1104" y="1082" type="line"/>
    </contour>
    <contour>
      <point x="734" y="1082" type="line"/>
      <point x="612" y="1082" type="line"/>
      <point x="625" y="907" type="line"/>
      <point x="873" y="0" type="line"/>
      <point x="983" y="0" type="line"/>
      <point x="968" y="207" type="line"/>
    </contour>
  </outline>
</glyph>
<glyph name="x" format="2">
  <advance width="900"/>
  <unicode hex="0078"/>
  <anchor x="746" y="0" name="right"/>
  <anchor x="880" y="1280" name="top0315"/>
  <anchor x="447" y="1280" name="top"/>
  <anchor x="449" y="10" name="bottom"/>
  <anchor x="447" y="553" name="cross"/>
  <anchor x="880" y="1600" name="top_dd"/>
  <anchor x="880" y="-407" name="bottom_dd"/>
  <outline>
    <contour>
      <point x="263" y="1082" type="line"/>
      <point x="61" y="1082" type="line"/>
      <point x="353" y="548" type="line"/>
      <point x="53" y="0" type="line"/>
      <point x="257" y="0" type="line"/>
      <point x="449" y="406" type="line"/>
      <point x="640" y="0" type="line"/>
      <point x="843" y="0" type="line"/>
      <point x="542" y="548" type="line"/>
      <point x="836" y="1082" type="line"/>
      <point x="630" y="1082" type="line"/>
      <point x="445" y="688" type="line"/>
    </contour>
  </outline>
</glyph>
<glyph name="y" format="2">
  <advance width="853"/>
  <unicode hex="0079"/>
  <anchor x="445" y="1290" name="marktop"/>
  <anchor x="638" y="654" name="rhotichook"/>
  <anchor x="833" y="1290" name="top0315"/>
  <anchor x="445" y="1290" name="top"/>
  <anchor x="617" y="-158" name="bottom"/>
  <anchor x="833" y="1600" name="top_dd"/>
  <anchor x="833" y="-407" name="bottom_dd"/>
  <outline>
    <contour>
      <point x="383" y="112" type="line"/>
      <point x="323" y="-98" type="line" smooth="yes"/>
      <point x="285" y="-232"/>
      <point x="231" y="-275"/>
      <point x="127" y="-275" type="curve" smooth="yes"/>
      <point x="120" y="-275"/>
      <point x="96" y="-273"/>
      <point x="88" y="-271" type="curve"/>
      <point x="89" y="-421" type="line"/>
      <point x="106" y="-427"/>
      <point x="154" y="-437"/>
      <point x="181" y="-437" type="curve" smooth="yes"/>
      <point x="345" y="-437"/>
      <point x="422" y="-274"/>
      <point x="456" y="-167" type="curve" smooth="yes"/>
      <point x="813" y="1082" type="line"/>
      <point x="625" y="1082" type="line"/>
    </contour>
    <contour>
      <point x="228" y="1082" type="line"/>
      <point x="35" y="1082" type="line"/>
      <point x="362" y="-21" type="line"/>
      <point x="489" y="47" type="line"/>
      <point x="443" y="242" type="line"/>
    </contour>
  </outline>
</glyph>
<glyph name="z" format="2">
  <advance width="900"/>
  <unicode hex="007A"/>
  <anchor x="453" y="1290" name="top"/>
  <anchor x="460" y="10" name="bottom"/>
  <anchor x="880" y="1600" name="top_dd"/>
  <anchor x="880" y="-407" name="bottom_dd"/>
  <anchor x="880" y="1290" name="top0315"/>
  <outline>
    <contour>
      <point x="818" y="152" type="line"/>
      <point x="164" y="152" type="line"/>
      <point x="164" y="0" type="line"/>
      <point x="818" y="0" type="line"/>
    </contour>
    <contour>
      <point x="799" y="951" type="line"/>
      <point x="799" y="1082" type="line"/>
      <point x="686" y="1082" type="line"/>
      <point x="95" y="136" type="line"/>
      <point x="95" y="0" type="line"/>
      <point x="203" y="0" type="line"/>
    </contour>
    <contour>
      <point x="721" y="1082" type="line"/>
      <point x="98" y="1082" type="line"/>
      <point x="98" y="929" type="line"/>
      <point x="721" y="929" type="line"/>
    </contour>
  </outline>
</glyph>
<glyph name="braceright" format="2">
  <advance width="627"/>
  <unicode hex="007D"/>
  <outline>
    <contour>
      <point x="39" y="1483" type="line"/>
      <point x="167" y="1433"/>
      <point x="204" y="1296"/>
      <point x="204" y="1132" type="curve" smooth="yes"/>
      <point x="204" y="925" type="line" smooth="yes"/>
      <point x="204" y="724"/>
      <point x="306" y="575"/>
      <point x="553" y="575" type="curve"/>
      <point x="553" y="688" type="line"/>
      <point x="431" y="688"/>
      <point x="381" y="780"/>
      <point x="381" y="925" type="curve" smooth="yes"/>
      <point x="381" y="1132" type="line" smooth="yes"/>
      <point x="381" y="1342"/>
      <point x="310" y="1520"/>
      <point x="76" y="1597" type="curve"/>
    </contour>
    <contour>
      <point x="76" y="-366" type="line"/>
      <point x="310" y="-289"/>
      <point x="381" y="-111"/>
      <point x="381" y="99" type="curve" smooth="yes"/>
      <point x="381" y="305" type="line" smooth="yes"/>
      <point x="381" y="450"/>
      <point x="431" y="543"/>
      <point x="553" y="543" type="curve"/>
      <point x="553" y="655" type="line"/>
      <point x="306" y="655"/>
      <point x="204" y="507"/>
      <point x="204" y="305" type="curve" smooth="yes"/>
      <point x="204" y="99" type="line" smooth="yes"/>
      <point x="204" y="-65"/>
      <point x="167" y="-201"/>
      <point x="40" y="-251" type="curve"/>
    </contour>
  </outline>
</glyph>
<glyph name="asciitilde" format="2">
  <advance width="1207"/>
  <unicode hex="007E"/>
  <outline>
    <contour>
      <point x="941" y="777" type="line"/>
      <point x="941" y="652"/>
      <point x="883" y="565"/>
      <point x="803" y="565" type="curve" smooth="yes"/>
      <point x="752" y="565"/>
      <point x="712" y="597"/>
      <point x="656" y="664" type="curve" smooth="yes"/>
      <point x="574" y="751"/>
      <point x="503" y="803"/>
      <point x="406" y="803" type="curve" smooth="yes"/>
      <point x="245" y="803"/>
      <point x="125" y="645"/>
      <point x="125" y="436" type="curve"/>
      <point x="278" y="438" type="line"/>
      <point x="278" y="563"/>
      <point x="325" y="640"/>
      <point x="406" y="640" type="curve" smooth="yes"/>
      <point x="456" y="640"/>
      <point x="500" y="604"/>
      <point x="552" y="541" type="curve" smooth="yes"/>
      <point x="639" y="450"/>
      <point x="706" y="403"/>
      <point x="803" y="403" type="curve" smooth="yes"/>
      <point x="964" y="403"/>
      <point x="1084" y="572"/>
      <point x="1084" y="778" type="curve"/>
    </contour>
  </outline>
</glyph>
<glyph name="exclamdown" format="2">
  <advance width="475"/>
  <unicode hex="00A1"/>
  <outline>
    <contour>
      <point x="148" y="-361" type="line"/>
      <point x="335" y="-361" type="line"/>
      <point x="321" y="684" type="line"/>
      <point x="162" y="684" type="line"/>
    </contour>
    <contour>
      <point x="338" y="996" type="curve" smooth="yes"/>
      <point x="338" y="1055"/>
      <point x="304" y="1101"/>
      <point x="237" y="1101" type="curve" smooth="yes"/>
      <point x="171" y="1101"/>
      <point x="136" y="1055"/>
      <point x="136" y="996" type="curve" smooth="yes"/>
      <point x="136" y="937"/>
      <point x="171" y="890"/>
      <point x="237" y="890" type="curve" smooth="yes"/>
      <point x="304" y="890"/>
      <point x="338" y="937"/>
    </contour>
  </outline>
</glyph>
<glyph name="cent" format="2">
  <advance width="983"/>
  <unicode hex="00A2"/>
  <outline>
    <contour>
      <point x="593" y="1318" type="line"/>
      <point x="416" y="1318" type="line"/>
      <point x="416" y="1030" type="line"/>
      <point x="593" y="1030" type="line"/>
    </contour>
    <contour>
      <point x="593" y="42" type="line"/>
      <point x="416" y="42" type="line"/>
      <point x="416" y="-245" type="line"/>
      <point x="593" y="-245" type="line"/>
    </contour>
    <component base="c" xOffset="4"/>
  </outline>
</glyph>
<glyph name="sterling" format="2">
  <advance width="1047"/>
  <unicode hex="00A3"/>
  <outline>
    <contour>
      <point x="978" y="0" type="line"/>
      <point x="978" y="157" type="line"/>
      <point x="99" y="157" type="line"/>
      <point x="99" y="0" type="line"/>
    </contour>
    <contour>
      <point x="667" y="623" type="line"/>
      <point x="667" y="780" type="line"/>
      <point x="96" y="780" type="line"/>
      <point x="96" y="623" type="line"/>
    </contour>
    <contour>
      <point x="399" y="1039" type="line"/>
      <point x="399" y="1219"/>
      <point x="484" y="1319"/>
      <point x="585" y="1319" type="curve" smooth="yes"/>
      <point x="681" y="1319"/>
      <point x="771" y="1254"/>
      <point x="771" y="1087" type="curve"/>
      <point x="954" y="1087" type="line"/>
      <point x="954" y="1319"/>
      <point x="824" y="1476"/>
      <point x="601" y="1476" type="curve" smooth="yes"/>
      <point x="382" y="1476"/>
      <point x="216" y="1315"/>
      <point x="216" y="1039" type="curve" smooth="yes"/>
      <point x="234" y="401" type="line" smooth="yes"/>
      <point x="234" y="313"/>
      <point x="215" y="174"/>
      <point x="157" y="157" type="curve"/>
      <point x="321" y="104" type="line"/>
      <point x="386" y="159"/>
      <point x="418" y="277"/>
      <point x="418" y="402" type="curve" smooth="yes"/>
    </contour>
  </outline>
</glyph>
<glyph name="currency" format="2">
  <advance width="1461"/>
  <unicode hex="00A4"/>
  <outline>
    <contour>
      <point x="312" y="608" type="curve"/>
      <point x="312" y="860"/>
      <point x="501" y="1062"/>
      <point x="735" y="1062" type="curve" smooth="yes"/>
      <point x="969" y="1062"/>
      <point x="1157" y="860"/>
      <point x="1157" y="608" type="curve" smooth="yes"/>
      <point x="1157" y="356"/>
      <point x="969" y="152"/>
      <point x="735" y="152" type="curve" smooth="yes"/>
      <point x="501" y="152"/>
      <point x="312" y="356"/>
    </contour>
    <contour>
      <point x="140" y="608" type="curve"/>
      <point x="140" y="254"/>
      <point x="407" y="-20"/>
      <point x="735" y="-20" type="curve" smooth="yes"/>
      <point x="1064" y="-20"/>
      <point x="1330" y="254"/>
      <point x="1330" y="608" type="curve" smooth="yes"/>
      <point x="1330" y="963"/>
      <point x="1064" y="1234"/>
      <point x="735" y="1234" type="curve" smooth="yes"/>
      <point x="407" y="1234"/>
      <point x="140" y="963"/>
    </contour>
    <contour>
      <point x="1371" y="1128" type="line"/>
      <point x="1239" y="1265" type="line"/>
      <point x="1037" y="1059" type="line"/>
      <point x="1169" y="922" type="line"/>
    </contour>
    <contour>
      <point x="438" y="180" type="line"/>
      <point x="307" y="315" type="line"/>
      <point x="105" y="110" type="line"/>
      <point x="236" y="-26" type="line"/>
    </contour>
    <contour>
      <point x="1239" y="-27" type="line"/>
      <point x="1371" y="110" type="line"/>
      <point x="1169" y="315" type="line"/>
      <point x="1037" y="179" type="line"/>
    </contour>
    <contour>
      <point x="307" y="922" type="line"/>
      <point x="438" y="1058" type="line"/>
      <point x="236" y="1264" type="line"/>
      <point x="105" y="1128" type="line"/>
    </contour>
  </outline>
</glyph>
<glyph name="section" format="2">
  <advance width="1100"/>
  <unicode hex="00A7"/>
  <outline>
    <contour>
      <point x="609" y="108" type="line"/>
      <point x="840" y="108"/>
      <point x="990" y="228"/>
      <point x="990" y="431" type="curve"/>
      <point x="990" y="680"/>
      <point x="848" y="772"/>
      <point x="597" y="855" type="curve" smooth="yes"/>
      <point x="368" y="933"/>
      <point x="312" y="979"/>
      <point x="312" y="1113" type="curve"/>
      <point x="312" y="1229"/>
      <point x="386" y="1325"/>
      <point x="552" y="1325" type="curve" smooth="yes"/>
      <point x="709" y="1325"/>
      <point x="794" y="1200"/>
      <point x="794" y="1046" type="curve"/>
      <point x="970" y="1046" type="line"/>
      <point x="970" y="1324"/>
      <point x="812" y="1477"/>
      <point x="552" y="1477" type="curve" smooth="yes"/>
      <point x="298" y="1477"/>
      <point x="135" y="1332"/>
      <point x="135" y="1111" type="curve"/>
      <point x="135" y="862"/>
      <point x="281" y="770"/>
      <point x="529" y="691" type="curve" smooth="yes"/>
      <point x="746" y="609"/>
      <point x="814" y="553"/>
      <point x="814" y="428" type="curve"/>
      <point x="814" y="311"/>
      <point x="738" y="226"/>
      <point x="609" y="226" type="curve"/>
    </contour>
    <contour>
      <point x="463" y="874" type="line"/>
      <point x="240" y="874"/>
      <point x="98" y="747"/>
      <point x="98" y="551" type="curve" smooth="yes"/>
      <point x="98" y="302"/>
      <point x="242" y="205"/>
      <point x="487" y="126" type="curve"/>
      <point x="707" y="45"/>
      <point x="776" y="-7"/>
      <point x="776" y="-131" type="curve" smooth="yes"/>
      <point x="776" y="-251"/>
      <point x="689" y="-343"/>
      <point x="537" y="-343" type="curve" smooth="yes"/>
      <point x="411" y="-343"/>
      <point x="269" y="-274"/>
      <point x="269" y="-62" type="curve"/>
      <point x="93" y="-64" type="line"/>
      <point x="93" y="-388"/>
      <point x="318" y="-495"/>
      <point x="537" y="-495" type="curve" smooth="yes"/>
      <point x="788" y="-495"/>
      <point x="952" y="-361"/>
      <point x="952" y="-129" type="curve" smooth="yes"/>
      <point x="952" y="120"/>
      <point x="809" y="207"/>
      <point x="557" y="290" type="curve" smooth="yes"/>
      <point x="329" y="369"/>
      <point x="274" y="419"/>
      <point x="274" y="553" type="curve" smooth="yes"/>
      <point x="274" y="668"/>
      <point x="333" y="753"/>
      <point x="463" y="753" type="curve"/>
    </contour>
  </outline>
</glyph>
<glyph name="dieresis" format="2">
  <advance width="857"/>
  <unicode hex="00A8"/>
  <anchor x="423" y="1290" name="_top"/>
  <anchor x="423" y="1577" name="mkmktop_acc"/>
  <outline>
    <contour>
      <point x="53" y="1371" type="curve" smooth="yes"/>
      <point x="53" y="1313"/>
      <point x="90" y="1267"/>
      <point x="162" y="1267" type="curve" smooth="yes"/>
      <point x="233" y="1267"/>
      <point x="272" y="1313"/>
      <point x="272" y="1371" type="curve" smooth="yes"/>
      <point x="272" y="1431"/>
      <point x="233" y="1478"/>
      <point x="162" y="1478" type="curve" smooth="yes"/>
      <point x="90" y="1478"/>
      <point x="53" y="1431"/>
    </contour>
    <contour>
      <point x="483" y="1369" type="curve" smooth="yes"/>
      <point x="483" y="1311"/>
      <point x="521" y="1265"/>
      <point x="592" y="1265" type="curve" smooth="yes"/>
      <point x="664" y="1265"/>
      <point x="702" y="1311"/>
      <point x="702" y="1369" type="curve" smooth="yes"/>
      <point x="702" y="1429"/>
      <point x="664" y="1476"/>
      <point x="592" y="1476" type="curve" smooth="yes"/>
      <point x="521" y="1476"/>
      <point x="483" y="1429"/>
    </contour>
  </outline>
</glyph>
<glyph name="copyright" format="2">
  <advance width="1609"/>
  <unicode hex="00A9"/>
  <outline>
    <contour>
      <point x="974" y="598" type="line"/>
      <point x="974" y="464"/>
      <point x="910" y="412"/>
      <point x="788" y="412" type="curve" smooth="yes"/>
      <point x="656" y="412"/>
      <point x="586" y="519"/>
      <point x="586" y="671" type="curve" smooth="yes"/>
      <point x="586" y="787" type="line" smooth="yes"/>
      <point x="586" y="937"/>
      <point x="656" y="1045"/>
      <point x="788" y="1045" type="curve" smooth="yes"/>
      <point x="910" y="1045"/>
      <point x="975" y="992"/>
      <point x="975" y="860" type="curve"/>
      <point x="1121" y="860" type="line"/>
      <point x="1121" y="1069"/>
      <point x="992" y="1173"/>
      <point x="788" y="1173" type="curve" smooth="yes"/>
      <point x="576" y="1173"/>
      <point x="442" y="1015"/>
      <point x="442" y="786" type="curve"/>
      <point x="442" y="671" type="line"/>
      <point x="442" y="441"/>
      <point x="576" y="284"/>
      <point x="788" y="284" type="curve" smooth="yes"/>
      <point x="992" y="284"/>
      <point x="1120" y="388"/>
      <point x="1120" y="598" type="curve"/>
    </contour>
    <contour>
      <point x="207" y="729" type="curve"/>
      <point x="207" y="1085"/>
      <point x="473" y="1357"/>
      <point x="802" y="1357" type="curve" smooth="yes"/>
      <point x="1129" y="1357"/>
      <point x="1395" y="1085"/>
      <point x="1395" y="729" type="curve" smooth="yes"/>
      <point x="1395" y="373"/>
      <point x="1129" y="98"/>
      <point x="802" y="98" type="curve" smooth="yes"/>
      <point x="473" y="98"/>
      <point x="207" y="373"/>
    </contour>
    <contour>
      <point x="92" y="729" type="curve"/>
      <point x="92" y="306"/>
      <point x="410" y="-21"/>
      <point x="802" y="-21" type="curve" smooth="yes"/>
      <point x="1193" y="-21"/>
      <point x="1511" y="306"/>
      <point x="1511" y="729" type="curve" smooth="yes"/>
      <point x="1511" y="1152"/>
      <point x="1193" y="1476"/>
      <point x="802" y="1476" type="curve" smooth="yes"/>
      <point x="410" y="1476"/>
      <point x="92" y="1152"/>
    </contour>
  </outline>
</glyph>
<glyph name="ordfeminine" format="2">
  <advance width="812"/>
  <unicode hex="00AA"/>
  <outline>
    <contour>
      <point x="510" y="862" type="line"/>
      <point x="510" y="807"/>
      <point x="518" y="753"/>
      <point x="530" y="706" type="curve"/>
      <point x="686" y="706" type="line"/>
      <point x="670" y="764"/>
      <point x="664" y="822"/>
      <point x="664" y="887" type="curve" smooth="yes"/>
      <point x="664" y="1201" type="line"/>
      <point x="664" y="1384"/>
      <point x="566" y="1477"/>
      <point x="418" y="1477" type="curve" smooth="yes"/>
      <point x="259" y="1477"/>
      <point x="155" y="1379"/>
      <point x="155" y="1244" type="curve"/>
      <point x="308" y="1231" type="line"/>
      <point x="308" y="1300"/>
      <point x="349" y="1336"/>
      <point x="418" y="1336" type="curve" smooth="yes"/>
      <point x="480" y="1336"/>
      <point x="510" y="1288"/>
      <point x="510" y="1202" type="curve"/>
    </contour>
    <contour>
      <point x="547" y="1149" type="line"/>
      <point x="428" y="1149" type="line"/>
      <point x="233" y="1149"/>
      <point x="140" y="1065"/>
      <point x="140" y="918" type="curve" smooth="yes"/>
      <point x="140" y="781"/>
      <point x="215" y="692"/>
      <point x="349" y="692" type="curve" smooth="yes"/>
      <point x="464" y="692"/>
      <point x="526" y="772"/>
      <point x="551" y="837" type="curve"/>
      <point x="537" y="949" type="line"/>
      <point x="537" y="898"/>
      <point x="455" y="829"/>
      <point x="388" y="829" type="curve" smooth="yes"/>
      <point x="325" y="829"/>
      <point x="294" y="864"/>
      <point x="294" y="922" type="curve" smooth="yes"/>
      <point x="294" y="985"/>
      <point x="335" y="1038"/>
      <point x="429" y="1038" type="curve"/>
      <point x="548" y="1038" type="line"/>
    </contour>
  </outline>
</glyph>
<glyph name="registered" format="2">
  <advance width="1610"/>
  <unicode hex="00AE"/>
  <outline>
    <contour>
      <point x="827" y="655" type="line"/>
      <point x="866" y="655"/>
      <point x="847" y="655"/>
      <point x="882" y="676" type="curve" smooth="yes"/>
      <point x="886" y="676"/>
      <point x="891" y="689"/>
      <point x="895" y="689" type="curve" smooth="yes"/>
      <point x="1033" y="727"/>
      <point x="1110" y="801"/>
      <point x="1110" y="910" type="curve"/>
      <point x="1110" y="1081"/>
      <point x="986" y="1165"/>
      <point x="789" y="1165" type="curve"/>
      <point x="512" y="1165" type="line"/>
      <point x="512" y="317" type="line"/>
      <point x="653" y="317" type="line"/>
      <point x="653" y="1038" type="line"/>
      <point x="789" y="1038" type="line"/>
      <point x="924" y="1038"/>
      <point x="970" y="1003"/>
      <point x="970" y="904" type="curve"/>
      <point x="970" y="826"/>
      <point x="894" y="785"/>
      <point x="810" y="783" type="curve"/>
      <point x="607" y="783" type="line"/>
      <point x="609" y="655" type="line"/>
    </contour>
    <contour>
      <point x="817" y="655" type="line"/>
      <point x="924" y="655"/>
      <point x="964" y="610"/>
      <point x="964" y="513" type="curve"/>
      <point x="964" y="461" type="line"/>
      <point x="964" y="432"/>
      <point x="964" y="351"/>
      <point x="977" y="317" type="curve"/>
      <point x="1122" y="317" type="line"/>
      <point x="1122" y="333" type="line"/>
      <point x="1110" y="363"/>
      <point x="1105" y="410"/>
      <point x="1105" y="460" type="curve"/>
      <point x="1105" y="514" type="line"/>
      <point x="1105" y="647"/>
      <point x="1043" y="745"/>
      <point x="837" y="745" type="curve"/>
    </contour>
    <contour>
      <point x="206" y="729" type="curve" smooth="yes"/>
      <point x="206" y="1085"/>
      <point x="472" y="1357"/>
      <point x="801" y="1357" type="curve" smooth="yes"/>
      <point x="1128" y="1357"/>
      <point x="1394" y="1085"/>
      <point x="1394" y="729" type="curve" smooth="yes"/>
      <point x="1394" y="373"/>
      <point x="1128" y="98"/>
      <point x="801" y="98" type="curve" smooth="yes"/>
      <point x="472" y="98"/>
      <point x="206" y="373"/>
    </contour>
    <contour>
      <point x="91" y="729" type="curve" smooth="yes"/>
      <point x="91" y="306"/>
      <point x="409" y="-21"/>
      <point x="801" y="-21" type="curve" smooth="yes"/>
      <point x="1192" y="-21"/>
      <point x="1510" y="306"/>
      <point x="1510" y="729" type="curve" smooth="yes"/>
      <point x="1510" y="1152"/>
      <point x="1192" y="1476"/>
      <point x="801" y="1476" type="curve" smooth="yes"/>
      <point x="409" y="1476"/>
      <point x="91" y="1152"/>
    </contour>
  </outline>
</glyph>
<glyph name="degree" format="2">
  <advance width="765"/>
  <unicode hex="00B0"/>
  <outline>
    <contour>
      <point x="131" y="1217" type="curve"/>
      <point x="131" y="1074"/>
      <point x="247" y="960"/>
      <point x="386" y="960" type="curve" smooth="yes"/>
      <point x="524" y="960"/>
      <point x="637" y="1074"/>
      <point x="637" y="1217" type="curve" smooth="yes"/>
      <point x="637" y="1359"/>
      <point x="524" y="1477"/>
      <point x="386" y="1477" type="curve" smooth="yes"/>
      <point x="247" y="1477"/>
      <point x="131" y="1359"/>
    </contour>
    <contour>
      <point x="255" y="1217" type="curve"/>
      <point x="255" y="1292"/>
      <point x="314" y="1349"/>
      <point x="386" y="1349" type="curve" smooth="yes"/>
      <point x="458" y="1349"/>
      <point x="513" y="1292"/>
      <point x="513" y="1217" type="curve" smooth="yes"/>
      <point x="513" y="1143"/>
      <point x="458" y="1088"/>
      <point x="386" y="1088" type="curve" smooth="yes"/>
      <point x="314" y="1088"/>
      <point x="255" y="1143"/>
    </contour>
  </outline>
</glyph>
<glyph name="plusminus" format="2">
  <advance width="963"/>
  <unicode hex="00B1"/>
  <outline>
    <contour>
      <point x="875" y="855" type="line"/>
      <point x="105" y="855" type="line"/>
      <point x="105" y="703" type="line"/>
      <point x="875" y="703" type="line"/>
    </contour>
    <contour>
      <point x="579" y="1267" type="line"/>
      <point x="421" y="1267" type="line"/>
      <point x="421" y="289" type="line"/>
      <point x="579" y="289" type="line"/>
    </contour>
    <component base="minus" xOffset="-26" yOffset="-650"/>
  </outline>
</glyph>
<glyph name="acute" format="2">
  <advance width="642"/>
  <unicode hex="00B4"/>
  <anchor x="225" y="1290" name="_top"/>
  <anchor x="225" y="1641" name="mkmktop_acc"/>
  <outline>
    <contour>
      <point x="123" y="1242" type="line"/>
      <point x="272" y="1242" type="line"/>
      <point x="540" y="1536" type="line"/>
      <point x="317" y="1536" type="line"/>
    </contour>
  </outline>
</glyph>
<glyph name="mu" format="2">
  <advance width="1022"/>
  <unicode hex="00B5"/>
  <outline>
    <contour>
      <point x="697" y="1082" type="line"/>
      <point x="697" y="250" type="line"/>
      <point x="715" y="0" type="line"/>
      <point x="874" y="0" type="line"/>
      <point x="874" y="1082" type="line"/>
    </contour>
    <contour>
      <point x="730" y="503" type="line"/>
      <point x="730" y="286"/>
      <point x="683" y="131"/>
      <point x="495" y="131" type="curve" smooth="yes"/>
      <point x="398" y="131"/>
      <point x="323" y="185"/>
      <point x="323" y="460" type="curve"/>
      <point x="214" y="460" type="line"/>
      <point x="252" y="171" type="line"/>
      <point x="303" y="35"/>
      <point x="376" y="-21"/>
      <point x="502" y="-21" type="curve" smooth="yes"/>
      <point x="704" y="-21"/>
      <point x="791" y="202"/>
      <point x="791" y="505" type="curve"/>
    </contour>
    <contour>
      <point x="148" y="1082" type="line"/>
      <point x="148" y="-416" type="line"/>
      <point x="323" y="-416" type="line"/>
      <point x="323" y="1082" type="line"/>
    </contour>
  </outline>
</glyph>
<glyph name="periodcentered" format="2">
  <advance width="499"/>
  <unicode hex="00B7"/>
  <outline>
    <contour>
      <point x="139" y="729" type="curve" smooth="yes"/>
      <point x="139" y="668"/>
      <point x="175" y="620"/>
      <point x="245" y="620" type="curve" smooth="yes"/>
      <point x="315" y="620"/>
      <point x="351" y="668"/>
      <point x="351" y="729" type="curve" smooth="yes"/>
      <point x="351" y="792"/>
      <point x="315" y="841"/>
      <point x="245" y="841" type="curve" smooth="yes"/>
      <point x="175" y="841"/>
      <point x="139" y="792"/>
    </contour>
  </outline>
</glyph>
<glyph name="cedilla" format="2">
  <advance width="470"/>
  <unicode hex="00B8"/>
  <anchor x="204" y="0" name="_bottom"/>
  <anchor x="204" y="-440" name="mkmkbottom_acc"/>
  <outline>
    <contour>
      <point x="147" y="0" type="line"/>
      <point x="120" y="-135" type="line"/>
      <point x="213" y="-144"/>
      <point x="251" y="-163"/>
      <point x="251" y="-229" type="curve" smooth="yes"/>
      <point x="251" y="-300"/>
      <point x="198" y="-328"/>
      <point x="123" y="-328" type="curve"/>
      <point x="129" y="-435" type="line"/>
      <point x="300" y="-435"/>
      <point x="386" y="-351"/>
      <point x="386" y="-226" type="curve" smooth="yes"/>
      <point x="386" y="-110"/>
      <point x="324" y="-66"/>
      <point x="262" y="-53" type="curve"/>
      <point x="272" y="0" type="line"/>
    </contour>
  </outline>
</glyph>
<glyph name="ordmasculine" format="2">
  <advance width="826"/>
  <unicode hex="00BA"/>
  <outline>
    <contour>
      <point x="119" y="1043" type="line"/>
      <point x="119" y="837"/>
      <point x="233" y="691"/>
      <point x="414" y="691" type="curve" smooth="yes"/>
      <point x="594" y="691"/>
      <point x="706" y="837"/>
      <point x="706" y="1043" type="curve"/>
      <point x="706" y="1124" type="line"/>
      <point x="706" y="1330"/>
      <point x="594" y="1477"/>
      <point x="413" y="1477" type="curve" smooth="yes"/>
      <point x="233" y="1477"/>
      <point x="119" y="1330"/>
      <point x="119" y="1124" type="curve"/>
    </contour>
    <contour>
      <point x="274" y="1124" type="line"/>
      <point x="274" y="1243"/>
      <point x="319" y="1336"/>
      <point x="413" y="1336" type="curve" smooth="yes"/>
      <point x="506" y="1336"/>
      <point x="552" y="1243"/>
      <point x="552" y="1124" type="curve"/>
      <point x="552" y="1043" type="line"/>
      <point x="552" y="921"/>
      <point x="506" y="830"/>
      <point x="414" y="830" type="curve" smooth="yes"/>
      <point x="320" y="830"/>
      <point x="274" y="921"/>
      <point x="274" y="1043" type="curve"/>
    </contour>
  </outline>
</glyph>
<glyph name="questiondown" format="2">
  <advance width="864"/>
  <unicode hex="00BF"/>
  <outline>
    <contour>
      <point x="349" y="680" type="line"/>
      <point x="349" y="582"/>
      <point x="331" y="500"/>
      <point x="275" y="431" type="curve"/>
      <point x="179" y="314"/>
      <point x="71" y="176"/>
      <point x="71" y="-6" type="curve" smooth="yes"/>
      <point x="71" y="-246"/>
      <point x="200" y="-386"/>
      <point x="424" y="-386" type="curve" smooth="yes"/>
      <point x="624" y="-386"/>
      <point x="776" y="-247"/>
      <point x="778" y="-20" type="curve"/>
      <point x="602" y="-20" type="line"/>
      <point x="602" y="-159"/>
      <point x="510" y="-224"/>
      <point x="424" y="-224" type="curve" smooth="yes"/>
      <point x="311" y="-224"/>
      <point x="248" y="-146"/>
      <point x="248" y="0" type="curve" smooth="yes"/>
      <point x="248" y="138"/>
      <point x="312" y="207"/>
      <point x="378" y="298" type="curve" smooth="yes"/>
      <point x="482" y="432"/>
      <point x="525" y="488"/>
      <point x="527" y="680" type="curve"/>
    </contour>
    <contour>
      <point x="531" y="997" type="curve" smooth="yes"/>
      <point x="531" y="1056"/>
      <point x="497" y="1102"/>
      <point x="431" y="1102" type="curve" smooth="yes"/>
      <point x="364" y="1102"/>
      <point x="330" y="1056"/>
      <point x="330" y="997" type="curve" smooth="yes"/>
      <point x="330" y="938"/>
      <point x="364" y="891"/>
      <point x="431" y="891" type="curve" smooth="yes"/>
      <point x="497" y="891"/>
      <point x="531" y="938"/>
    </contour>
  </outline>
</glyph>
<glyph name="AE" format="2">
  <advance width="1663"/>
  <unicode hex="00C6"/>
  <anchor x="804" y="1612" name="top"/>
  <anchor x="1643" y="1600" name="top_dd"/>
  <anchor x="1643" y="1612" name="top0315"/>
  <outline>
    <contour>
      <point x="836" y="1307" type="line"/>
      <point x="848" y="1456" type="line"/>
      <point x="737" y="1456" type="line"/>
      <point x="-3" y="0" type="line"/>
      <point x="214" y="0" type="line"/>
    </contour>
    <contour>
      <point x="975" y="528" type="line"/>
      <point x="335" y="528" type="line"/>
      <point x="335" y="353" type="line"/>
      <point x="975" y="353" type="line"/>
    </contour>
    <contour>
      <point x="1617" y="152" type="line"/>
      <point x="1001" y="152" type="line"/>
      <point x="1001" y="0" type="line"/>
      <point x="1617" y="0" type="line"/>
    </contour>
    <contour>
      <point x="980" y="1456" type="line"/>
      <point x="802" y="1456" type="line"/>
      <point x="853" y="0" type="line"/>
      <point x="1031" y="0" type="line"/>
    </contour>
    <contour>
      <point x="1497" y="834" type="line"/>
      <point x="968" y="834" type="line"/>
      <point x="968" y="682" type="line"/>
      <point x="1497" y="682" type="line"/>
    </contour>
    <contour>
      <point x="1565" y="1456" type="line"/>
      <point x="950" y="1456" type="line"/>
      <point x="950" y="1304" type="line"/>
      <point x="1565" y="1304" type="line"/>
    </contour>
  </outline>
</glyph>
<glyph name="multiply" format="2">
  <advance width="965"/>
  <unicode hex="00D7"/>
  <outline>
    <contour>
      <point x="206" y="206" type="line"/>
      <point x="860" y="1000" type="line"/>
      <point x="748" y="1124" type="line"/>
      <point x="93" y="329" type="line"/>
    </contour>
    <contour>
      <point x="746" y="206" type="line"/>
      <point x="859" y="329" type="line"/>
      <point x="205" y="1124" type="line"/>
      <point x="92" y="1000" type="line"/>
    </contour>
  </outline>
</glyph>
<glyph name="Thorn" format="2">
  <advance width="1055"/>
  <unicode hex="00DE"/>
  <outline>
    <contour>
      <point x="155" y="1456" type="line"/>
      <point x="155" y="0" type="line"/>
      <point x="331" y="0" type="line"/>
      <point x="331" y="1456" type="line"/>
    </contour>
    <contour>
      <point x="245" y="1163" type="line"/>
      <point x="333" y="1012" type="line"/>
      <point x="550" y="1012" type="line" smooth="yes"/>
      <point x="720" y="1012"/>
      <point x="789" y="876"/>
      <point x="789" y="736" type="curve" smooth="yes"/>
      <point x="789" y="600"/>
      <point x="720" y="465"/>
      <point x="550" y="465" type="curve" smooth="yes"/>
      <point x="297" y="465" type="line"/>
      <point x="297" y="314" type="line"/>
      <point x="550" y="314" type="line" smooth="yes"/>
      <point x="818" y="314"/>
      <point x="965" y="494"/>
      <point x="965" y="738" type="curve" smooth="yes"/>
      <point x="965" y="983"/>
      <point x="818" y="1163"/>
      <point x="550" y="1163" type="curve" smooth="yes"/>
    </contour>
  </outline>
</glyph>
<glyph name="germandbls" format="2">
  <advance width="1069"/>
  <unicode hex="00DF"/>
  <outline>
    <contour>
      <point x="309" y="1112" type="line" name="hr00"/>
      <point x="309" y="1312"/>
      <point x="372" y="1403"/>
      <point x="483" y="1403" type="curve" smooth="yes"/>
      <point x="572" y="1403"/>
      <point x="635" y="1334"/>
      <point x="635" y="1201" type="curve" smooth="yes"/>
      <point x="635" y="1048"/>
      <point x="515" y="983"/>
      <point x="515" y="822" type="curve" smooth="yes"/>
      <point x="515" y="551"/>
      <point x="804" y="497"/>
      <point x="804" y="308" type="curve" smooth="yes"/>
      <point x="804" y="210"/>
      <point x="762" y="131"/>
      <point x="636" y="131" type="curve" smooth="yes"/>
      <point x="560" y="131"/>
      <point x="480" y="178"/>
      <point x="443" y="207" type="curve"/>
      <point x="405" y="52" type="line"/>
      <point x="447" y="15"/>
      <point x="563" y="-20"/>
      <point x="654" y="-20" type="curve" smooth="yes"/>
      <point x="852" y="-20"/>
      <point x="980" y="89"/>
      <point x="980" y="317" type="curve" smooth="yes"/>
      <point x="980" y="575"/>
      <point x="691" y="637"/>
      <point x="691" y="820" type="curve" smooth="yes"/>
      <point x="691" y="957"/>
      <point x="800" y="1003"/>
      <point x="800" y="1217" type="curve" smooth="yes"/>
      <point x="800" y="1448"/>
      <point x="666" y="1554"/>
      <point x="474" y="1554" type="curve" smooth="yes"/>
      <point x="274" y="1554"/>
      <point x="134" y="1404"/>
      <point x="134" y="1112" type="curve" smooth="yes"/>
      <point x="134" y="0" type="line"/>
      <point x="309" y="0" type="line"/>
    </contour>
  </outline>
</glyph>
<glyph name="ae" format="2">
  <advance width="1492"/>
  <unicode hex="00E6"/>
  <anchor x="742" y="1291" name="top"/>
  <anchor x="1472" y="1600" name="top_dd"/>
  <anchor x="1472" y="1291" name="top0315"/>
  <outline>
    <contour>
      <point x="639" y="183" type="line"/>
      <point x="810" y="218" type="line"/>
      <point x="810" y="718" type="line"/>
      <point x="810" y="973"/>
      <point x="673" y="1102"/>
      <point x="472" y="1102" type="curve" smooth="yes"/>
      <point x="256" y="1102"/>
      <point x="108" y="965"/>
      <point x="108" y="778" type="curve"/>
      <point x="283" y="760" type="line"/>
      <point x="283" y="863"/>
      <point x="358" y="950"/>
      <point x="472" y="950" type="curve" smooth="yes"/>
      <point x="578" y="950"/>
      <point x="639" y="863"/>
      <point x="639" y="720" type="curve"/>
    </contour>
    <contour>
      <point x="676" y="636" type="line"/>
      <point x="463" y="636" type="line"/>
      <point x="214" y="636"/>
      <point x="84" y="514"/>
      <point x="84" y="304" type="curve" smooth="yes"/>
      <point x="84" y="107"/>
      <point x="190" y="-21"/>
      <point x="382" y="-21" type="curve" smooth="yes"/>
      <point x="598" y="-21"/>
      <point x="723" y="97"/>
      <point x="769" y="195" type="curve"/>
      <point x="682" y="339" type="line"/>
      <point x="683" y="257"/>
      <point x="533" y="130"/>
      <point x="418" y="130" type="curve" smooth="yes"/>
      <point x="309" y="130"/>
      <point x="260" y="205"/>
      <point x="260" y="300" type="curve" smooth="yes"/>
      <point x="260" y="404"/>
      <point x="331" y="496"/>
      <point x="465" y="496" type="curve"/>
      <point x="676" y="496" type="line"/>
    </contour>
    <contour>
      <point x="1080" y="-21" type="curve"/>
      <point x="1263" y="-21"/>
      <point x="1370" y="67"/>
      <point x="1402" y="102" type="curve"/>
      <point x="1342" y="238" type="line"/>
      <point x="1287" y="193"/>
      <point x="1215" y="131"/>
      <point x="1080" y="131" type="curve" smooth="yes"/>
      <point x="894" y="131"/>
      <point x="814" y="305"/>
      <point x="814" y="520" type="curve" smooth="yes"/>
      <point x="814" y="564" type="line" smooth="yes"/>
      <point x="814" y="778"/>
      <point x="894" y="950"/>
      <point x="1039" y="950" type="curve"/>
      <point x="1189" y="950"/>
      <point x="1239" y="822"/>
      <point x="1239" y="671" type="curve"/>
      <point x="1239" y="640" type="line"/>
      <point x="741" y="640" type="line"/>
      <point x="741" y="498" type="line"/>
      <point x="1416" y="498" type="line"/>
      <point x="1416" y="616" type="line" smooth="yes"/>
      <point x="1416" y="915"/>
      <point x="1285" y="1102"/>
      <point x="1039" y="1102" type="curve" smooth="yes"/>
      <point x="815" y="1104"/>
      <point x="648" y="880"/>
      <point x="648" y="564" type="curve" smooth="yes"/>
      <point x="648" y="520" type="line" smooth="yes"/>
      <point x="648" y="205"/>
      <point x="800" y="-21"/>
    </contour>
  </outline>
</glyph>
<glyph name="eth" format="2">
  <advance width="1052"/>
  <unicode hex="00F0"/>
  <outline>
    <contour>
      <point x="221" y="1421" type="line"/>
      <point x="503" y="1332"/>
      <point x="746" y="1103"/>
      <point x="746" y="635" type="curve" smooth="yes"/>
      <point x="746" y="535" type="line" smooth="yes"/>
      <point x="746" y="305"/>
      <point x="662" y="132"/>
      <point x="525" y="132" type="curve" smooth="yes"/>
      <point x="377" y="132"/>
      <point x="296" y="303"/>
      <point x="296" y="468" type="curve"/>
      <point x="296" y="688"/>
      <point x="389" y="826"/>
      <point x="542" y="826" type="curve"/>
      <point x="689" y="826"/>
      <point x="764" y="703"/>
      <point x="764" y="614" type="curve"/>
      <point x="828" y="613" type="line"/>
      <point x="828" y="794"/>
      <point x="688" y="978"/>
      <point x="498" y="978" type="curve"/>
      <point x="283" y="978"/>
      <point x="118" y="776"/>
      <point x="118" y="468" type="curve"/>
      <point x="118" y="196"/>
      <point x="283" y="-20"/>
      <point x="521" y="-20" type="curve" smooth="yes"/>
      <point x="754" y="-20"/>
      <point x="923" y="206"/>
      <point x="923" y="535" type="curve"/>
      <point x="923" y="633" type="line"/>
      <point x="923" y="1136"/>
      <point x="652" y="1480"/>
      <point x="275" y="1581" type="curve"/>
    </contour>
    <contour>
      <point x="849" y="1417" type="line"/>
      <point x="781" y="1516" type="line"/>
      <point x="320" y="1151" type="line"/>
      <point x="388" y="1051" type="line"/>
    </contour>
  </outline>
</glyph>
<glyph name="divide" format="2">
  <advance width="1025"/>
  <unicode hex="00F7"/>
  <outline>
    <contour>
      <point x="918" y="784" type="line"/>
      <point x="79" y="784" type="line"/>
      <point x="79" y="600" type="line"/>
      <point x="918" y="600" type="line"/>
    </contour>
    <contour>
      <point x="397" y="1098" type="curve" smooth="yes"/>
      <point x="397" y="1037"/>
      <point x="433" y="989"/>
      <point x="503" y="989" type="curve" smooth="yes"/>
      <point x="573" y="989"/>
      <point x="609" y="1037"/>
      <point x="609" y="1098" type="curve" smooth="yes"/>
      <point x="609" y="1162"/>
      <point x="573" y="1210"/>
      <point x="503" y="1210" type="curve" smooth="yes"/>
      <point x="433" y="1210"/>
      <point x="397" y="1162"/>
    </contour>
    <contour>
      <point x="397" y="282" type="curve" smooth="yes"/>
      <point x="397" y="220"/>
      <point x="433" y="172"/>
      <point x="503" y="172" type="curve" smooth="yes"/>
      <point x="573" y="172"/>
      <point x="609" y="220"/>
      <point x="609" y="282" type="curve" smooth="yes"/>
      <point x="609" y="345"/>
      <point x="573" y="394"/>
      <point x="503" y="394" type="curve" smooth="yes"/>
      <point x="433" y="394"/>
      <point x="397" y="345"/>
    </contour>
  </outline>
</glyph>
<glyph name="thorn" format="2">
  <advance width="1041"/>
  <unicode hex="00FE"/>
  <outline>
    <contour>
      <point x="319" y="1536" type="line"/>
      <point x="142" y="1536" type="line"/>
      <point x="142" y="-416" type="line"/>
      <point x="319" y="-416" type="line"/>
    </contour>
    <contour>
      <point x="924" y="550" type="line"/>
      <point x="924" y="880"/>
      <point x="798" y="1102"/>
      <point x="566" y="1102" type="curve" smooth="yes"/>
      <point x="332" y="1102"/>
      <point x="213" y="905"/>
      <point x="189" y="586" type="curve"/>
      <point x="189" y="474" type="line"/>
      <point x="214" y="170"/>
      <point x="332" y="-20"/>
      <point x="569" y="-20" type="curve" smooth="yes"/>
      <point x="796" y="-20"/>
      <point x="924" y="213"/>
      <point x="924" y="529" type="curve" smooth="yes"/>
    </contour>
    <contour>
      <point x="747" y="529" type="line"/>
      <point x="747" y="314"/>
      <point x="676" y="132"/>
      <point x="514" y="132" type="curve" smooth="yes"/>
      <point x="367" y="132"/>
      <point x="307" y="259"/>
      <point x="273" y="400" type="curve"/>
      <point x="273" y="659" type="line"/>
      <point x="298" y="806"/>
      <point x="370" y="946"/>
      <point x="512" y="946" type="curve" smooth="yes"/>
      <point x="676" y="946"/>
      <point x="747" y="765"/>
      <point x="747" y="550" type="curve" smooth="yes"/>
    </contour>
  </outline>
</glyph>
<glyph name="dotlessi" format="2">
  <advance width="482"/>
  <unicode hex="0131"/>
  <anchor x="263" y="654" name="rhotichook"/>
  <anchor x="239" y="1288" name="top"/>
  <anchor x="235" y="10" name="bottom"/>
  <anchor x="462" y="1288" name="top0315"/>
  <outline>
    <contour>
      <point x="323" y="1082" type="line"/>
      <point x="147" y="1082" type="line"/>
      <point x="147" y="0" type="line"/>
      <point x="323" y="0" type="line"/>
    </contour>
  </outline>
</glyph>
<glyph name="kgreenlandic" format="2">
  <advance width="1007"/>
  <unicode hex="0138"/>
  <anchor x="521" y="1290" name="top"/>
  <anchor x="521" y="10" name="bottom"/>
  <anchor x="987" y="1290" name="top0315"/>
  <outline>
    <contour>
      <point x="324" y="1082" type="line"/>
      <point x="148" y="1082" type="line"/>
      <point x="148" y="0" type="line"/>
      <point x="324" y="0" type="line"/>
    </contour>
    <contour>
      <point x="918" y="1082" type="line"/>
      <point x="705" y="1082" type="line"/>
      <point x="387" y="624" type="line"/>
      <point x="237" y="624" type="line"/>
      <point x="265" y="462" type="line"/>
      <point x="468" y="462" type="line"/>
    </contour>
    <contour>
      <point x="721" y="0" type="line"/>
      <point x="944" y="0" type="line"/>
      <point x="494" y="624" type="line"/>
      <point x="381" y="490" type="line"/>
    </contour>
  </outline>
</glyph>
<glyph name="lslash" format="2">
  <advance width="513"/>
  <unicode hex="0142"/>
  <anchor x="259" y="1697" name="top"/>
  <anchor x="259" y="10" name="bottom"/>
  <anchor x="493" y="1697" name="top0315"/>
  <outline>
    <contour>
      <point x="465" y="930" type="line"/>
      <point x="52" y="743" type="line"/>
      <point x="52" y="621" type="line"/>
      <point x="465" y="808" type="line"/>
    </contour>
    <component base="l" xOffset="15"/>
  </outline>
</glyph>
<glyph name="Eng" format="2">
  <advance width="1227"/>
  <unicode hex="014A"/>
  <anchor x="630" y="1601" name="top"/>
  <anchor x="624" y="10" name="bottom"/>
  <anchor x="1207" y="1601" name="top0315"/>
  <outline>
    <contour>
      <point x="150" y="1456" type="line"/>
      <point x="150" y="0" type="line"/>
      <point x="334" y="0" type="line"/>
      <point x="334" y="1456" type="line"/>
    </contour>
    <contour>
      <point x="206" y="1342" type="line"/>
      <point x="901" y="0" type="line"/>
      <point x="1029" y="114" type="line"/>
      <point x="334" y="1456" type="line"/>
    </contour>
    <contour>
      <point x="901" y="1456" type="line"/>
      <point x="901" y="-84" type="line" smooth="yes"/>
      <point x="901" y="-206"/>
      <point x="864" y="-279"/>
      <point x="801" y="-279" type="curve" smooth="yes"/>
      <point x="787" y="-279"/>
      <point x="737" y="-274"/>
      <point x="718" y="-266" type="curve"/>
      <point x="707" y="-420" type="line"/>
      <point x="740" y="-433"/>
      <point x="768" y="-437"/>
      <point x="804" y="-437" type="curve" smooth="yes"/>
      <point x="979" y="-437"/>
      <point x="1085" y="-312"/>
      <point x="1085" y="-84" type="curve" smooth="yes"/>
      <point x="1085" y="1456" type="line"/>
    </contour>
  </outline>
</glyph>
<glyph name="eng" format="2">
  <advance width="1022"/>
  <unicode hex="014B"/>
  <anchor x="698" y="-304" name="parenthesses.w1"/>
  <anchor x="491" y="10" name="markbottom"/>
  <anchor x="501" y="1290" name="top"/>
  <anchor x="491" y="10" name="bottom"/>
  <anchor x="1002" y="1290" name="top0315"/>
  <outline>
    <contour>
      <point x="315" y="851" type="line"/>
      <point x="297" y="1082" type="line"/>
      <point x="139" y="1082" type="line"/>
      <point x="139" y="0" type="line"/>
      <point x="315" y="0" type="line"/>
    </contour>
    <contour>
      <point x="260" y="576" type="line"/>
      <point x="260" y="779"/>
      <point x="338" y="946"/>
      <point x="512" y="946" type="curve" smooth="yes"/>
      <point x="636" y="946"/>
      <point x="700" y="879"/>
      <point x="700" y="679" type="curve" smooth="yes"/>
      <point x="700" y="-89" type="line" smooth="yes"/>
      <point x="700" y="-212"/>
      <point x="662" y="-275"/>
      <point x="599" y="-275" type="curve" smooth="yes"/>
      <point x="587" y="-275"/>
      <point x="535" y="-271"/>
      <point x="518" y="-263" type="curve"/>
      <point x="506" y="-420" type="line"/>
      <point x="539" y="-433"/>
      <point x="566" y="-437"/>
      <point x="599" y="-437" type="curve" smooth="yes"/>
      <point x="772" y="-437"/>
      <point x="876" y="-314"/>
      <point x="876" y="-89" type="curve" smooth="yes"/>
      <point x="876" y="682" type="line" smooth="yes"/>
      <point x="876" y="979"/>
      <point x="755" y="1102"/>
      <point x="567" y="1102" type="curve" smooth="yes"/>
      <point x="357" y="1102"/>
      <point x="225" y="880"/>
      <point x="225" y="574" type="curve"/>
    </contour>
  </outline>
</glyph>
<glyph name="OE" format="2">
  <advance width="1693"/>
  <unicode hex="0152"/>
  <anchor x="820" y="1603" name="top"/>
  <anchor x="820" y="0" name="bottom"/>
  <anchor x="1673" y="1600" name="top_dd"/>
  <anchor x="1673" y="-407" name="bottom_dd"/>
  <anchor x="1673" y="1603" name="top0315"/>
  <outline>
    <contour>
      <point x="579" y="1477" type="curve" smooth="yes"/>
      <point x="297" y="1477"/>
      <point x="107" y="1233"/>
      <point x="107" y="880" type="curve"/>
      <point x="107" y="576" type="line"/>
      <point x="107" y="223"/>
      <point x="299" y="-21"/>
      <point x="581" y="-21" type="curve" smooth="yes"/>
      <point x="664" y="-21"/>
      <point x="746" y="-10"/>
      <point x="820" y="0" type="curve"/>
      <point x="820" y="158" type="line"/>
      <point x="748" y="142"/>
      <point x="667" y="131"/>
      <point x="581" y="131" type="curve" smooth="yes"/>
      <point x="399" y="131"/>
      <point x="283" y="285"/>
      <point x="283" y="576" type="curve"/>
      <point x="283" y="882" type="line"/>
      <point x="283" y="1172"/>
      <point x="397" y="1325"/>
      <point x="579" y="1325" type="curve" smooth="yes"/>
      <point x="665" y="1325"/>
      <point x="748" y="1314"/>
      <point x="820" y="1298" type="curve"/>
      <point x="820" y="1456" type="line"/>
      <point x="746" y="1467"/>
      <point x="663" y="1477"/>
    </contour>
    <component base="E" xOffset="593"/>
  </outline>
</glyph>
<glyph name="oe" format="2">
  <advance width="1592"/>
  <unicode hex="0153"/>
  <anchor x="809" y="1290" name="top"/>
  <anchor x="809" y="-1" name="bottom"/>
  <anchor x="1572" y="1600" name="top_dd"/>
  <anchor x="1572" y="-407" name="bottom_dd"/>
  <anchor x="1572" y="1290" name="top0315"/>
  <outline>
    <contour>
      <point x="1168" y="-21" type="curve"/>
      <point x="1337" y="-21"/>
      <point x="1438" y="49"/>
      <point x="1491" y="113" type="curve"/>
      <point x="1422" y="239" type="line"/>
      <point x="1367" y="179"/>
      <point x="1287" y="131"/>
      <point x="1168" y="131" type="curve" smooth="yes"/>
      <point x="1003" y="131"/>
      <point x="928" y="305"/>
      <point x="928" y="520" type="curve" smooth="yes"/>
      <point x="928" y="564" type="line" smooth="yes"/>
      <point x="928" y="778"/>
      <point x="1017" y="950"/>
      <point x="1140" y="950" type="curve"/>
      <point x="1283" y="950"/>
      <point x="1339" y="820"/>
      <point x="1339" y="675" type="curve"/>
      <point x="1339" y="649" type="line"/>
      <point x="855" y="649" type="line"/>
      <point x="855" y="498" type="line"/>
      <point x="1515" y="498" type="line"/>
      <point x="1515" y="620" type="line" smooth="yes"/>
      <point x="1515" y="902"/>
      <point x="1400" y="1102"/>
      <point x="1140" y="1102" type="curve" smooth="yes"/>
      <point x="936" y="1104"/>
      <point x="751" y="880"/>
      <point x="751" y="564" type="curve" smooth="yes"/>
      <point x="751" y="520" type="line" smooth="yes"/>
      <point x="751" y="205"/>
      <point x="907" y="-21"/>
    </contour>
    <contour>
      <point x="102" y="529" type="line"/>
      <point x="102" y="216"/>
      <point x="252" y="-21"/>
      <point x="510" y="-21" type="curve" smooth="yes"/>
      <point x="769" y="-21"/>
      <point x="918" y="216"/>
      <point x="918" y="529" type="curve"/>
      <point x="918" y="552" type="line"/>
      <point x="918" y="865"/>
      <point x="769" y="1102"/>
      <point x="509" y="1102" type="curve" smooth="yes"/>
      <point x="252" y="1102"/>
      <point x="102" y="865"/>
      <point x="102" y="552" type="curve"/>
    </contour>
    <contour>
      <point x="280" y="552" type="line"/>
      <point x="280" y="764"/>
      <point x="348" y="950"/>
      <point x="509" y="950" type="curve" smooth="yes"/>
      <point x="672" y="950"/>
      <point x="741" y="764"/>
      <point x="741" y="552" type="curve"/>
      <point x="741" y="529" type="line"/>
      <point x="741" y="314"/>
      <point x="672" y="131"/>
      <point x="510" y="131" type="curve" smooth="yes"/>
      <point x="348" y="131"/>
      <point x="280" y="314"/>
      <point x="280" y="529" type="curve"/>
    </contour>
  </outline>
</glyph>
<glyph name="longs" format="2">
  <advance width="480"/>
  <unicode hex="017F"/>
  <anchor x="388" y="1754" name="top"/>
  <anchor x="236" y="10" name="bottom"/>
  <anchor x="460" y="1754" name="top0315"/>
  <outline>
    <contour>
      <point x="330" y="0" type="line"/>
      <point x="330" y="1196" type="line" smooth="yes"/>
      <point x="330" y="1327"/>
      <point x="380" y="1405"/>
      <point x="475" y="1405" type="curve" smooth="yes"/>
      <point x="505" y="1405"/>
      <point x="530" y="1400"/>
      <point x="547" y="1394" type="curve"/>
      <point x="570" y="1536" type="line"/>
      <point x="527" y="1548"/>
      <point x="488" y="1557"/>
      <point x="446" y="1557" type="curve" smooth="yes"/>
      <point x="264" y="1557"/>
      <point x="153" y="1429"/>
      <point x="153" y="1196" type="curve" smooth="yes"/>
      <point x="153" y="0" type="line"/>
    </contour>
  </outline>
</glyph>
<glyph name="Chook" format="2">
  <advance width="1205"/>
  <unicode hex="0187"/>
  <outline>
    <contour>
      <point x="1070" y="989" type="line"/>
      <point x="1070" y="1161" type="line" smooth="yes"/>
      <point x="1070" y="1301"/>
      <point x="1129" y="1352"/>
      <point x="1216" y="1352" type="curve" smooth="yes"/>
      <point x="1229" y="1352"/>
      <point x="1251" y="1349"/>
      <point x="1268" y="1343" type="curve"/>
      <point x="1267" y="1492" type="line"/>
      <point x="1241" y="1502"/>
      <point x="1197" y="1509"/>
      <point x="1169" y="1509" type="curve" smooth="yes"/>
      <point x="1008" y="1509"/>
      <point x="926" y="1386"/>
      <point x="926" y="1161" type="curve" smooth="yes"/>
      <point x="926" y="989" type="line"/>
    </contour>
    <component base="C"/>
  </outline>
</glyph>
<glyph name="chook" format="2">
  <advance width="1103"/>
  <unicode hex="0188"/>
  <outline>
    <contour>
      <point x="874" y="710" type="line"/>
      <point x="874" y="850" type="line" smooth="yes"/>
      <point x="874" y="972"/>
      <point x="924" y="1017"/>
      <point x="998" y="1017" type="curve" smooth="yes"/>
      <point x="1009" y="1017"/>
      <point x="1027" y="1015"/>
      <point x="1042" y="1010" type="curve"/>
      <point x="1041" y="1137" type="line"/>
      <point x="1019" y="1146"/>
      <point x="982" y="1152"/>
      <point x="959" y="1152" type="curve" smooth="yes"/>
      <point x="821" y="1152"/>
      <point x="754" y="1045"/>
      <point x="754" y="850" type="curve" smooth="yes"/>
      <point x="754" y="710" type="line"/>
    </contour>
    <component base="c"/>
  </outline>
</glyph>
<glyph name="Dhook" format="2">
  <advance width="1345"/>
  <unicode hex="018A"/>
  <outline>
    <contour>
      <point x="490" y="1298" type="line"/>
      <point x="490" y="1456" type="line"/>
      <point x="338" y="1456" type="line" smooth="yes"/>
      <point x="149" y="1456"/>
      <point x="46" y="1363"/>
      <point x="46" y="1173" type="curve" smooth="yes"/>
      <point x="46" y="1138"/>
      <point x="52" y="1089"/>
      <point x="60" y="1057" type="curve"/>
      <point x="201" y="1058" type="line"/>
      <point x="196" y="1078"/>
      <point x="195" y="1106"/>
      <point x="195" y="1125" type="curve" smooth="yes"/>
      <point x="195" y="1238"/>
      <point x="232" y="1298"/>
      <point x="338" y="1298" type="curve" smooth="yes"/>
    </contour>
    <component base="D" xOffset="176"/>
  </outline>
</glyph>
<glyph name="Dtopbar" format="2">
  <advance width="1131"/>
  <unicode hex="018B"/>
  <outline>
    <contour>
      <point x="980" y="0" type="line"/>
      <point x="980" y="1456" type="line"/>
      <point x="223" y="1456" type="line"/>
      <point x="223" y="1298" type="line"/>
      <point x="796" y="1298" type="line"/>
      <point x="796" y="863" type="line"/>
      <point x="504" y="863" type="line" smooth="yes"/>
      <point x="235" y="863"/>
      <point x="85" y="693"/>
      <point x="85" y="435" type="curve" smooth="yes"/>
      <point x="85" y="179"/>
      <point x="235" y="0"/>
      <point x="504" y="0" type="curve" smooth="yes"/>
    </contour>
    <contour>
      <point x="796" y="157" type="line"/>
      <point x="504" y="157" type="line" smooth="yes"/>
      <point x="337" y="157"/>
      <point x="268" y="290"/>
      <point x="268" y="437" type="curve" smooth="yes"/>
      <point x="268" y="583"/>
      <point x="337" y="705"/>
      <point x="504" y="705" type="curve" smooth="yes"/>
      <point x="796" y="705" type="line"/>
    </contour>
  </outline>
</glyph>
<glyph name="deltaturn" format="2">
  <advance width="1022"/>
  <unicode hex="018D"/>
  <outline>
    <contour>
      <point x="804" y="-376" type="line"/>
      <point x="804" y="-261" type="line"/>
      <point x="721" y="-154"/>
      <point x="617" y="-41"/>
      <point x="520" y="71" type="curve"/>
      <point x="528" y="70"/>
      <point x="530" y="70"/>
      <point x="540" y="71" type="curve" smooth="yes"/>
      <point x="781" y="103"/>
      <point x="918" y="303"/>
      <point x="918" y="548" type="curve" smooth="yes"/>
      <point x="918" y="571" type="line" smooth="yes"/>
      <point x="918" y="873"/>
      <point x="767" y="1101"/>
      <point x="510" y="1101" type="curve" smooth="yes"/>
      <point x="251" y="1101"/>
      <point x="102" y="873"/>
      <point x="102" y="571" type="curve" smooth="yes"/>
      <point x="102" y="548" type="line" smooth="yes"/>
      <point x="102" y="323"/>
      <point x="235" y="149"/>
      <point x="418" y="-34" type="curve" smooth="yes"/>
      <point x="466" y="-98"/>
      <point x="544" y="-184"/>
      <point x="567" y="-228" type="curve"/>
      <point x="204" y="-228" type="line"/>
      <point x="204" y="-376" type="line"/>
    </contour>
    <contour>
      <point x="740" y="548" type="line"/>
      <point x="740" y="358"/>
      <point x="668" y="189"/>
      <point x="496" y="189" type="curve" smooth="yes"/>
      <point x="467" y="189"/>
      <point x="450" y="193"/>
      <point x="428" y="200" type="curve"/>
      <point x="349" y="261"/>
      <point x="278" y="386"/>
      <point x="278" y="548" type="curve" smooth="yes"/>
      <point x="278" y="571" type="line" smooth="yes"/>
      <point x="278" y="775"/>
      <point x="348" y="950"/>
      <point x="510" y="950" type="curve" smooth="yes"/>
      <point x="673" y="950"/>
      <point x="740" y="775"/>
      <point x="740" y="571" type="curve" smooth="yes"/>
    </contour>
  </outline>
</glyph>
<glyph name="Eturn" format="2">
  <advance width="1017"/>
  <unicode hex="018E"/>
  <outline>
    <contour>
      <point x="77" y="1299" type="line"/>
      <point x="709" y="1299" type="line"/>
      <point x="709" y="1456" type="line"/>
      <point x="77" y="1456" type="line"/>
    </contour>
    <contour>
      <point x="676" y="0" type="line"/>
      <point x="860" y="0" type="line"/>
      <point x="860" y="1456" type="line"/>
      <point x="676" y="1456" type="line"/>
    </contour>
    <contour>
      <point x="163" y="630" type="line"/>
      <point x="709" y="630" type="line"/>
      <point x="709" y="787" type="line"/>
      <point x="163" y="787" type="line"/>
    </contour>
    <contour>
      <point x="87" y="0" type="line"/>
      <point x="709" y="0" type="line"/>
      <point x="709" y="158" type="line"/>
      <point x="87" y="158" type="line"/>
    </contour>
  </outline>
</glyph>
<glyph name="Schwa" format="2">
  <advance width="1223"/>
  <unicode hex="018F"/>
  <anchor x="562" y="1603" name="top"/>
  <anchor x="597" y="0" name="bottom"/>
  <anchor x="1203" y="1603" name="top0315"/>
  <outline>
    <contour>
      <point x="596" y="-20" type="curve" smooth="yes"/>
      <point x="878" y="-20"/>
      <point x="1106" y="266"/>
      <point x="1106" y="680" type="curve" smooth="yes"/>
      <point x="1106" y="774" type="line" smooth="yes"/>
      <point x="1106" y="1186"/>
      <point x="906" y="1476"/>
      <point x="545" y="1476" type="curve" smooth="yes"/>
      <point x="355" y="1476"/>
      <point x="243" y="1407"/>
      <point x="210" y="1375" type="curve"/>
      <point x="252" y="1232" type="line"/>
      <point x="313" y="1269"/>
      <point x="402" y="1316"/>
      <point x="545" y="1316" type="curve" smooth="yes"/>
      <point x="813" y="1316"/>
      <point x="922" y="1074"/>
      <point x="922" y="774" type="curve" smooth="yes"/>
      <point x="922" y="680" type="line" smooth="yes"/>
      <point x="922" y="381"/>
      <point x="805" y="139"/>
      <point x="596" y="139" type="curve" smooth="yes"/>
      <point x="349" y="139"/>
      <point x="273" y="336"/>
      <point x="273" y="584" type="curve" smooth="yes"/>
      <point x="273" y="618" type="line"/>
      <point x="993" y="618" type="line"/>
      <point x="993" y="767" type="line"/>
      <point x="89" y="767" type="line"/>
      <point x="89" y="643" type="line" smooth="yes"/>
      <point x="89" y="237"/>
      <point x="258" y="-20"/>
    </contour>
  </outline>
</glyph>
<glyph name="Epsilon1" format="2">
  <advance width="1053"/>
  <unicode hex="0190"/>
  <anchor x="532" y="1603" name="top"/>
  <anchor x="532" y="0" name="bottom"/>
  <anchor x="1033" y="1603" name="top0315"/>
  <outline>
    <contour>
      <point x="665" y="699" type="line"/>
      <point x="665" y="822" type="line"/>
      <point x="529" y="822" type="line" smooth="yes"/>
      <point x="356" y="822"/>
      <point x="290" y="922"/>
      <point x="290" y="1067" type="curve" smooth="yes"/>
      <point x="290" y="1208"/>
      <point x="366" y="1319"/>
      <point x="544" y="1319" type="curve" smooth="yes"/>
      <point x="678" y="1319"/>
      <point x="774" y="1219"/>
      <point x="774" y="1075" type="curve"/>
      <point x="958" y="1075" type="line"/>
      <point x="958" y="1323"/>
      <point x="770" y="1477"/>
      <point x="544" y="1477" type="curve" smooth="yes"/>
      <point x="281" y="1477"/>
      <point x="107" y="1334"/>
      <point x="107" y="1063" type="curve" smooth="yes"/>
      <point x="107" y="834"/>
      <point x="283" y="699"/>
      <point x="526" y="699" type="curve"/>
    </contour>
    <contour>
      <point x="526" y="784" type="line"/>
      <point x="253" y="784"/>
      <point x="88" y="649"/>
      <point x="88" y="406" type="curve" smooth="yes"/>
      <point x="88" y="101"/>
      <point x="285" y="-21"/>
      <point x="544" y="-21" type="curve" smooth="yes"/>
      <point x="755" y="-21"/>
      <point x="975" y="106"/>
      <point x="975" y="404" type="curve"/>
      <point x="792" y="404" type="line"/>
      <point x="792" y="254"/>
      <point x="698" y="136"/>
      <point x="544" y="136" type="curve" smooth="yes"/>
      <point x="379" y="136"/>
      <point x="272" y="223"/>
      <point x="272" y="402" type="curve" smooth="yes"/>
      <point x="272" y="583"/>
      <point x="360" y="663"/>
      <point x="529" y="663" type="curve" smooth="yes"/>
      <point x="665" y="663" type="line"/>
      <point x="665" y="784" type="line"/>
    </contour>
  </outline>
</glyph>
<glyph name="Fhook" format="2">
  <advance width="1046"/>
  <unicode hex="0191"/>
  <outline>
    <contour>
      <point x="219" y="940" type="line" name="hr00"/>
      <point x="219" y="-89" type="line" smooth="yes"/>
      <point x="219" y="-212"/>
      <point x="185" y="-274"/>
      <point x="123" y="-274" type="curve" smooth="yes"/>
      <point x="97" y="-274"/>
      <point x="60" y="-267"/>
      <point x="41" y="-260" type="curve"/>
      <point x="29" y="-420" type="line"/>
      <point x="61" y="-433"/>
      <point x="89" y="-437"/>
      <point x="123" y="-437" type="curve" smooth="yes"/>
      <point x="295" y="-437"/>
      <point x="402" y="-314"/>
      <point x="402" y="-89" type="curve" smooth="yes"/>
      <point x="402" y="940" type="line"/>
    </contour>
    <component base="F" xOffset="61"/>
  </outline>
</glyph>
<glyph name="florin" format="2">
  <advance width="635"/>
  <unicode hex="0192"/>
  <outline>
    <contour>
      <point x="533" y="1082" type="line"/>
      <point x="376" y="1082" type="line"/>
      <point x="376" y="1196" type="line" smooth="yes"/>
      <point x="376" y="1327"/>
      <point x="419" y="1400"/>
      <point x="514" y="1400" type="curve" smooth="yes"/>
      <point x="544" y="1400"/>
      <point x="575" y="1396"/>
      <point x="594" y="1390" type="curve"/>
      <point x="615" y="1536" type="line"/>
      <point x="573" y="1548"/>
      <point x="534" y="1557"/>
      <point x="492" y="1557" type="curve" smooth="yes"/>
      <point x="309" y="1557"/>
      <point x="200" y="1429"/>
      <point x="200" y="1196" type="curve" smooth="yes"/>
      <point x="200" y="1082" type="line"/>
      <point x="59" y="1082" type="line"/>
      <point x="59" y="940" type="line"/>
      <point x="200" y="940" type="line"/>
      <point x="200" y="-89" type="line" smooth="yes"/>
      <point x="200" y="-212"/>
      <point x="162" y="-285"/>
      <point x="99" y="-285" type="curve" smooth="yes"/>
      <point x="86" y="-285"/>
      <point x="34" y="-280"/>
      <point x="17" y="-272" type="curve"/>
      <point x="5" y="-420" type="line"/>
      <point x="37" y="-433"/>
      <point x="65" y="-437"/>
      <point x="99" y="-437" type="curve" smooth="yes"/>
      <point x="273" y="-437"/>
      <point x="376" y="-314"/>
      <point x="376" y="-89" type="curve" smooth="yes"/>
      <point x="376" y="940" type="line"/>
      <point x="533" y="940" type="line"/>
    </contour>
  </outline>
</glyph>
<glyph name="Ghook" format="2">
  <advance width="1264"/>
  <unicode hex="0193"/>
  <outline>
    <contour>
      <point x="1069" y="1030" type="line"/>
      <point x="1069" y="1161" type="line" smooth="yes"/>
      <point x="1069" y="1301"/>
      <point x="1127" y="1352"/>
      <point x="1215" y="1352" type="curve" smooth="yes"/>
      <point x="1228" y="1352"/>
      <point x="1250" y="1349"/>
      <point x="1267" y="1343" type="curve"/>
      <point x="1266" y="1492" type="line"/>
      <point x="1240" y="1502"/>
      <point x="1196" y="1509"/>
      <point x="1169" y="1509" type="curve" smooth="yes"/>
      <point x="1007" y="1509"/>
      <point x="926" y="1386"/>
      <point x="926" y="1161" type="curve" smooth="yes"/>
      <point x="926" y="1030" type="line"/>
    </contour>
    <component base="G"/>
  </outline>
</glyph>
<glyph name="Gamma1" format="2">
  <advance width="1130"/>
  <unicode hex="0194"/>
  <outline>
    <contour>
      <point x="36" y="1456" type="line"/>
      <point x="531" y="107" type="line" smooth="yes"/>
      <point x="597" y="-59"/>
      <point x="623" y="-136"/>
      <point x="623" y="-194" type="curve" smooth="yes"/>
      <point x="623" y="-237"/>
      <point x="610" y="-272"/>
      <point x="565" y="-272" type="curve" smooth="yes"/>
      <point x="522" y="-272"/>
      <point x="507" y="-238"/>
      <point x="507" y="-194" type="curve" smooth="yes"/>
      <point x="507" y="-137"/>
      <point x="537" y="-51"/>
      <point x="599" y="107" type="curve" smooth="yes"/>
      <point x="1095" y="1456" type="line"/>
      <point x="891" y="1456" type="line"/>
      <point x="487" y="268" type="line" smooth="yes"/>
      <point x="389" y="13"/>
      <point x="330" y="-99"/>
      <point x="330" y="-194" type="curve" smooth="yes"/>
      <point x="330" y="-343"/>
      <point x="417" y="-429"/>
      <point x="565" y="-429" type="curve" smooth="yes"/>
      <point x="713" y="-429"/>
      <point x="800" y="-343"/>
      <point x="800" y="-194" type="curve" smooth="yes"/>
      <point x="800" y="-99"/>
      <point x="734" y="13"/>
      <point x="639" y="268" type="curve" smooth="yes"/>
      <point x="240" y="1456" type="line"/>
    </contour>
  </outline>
</glyph>
<glyph name="hv" format="2">
  <advance width="1471"/>
  <unicode hex="0195"/>
  <outline>
    <contour>
      <point x="310" y="1536" type="line"/>
      <point x="133" y="1536" type="line"/>
      <point x="133" y="0" type="line"/>
      <point x="310" y="0" type="line"/>
    </contour>
    <contour>
      <point x="267" y="582" type="line"/>
      <point x="267" y="777"/>
      <point x="372" y="946"/>
      <point x="513" y="946" type="curve" smooth="yes"/>
      <point x="647" y="946"/>
      <point x="682" y="849"/>
      <point x="682" y="705" type="curve" smooth="yes"/>
      <point x="682" y="500" type="line"/>
      <point x="859" y="500" type="line"/>
      <point x="859" y="705" type="line" smooth="yes"/>
      <point x="859" y="930"/>
      <point x="792" y="1102"/>
      <point x="567" y="1102" type="curve" smooth="yes"/>
      <point x="343" y="1102"/>
      <point x="194" y="882"/>
      <point x="195" y="585" type="curve"/>
    </contour>
    <contour>
      <point x="1010" y="-20" type="curve" smooth="yes"/>
      <point x="1220" y="-20"/>
      <point x="1339" y="115"/>
      <point x="1339" y="445" type="curve" smooth="yes"/>
      <point x="1339" y="1082" type="line"/>
      <point x="1161" y="1082" type="line"/>
      <point x="1161" y="443" type="line" smooth="yes"/>
      <point x="1161" y="200"/>
      <point x="1084" y="137"/>
      <point x="1010" y="137" type="curve" smooth="yes"/>
      <point x="937" y="137"/>
      <point x="859" y="200"/>
      <point x="859" y="443" type="curve" smooth="yes"/>
      <point x="859" y="582" type="line"/>
      <point x="682" y="582" type="line"/>
      <point x="682" y="445" type="line" smooth="yes"/>
      <point x="682" y="115"/>
      <point x="801" y="-20"/>
    </contour>
  </outline>
</glyph>
<glyph name="Iota1" format="2">
  <advance width="606"/>
  <unicode hex="0196"/>
  <outline>
    <contour>
      <point x="330" y="1536" type="line"/>
      <point x="153" y="1536" type="line"/>
      <point x="153" y="341" type="line" smooth="yes"/>
      <point x="153" y="108"/>
      <point x="264" y="-20"/>
      <point x="446" y="-20" type="curve" smooth="yes"/>
      <point x="488" y="-20"/>
      <point x="527" y="-11"/>
      <point x="570" y="1" type="curve"/>
      <point x="547" y="143" type="line"/>
      <point x="530" y="137"/>
      <point x="505" y="132"/>
      <point x="475" y="132" type="curve" smooth="yes"/>
      <point x="380" y="132"/>
      <point x="330" y="210"/>
      <point x="330" y="341" type="curve" smooth="yes"/>
    </contour>
  </outline>
</glyph>
<glyph name="Khook" format="2">
  <advance width="1117"/>
  <unicode hex="0198"/>
  <outline>
    <contour>
      <point x="341" y="1456" type="line"/>
      <point x="157" y="1456" type="line"/>
      <point x="157" y="0" type="line"/>
      <point x="341" y="0" type="line"/>
    </contour>
    <contour>
      <point x="890" y="0" type="line"/>
      <point x="1109" y="0" type="line"/>
      <point x="571" y="863" type="line"/>
      <point x="461" y="710" type="line"/>
    </contour>
    <contour>
      <point x="701" y="1280" type="curve" smooth="yes"/>
      <point x="461" y="912" type="line"/>
      <point x="246" y="595" type="line"/>
      <point x="279" y="388" type="line"/>
      <point x="572" y="777" type="line"/>
      <point x="849" y="1194" type="line" smooth="yes"/>
      <point x="892" y="1260"/>
      <point x="915" y="1301"/>
      <point x="956" y="1301" type="curve" smooth="yes"/>
      <point x="994" y="1301"/>
      <point x="1019" y="1285"/>
      <point x="1041" y="1265" type="curve"/>
      <point x="1102" y="1397" type="line"/>
      <point x="1057" y="1442"/>
      <point x="1002" y="1476"/>
      <point x="936" y="1476" type="curve" smooth="yes"/>
      <point x="839" y="1476"/>
      <point x="782" y="1396"/>
    </contour>
  </outline>
</glyph>
<glyph name="khook" format="2">
  <advance width="923"/>
  <unicode hex="0199"/>
  <outline>
    <contour>
      <point x="311" y="1163" type="line"/>
      <point x="133" y="1163" type="line"/>
      <point x="133" y="0" type="line"/>
      <point x="311" y="0" type="line"/>
    </contour>
    <contour>
      <point x="860" y="1082" type="line"/>
      <point x="647" y="1082" type="line"/>
      <point x="390" y="726" type="line"/>
      <point x="226" y="500" type="line"/>
      <point x="237" y="303" type="line"/>
      <point x="475" y="577" type="line"/>
    </contour>
    <contour>
      <point x="698" y="0" type="line"/>
      <point x="905" y="0" type="line"/>
      <point x="485" y="681" type="line"/>
      <point x="394" y="516" type="line"/>
    </contour>
    <contour>
      <point x="311" y="1115" type="line"/>
      <point x="311" y="1255" type="line" smooth="yes"/>
      <point x="311" y="1377"/>
      <point x="360" y="1422"/>
      <point x="434" y="1422" type="curve" smooth="yes"/>
      <point x="445" y="1422"/>
      <point x="464" y="1419"/>
      <point x="477" y="1414" type="curve"/>
      <point x="477" y="1542" type="line"/>
      <point x="455" y="1551"/>
      <point x="419" y="1557"/>
      <point x="394" y="1557" type="curve" smooth="yes"/>
      <point x="258" y="1557"/>
      <point x="133" y="1450"/>
      <point x="133" y="1255" type="curve" smooth="yes"/>
      <point x="133" y="1115" type="line"/>
    </contour>
  </outline>
</glyph>
<glyph name="mcapturn" format="2">
  <advance width="1599"/>
  <unicode hex="019C"/>
  <outline>
    <contour>
      <point x="1262" y="216" type="line"/>
      <point x="1272" y="0" type="line"/>
      <point x="1438" y="0" type="line"/>
      <point x="1438" y="1456" type="line"/>
      <point x="1262" y="1456" type="line"/>
    </contour>
    <contour>
      <point x="1276" y="498" type="line"/>
      <point x="1276" y="297"/>
      <point x="1214" y="137"/>
      <point x="1040" y="137" type="curve" smooth="yes"/>
      <point x="966" y="137"/>
      <point x="888" y="200"/>
      <point x="888" y="443" type="curve"/>
      <point x="888" y="1456" type="line"/>
      <point x="711" y="1456" type="line"/>
      <point x="711" y="445" type="line"/>
      <point x="711" y="95"/>
      <point x="831" y="-20"/>
      <point x="1009" y="-20" type="curve" smooth="yes"/>
      <point x="1260" y="-20"/>
      <point x="1357" y="200"/>
      <point x="1357" y="500" type="curve"/>
    </contour>
    <contour>
      <point x="726" y="498" type="line"/>
      <point x="726" y="297"/>
      <point x="664" y="137"/>
      <point x="489" y="137" type="curve" smooth="yes"/>
      <point x="416" y="137"/>
      <point x="337" y="200"/>
      <point x="337" y="443" type="curve" smooth="yes"/>
      <point x="337" y="1456" type="line"/>
      <point x="161" y="1456" type="line"/>
      <point x="161" y="445" type="line" smooth="yes"/>
      <point x="161" y="97"/>
      <point x="278" y="-20"/>
      <point x="459" y="-20" type="curve" smooth="yes"/>
      <point x="709" y="-20"/>
      <point x="807" y="200"/>
      <point x="807" y="500" type="curve"/>
    </contour>
  </outline>
</glyph>
<glyph name="OI" format="2">
  <advance width="1520"/>
  <unicode hex="01A2"/>
  <outline>
    <contour>
      <point x="1065" y="739" type="line" name="hr00"/>
      <point x="890" y="739" type="line"/>
      <point x="890" y="245" type="line"/>
      <point x="858" y="201"/>
      <point x="806" y="137"/>
      <point x="641" y="137" type="curve" smooth="yes"/>
      <point x="412" y="137"/>
      <point x="298" y="352"/>
      <point x="298" y="672" type="curve" smooth="yes"/>
      <point x="298" y="774" type="line"/>
      <point x="117" y="772" type="line"/>
      <point x="117" y="672" type="line" smooth="yes"/>
      <point x="117" y="224"/>
      <point x="335" y="-20"/>
      <point x="633" y="-20" type="curve" smooth="yes"/>
      <point x="915" y="-20"/>
      <point x="1018" y="114"/>
      <point x="1065" y="193" type="curve"/>
    </contour>
    <contour>
      <point x="1065" y="1263" type="line"/>
      <point x="1018" y="1342"/>
      <point x="915" y="1476"/>
      <point x="633" y="1476" type="curve" smooth="yes"/>
      <point x="333" y="1476"/>
      <point x="117" y="1219"/>
      <point x="117" y="784" type="curve" smooth="yes"/>
      <point x="117" y="693" type="line"/>
      <point x="298" y="691" type="line"/>
      <point x="298" y="784" type="line" smooth="yes"/>
      <point x="298" y="1123"/>
      <point x="431" y="1319"/>
      <point x="633" y="1319" type="curve" smooth="yes"/>
      <point x="806" y="1319"/>
      <point x="858" y="1255"/>
      <point x="890" y="1211" type="curve"/>
      <point x="890" y="699" type="line"/>
      <point x="1065" y="699" type="line"/>
    </contour>
    <contour>
      <point x="1360" y="1456" type="line"/>
      <point x="1223" y="1456" type="line"/>
      <point x="984" y="1341" type="line"/>
      <point x="984" y="1180" type="line"/>
      <point x="1183" y="1270" type="line"/>
      <point x="1183" y="-416" type="line"/>
      <point x="1360" y="-416" type="line"/>
    </contour>
  </outline>
</glyph>
<glyph name="oi" format="2">
  <advance width="1219"/>
  <unicode hex="01A3"/>
  <outline>
    <contour>
      <point x="507" y="131" type="curve" smooth="yes"/>
      <point x="360" y="131"/>
      <point x="273" y="277"/>
      <point x="273" y="520" type="curve" smooth="yes"/>
      <point x="273" y="562" type="line" smooth="yes"/>
      <point x="273" y="750"/>
      <point x="322" y="950"/>
      <point x="508" y="950" type="curve"/>
      <point x="555" y="950"/>
      <point x="593" y="932"/>
      <point x="625" y="901" type="curve"/>
      <point x="625" y="508" type="line"/>
      <point x="801" y="508" type="line"/>
      <point x="801" y="952" type="line"/>
      <point x="738" y="1044"/>
      <point x="637" y="1102"/>
      <point x="508" y="1102" type="curve" smooth="yes"/>
      <point x="227" y="1102"/>
      <point x="97" y="852"/>
      <point x="97" y="562" type="curve" smooth="yes"/>
      <point x="97" y="520" type="line" smooth="yes"/>
      <point x="97" y="230"/>
      <point x="226" y="-20"/>
      <point x="507" y="-20" type="curve"/>
      <point x="626" y="-20"/>
      <point x="734" y="42"/>
      <point x="801" y="133" type="curve"/>
      <point x="801" y="544" type="line"/>
      <point x="625" y="544" type="line"/>
      <point x="625" y="178" type="line"/>
      <point x="591" y="148"/>
      <point x="551" y="131"/>
    </contour>
    <contour>
      <point x="1080" y="1082" type="line"/>
      <point x="939" y="1082" type="line"/>
      <point x="717" y="949" type="line"/>
      <point x="717" y="713" type="line"/>
      <point x="903" y="837" type="line"/>
      <point x="903" y="-416" type="line"/>
      <point x="1080" y="-416" type="line"/>
    </contour>
  </outline>
</glyph>
<glyph name="YR" format="2">
  <advance width="1229"/>
  <unicode hex="01A6"/>
  <outline>
    <contour>
      <point x="158" y="1360" type="line" name="hr00"/>
      <point x="342" y="1360" type="line"/>
      <point x="342" y="1558" type="line"/>
      <point x="158" y="1558" type="line"/>
    </contour>
    <contour>
      <point x="158" y="1456" type="line"/>
      <point x="158" y="0" type="line"/>
      <point x="342" y="0" type="line"/>
      <point x="342" y="1298" type="line"/>
      <point x="566" y="1298" type="line" smooth="yes"/>
      <point x="746" y="1298"/>
      <point x="816" y="1187"/>
      <point x="816" y="1019" type="curve" smooth="yes"/>
      <point x="816" y="868"/>
      <point x="731" y="747"/>
      <point x="564" y="747" type="curve" smooth="yes"/>
      <point x="302" y="747" type="line"/>
      <point x="304" y="590" type="line"/>
      <point x="668" y="590" type="line"/>
      <point x="717" y="611" type="line"/>
      <point x="896" y="666"/>
      <point x="999" y="818"/>
      <point x="999" y="1019" type="curve" smooth="yes"/>
      <point x="999" y="1303"/>
      <point x="848" y="1456"/>
      <point x="566" y="1456" type="curve" smooth="yes"/>
    </contour>
    <contour>
      <point x="1018" y="-359" type="line"/>
      <point x="1215" y="-359" type="line"/>
      <point x="1215" y="-347" type="line"/>
      <point x="758" y="661" type="line"/>
      <point x="567" y="660" type="line"/>
    </contour>
  </outline>
</glyph>
<glyph name="eshlooprev" format="2">
  <advance width="842"/>
  <unicode hex="01AA"/>
  <outline>
    <contour>
      <point x="432" y="1138" type="line" name="hr00"/>
      <point x="432" y="-61" type="line" smooth="yes"/>
      <point x="432" y="-286"/>
      <point x="509" y="-409"/>
      <point x="670" y="-409" type="curve" smooth="yes"/>
      <point x="698" y="-409"/>
      <point x="742" y="-402"/>
      <point x="767" y="-392" type="curve"/>
      <point x="768" y="-244" type="line"/>
      <point x="751" y="-250"/>
      <point x="730" y="-252"/>
      <point x="717" y="-252" type="curve" smooth="yes"/>
      <point x="648" y="-252"/>
      <point x="609" y="-201"/>
      <point x="609" y="-61" type="curve" smooth="yes"/>
      <point x="609" y="1221" type="line"/>
    </contour>
    <contour>
      <point x="36" y="1221" type="curve" smooth="yes"/>
      <point x="36" y="1032"/>
      <point x="164" y="882"/>
      <point x="322" y="882" type="curve" smooth="yes"/>
      <point x="481" y="882"/>
      <point x="609" y="1034"/>
      <point x="609" y="1221" type="curve" smooth="yes"/>
      <point x="609" y="1410"/>
      <point x="481" y="1562"/>
      <point x="322" y="1562" type="curve" smooth="yes"/>
      <point x="163" y="1562"/>
      <point x="36" y="1411"/>
    </contour>
    <contour>
      <point x="323" y="1053" type="curve" smooth="yes"/>
      <point x="255" y="1053"/>
      <point x="201" y="1112"/>
      <point x="201" y="1222" type="curve" smooth="yes"/>
      <point x="201" y="1334"/>
      <point x="255" y="1394"/>
      <point x="323" y="1394" type="curve" smooth="yes"/>
      <point x="391" y="1394"/>
      <point x="442" y="1334"/>
      <point x="442" y="1223" type="curve" smooth="yes"/>
      <point x="442" y="1112"/>
      <point x="391" y="1053"/>
    </contour>
  </outline>
</glyph>
<glyph name="tpalatalhook" format="2">
  <advance width="606"/>
  <unicode hex="01AB"/>
  <outline>
    <contour>
      <point x="407" y="78" type="line"/>
      <point x="407" y="-64" type="line" smooth="yes"/>
      <point x="407" y="-186"/>
      <point x="358" y="-231"/>
      <point x="284" y="-231" type="curve" smooth="yes"/>
      <point x="273" y="-231"/>
      <point x="254" y="-228"/>
      <point x="241" y="-223" type="curve"/>
      <point x="242" y="-351" type="line"/>
      <point x="263" y="-360"/>
      <point x="300" y="-366"/>
      <point x="324" y="-366" type="curve" smooth="yes"/>
      <point x="460" y="-366"/>
      <point x="527" y="-259"/>
      <point x="527" y="-64" type="curve" smooth="yes"/>
      <point x="527" y="1" type="line"/>
    </contour>
    <component base="t"/>
  </outline>
</glyph>
<glyph name="thook" format="2">
  <advance width="616"/>
  <unicode hex="01AD"/>
  <outline>
    <contour>
      <point x="379" y="1115" type="line"/>
      <point x="379" y="1260" type="line" smooth="yes"/>
      <point x="379" y="1381"/>
      <point x="429" y="1427"/>
      <point x="504" y="1427" type="curve" smooth="yes"/>
      <point x="515" y="1427"/>
      <point x="533" y="1424"/>
      <point x="547" y="1419" type="curve"/>
      <point x="546" y="1546" type="line"/>
      <point x="524" y="1556"/>
      <point x="487" y="1562"/>
      <point x="464" y="1562" type="curve" smooth="yes"/>
      <point x="326" y="1562"/>
      <point x="203" y="1454"/>
      <point x="203" y="1260" type="curve" smooth="yes"/>
      <point x="203" y="1115" type="line"/>
    </contour>
    <contour>
      <point x="542" y="1082" type="line"/>
      <point x="38" y="1082" type="line"/>
      <point x="38" y="940" type="line"/>
      <point x="542" y="940" type="line"/>
    </contour>
    <contour>
      <point x="203" y="1142" type="line"/>
      <point x="203" y="297" type="line"/>
      <point x="203" y="67"/>
      <point x="303" y="-20"/>
      <point x="418" y="-20" type="curve" smooth="yes"/>
      <point x="479" y="-20"/>
      <point x="517" y="-9"/>
      <point x="541" y="0" type="curve"/>
      <point x="543" y="151" type="line"/>
      <point x="531" y="147"/>
      <point x="496" y="139"/>
      <point x="472" y="139" type="curve" smooth="yes"/>
      <point x="425" y="139"/>
      <point x="379" y="170"/>
      <point x="379" y="296" type="curve"/>
      <point x="379" y="1142" type="line"/>
    </contour>
  </outline>
</glyph>
<glyph name="Trthook" format="2">
  <advance width="1066"/>
  <unicode hex="01AE"/>
  <outline>
    <contour>
      <point x="1008" y="1456" type="line"/>
      <point x="61" y="1456" type="line"/>
      <point x="61" y="1298" type="line"/>
      <point x="1008" y="1298" type="line"/>
    </contour>
    <contour>
      <point x="814" y="-420" type="curve"/>
      <point x="803" y="-265" type="line"/>
      <point x="784" y="-270"/>
      <point x="741" y="-278"/>
      <point x="720" y="-278" type="curve" smooth="yes"/>
      <point x="658" y="-278"/>
      <point x="625" y="-212"/>
      <point x="625" y="-89" type="curve" smooth="yes"/>
      <point x="625" y="1456" type="line"/>
      <point x="443" y="1456" type="line"/>
      <point x="443" y="-89" type="line" smooth="yes"/>
      <point x="443" y="-314"/>
      <point x="547" y="-437"/>
      <point x="720" y="-437" type="curve" smooth="yes"/>
      <point x="754" y="-437"/>
      <point x="782" y="-433"/>
    </contour>
  </outline>
</glyph>
<glyph name="Uhorn" format="2">
  <advance width="1246"/>
  <unicode hex="01AF"/>
  <anchor x="608" y="1612" name="top"/>
  <anchor x="608" y="-9" name="bottom"/>
  <anchor x="1226" y="1612" name="top0315"/>
  <outline>
    <contour>
      <point x="1201" y="1538" type="line"/>
      <point x="1201" y="1344"/>
      <point x="1154" y="1242"/>
      <point x="983" y="1242" type="curve"/>
      <point x="983" y="1107" type="line"/>
      <point x="1248" y="1107"/>
      <point x="1350" y="1256"/>
      <point x="1350" y="1538" type="curve"/>
    </contour>
    <component base="U"/>
  </outline>
</glyph>
<glyph name="uhorn" format="2">
  <advance width="1126"/>
  <unicode hex="01B0"/>
  <anchor x="447" y="0" name="bottomu"/>
  <anchor x="507" y="1269" name="top"/>
  <anchor x="882" y="0" name="right"/>
  <anchor x="1106" y="1269" name="top0315"/>
  <anchor x="493" y="0" name="bottom"/>
  <outline>
    <contour>
      <point x="993" y="1169" type="line"/>
      <point x="993" y="1017"/>
      <point x="992" y="952"/>
      <point x="842" y="952" type="curve"/>
      <point x="842" y="838" type="line"/>
      <point x="1066" y="838"/>
      <point x="1126" y="950"/>
      <point x="1126" y="1169" type="curve"/>
    </contour>
    <component base="u"/>
  </outline>
</glyph>
<glyph name="Upsilon2" format="2">
  <advance width="1183"/>
  <unicode hex="01B1"/>
  <outline>
    <contour>
      <point x="304" y="729" type="line"/>
      <point x="304" y="1069"/>
      <point x="391" y="1256"/>
      <point x="541" y="1292" type="curve"/>
      <point x="541" y="1433" type="line"/>
      <point x="288" y="1396"/>
      <point x="117" y="1066"/>
      <point x="117" y="729" type="curve" smooth="yes"/>
      <point x="117" y="615" type="line" smooth="yes"/>
      <point x="117" y="237"/>
      <point x="311" y="-21"/>
      <point x="594" y="-21" type="curve" smooth="yes"/>
      <point x="875" y="-21"/>
      <point x="1066" y="237"/>
      <point x="1066" y="615" type="curve" smooth="yes"/>
      <point x="1066" y="729" type="line" smooth="yes"/>
      <point x="1066" y="1067"/>
      <point x="894" y="1398"/>
      <point x="637" y="1433" type="curve"/>
      <point x="637" y="1292" type="line"/>
      <point x="789" y="1257"/>
      <point x="879" y="1071"/>
      <point x="879" y="729" type="curve" smooth="yes"/>
      <point x="879" y="613" type="line" smooth="yes"/>
      <point x="879" y="302"/>
      <point x="769" y="136"/>
      <point x="594" y="136" type="curve" smooth="yes"/>
      <point x="415" y="136"/>
      <point x="304" y="302"/>
      <point x="304" y="613" type="curve" smooth="yes"/>
    </contour>
    <contour>
      <point x="541" y="1456" type="line"/>
      <point x="128" y="1456" type="line"/>
      <point x="128" y="1298" type="line"/>
      <point x="541" y="1298" type="line"/>
    </contour>
    <contour>
      <point x="1058" y="1456" type="line"/>
      <point x="637" y="1456" type="line"/>
      <point x="637" y="1298" type="line"/>
      <point x="1058" y="1298" type="line"/>
    </contour>
  </outline>
</glyph>
<glyph name="Vcursive" format="2">
  <advance width="1154"/>
  <unicode hex="01B2"/>
  <outline>
    <contour>
      <point x="575" y="-20" type="curve" smooth="yes"/>
      <point x="813" y="-20"/>
      <point x="1025" y="143"/>
      <point x="1025" y="471" type="curve" smooth="yes"/>
      <point x="1025" y="1128" type="line" smooth="yes"/>
      <point x="1025" y="1353"/>
      <point x="910" y="1476"/>
      <point x="749" y="1476" type="curve" smooth="yes"/>
      <point x="721" y="1476"/>
      <point x="677" y="1469"/>
      <point x="651" y="1459" type="curve"/>
      <point x="650" y="1307" type="line"/>
      <point x="667" y="1314"/>
      <point x="689" y="1316"/>
      <point x="702" y="1316" type="curve" smooth="yes"/>
      <point x="792" y="1316"/>
      <point x="840" y="1263"/>
      <point x="840" y="1128" type="curve" smooth="yes"/>
      <point x="840" y="471" type="line" smooth="yes"/>
      <point x="840" y="243"/>
      <point x="737" y="137"/>
      <point x="575" y="137" type="curve" smooth="yes"/>
      <point x="417" y="137"/>
      <point x="311" y="243"/>
      <point x="311" y="471" type="curve" smooth="yes"/>
      <point x="311" y="1456" type="line"/>
      <point x="130" y="1456" type="line"/>
      <point x="130" y="471" type="line" smooth="yes"/>
      <point x="130" y="143"/>
      <point x="325" y="-20"/>
    </contour>
  </outline>
</glyph>
<glyph name="Yhook" format="2">
  <advance width="1172"/>
  <unicode hex="01B3"/>
  <outline>
    <contour>
      <point x="461" y="580" type="line"/>
      <point x="499" y="507" type="line"/>
      <point x="610" y="507" type="line"/>
      <point x="842" y="1041" type="line" smooth="yes"/>
      <point x="929" y="1220"/>
      <point x="944" y="1301"/>
      <point x="1018" y="1301" type="curve" smooth="yes"/>
      <point x="1056" y="1301"/>
      <point x="1081" y="1285"/>
      <point x="1103" y="1265" type="curve"/>
      <point x="1165" y="1397" type="line"/>
      <point x="1118" y="1444"/>
      <point x="1056" y="1476"/>
      <point x="987" y="1476" type="curve" smooth="yes"/>
      <point x="846" y="1476"/>
      <point x="788" y="1347"/>
      <point x="687" y="1123" type="curve" smooth="yes"/>
    </contour>
    <contour>
      <point x="239" y="1456" type="line"/>
      <point x="30" y="1456" type="line"/>
      <point x="464" y="507" type="line"/>
      <point x="567" y="507" type="line"/>
      <point x="613" y="577" type="line"/>
    </contour>
    <contour>
      <point x="628" y="676" type="line"/>
      <point x="444" y="676" type="line"/>
      <point x="444" y="0" type="line"/>
      <point x="628" y="0" type="line"/>
    </contour>
  </outline>
</glyph>
<glyph name="yhook" format="2">
  <advance width="1061"/>
  <unicode hex="01B4"/>
  <outline>
    <contour>
      <point x="385" y="117" type="line"/>
      <point x="324" y="-94" type="line" smooth="yes"/>
      <point x="281" y="-233"/>
      <point x="229" y="-275"/>
      <point x="126" y="-275" type="curve" smooth="yes"/>
      <point x="120" y="-275"/>
      <point x="97" y="-273"/>
      <point x="88" y="-271" type="curve"/>
      <point x="89" y="-421" type="line"/>
      <point x="106" y="-426"/>
      <point x="156" y="-437"/>
      <point x="180" y="-437" type="curve" smooth="yes"/>
      <point x="345" y="-437"/>
      <point x="426" y="-275"/>
      <point x="456" y="-167" type="curve" smooth="yes"/>
      <point x="768" y="983" type="line" smooth="yes"/>
      <point x="815" y="1143"/>
      <point x="846" y="1228"/>
      <point x="922" y="1228" type="curve" smooth="yes"/>
      <point x="954" y="1228"/>
      <point x="990" y="1210"/>
      <point x="1023" y="1187" type="curve"/>
      <point x="1062" y="1303" type="line"/>
      <point x="1021" y="1343"/>
      <point x="959" y="1373"/>
      <point x="898" y="1373" type="curve" smooth="yes"/>
      <point x="703" y="1373"/>
      <point x="658" y="1184"/>
      <point x="622" y="1047" type="curve" smooth="yes"/>
    </contour>
    <contour>
      <point x="228" y="1082" type="line"/>
      <point x="35" y="1082" type="line"/>
      <point x="362" y="-21" type="line"/>
      <point x="487" y="47" type="line"/>
      <point x="411" y="363" type="line"/>
    </contour>
  </outline>
</glyph>
<glyph name="uni01B7" format="2">
  <advance width="1155"/>
  <unicode hex="01B7"/>
  <outline>
    <contour>
      <point x="87" y="64" type="line"/>
      <point x="114" y="-209"/>
      <point x="251" y="-418"/>
      <point x="554" y="-418" type="curve" smooth="yes"/>
      <point x="842" y="-418"/>
      <point x="1039" y="-245"/>
      <point x="1039" y="161" type="curve" smooth="yes"/>
      <point x="1039" y="568"/>
      <point x="844" y="740"/>
      <point x="536" y="740" type="curve" smooth="yes"/>
      <point x="364" y="740" type="line"/>
      <point x="364" y="589" type="line"/>
      <point x="536" y="589" type="line" smooth="yes"/>
      <point x="752" y="589"/>
      <point x="855" y="472"/>
      <point x="855" y="161" type="curve" smooth="yes"/>
      <point x="855" y="-124"/>
      <point x="770" y="-261"/>
      <point x="554" y="-261" type="curve" smooth="yes"/>
      <point x="347" y="-261"/>
      <point x="299" y="-144"/>
      <point x="271" y="64" type="curve"/>
    </contour>
    <contour>
      <point x="974" y="1319" type="line"/>
      <point x="974" y="1456" type="line"/>
      <point x="894" y="1456" type="line"/>
      <point x="348" y="732" type="line"/>
      <point x="348" y="589" type="line"/>
      <point x="427" y="589" type="line"/>
    </contour>
    <contour>
      <point x="898" y="1456" type="line"/>
      <point x="120" y="1456" type="line"/>
      <point x="120" y="1298" type="line"/>
      <point x="898" y="1298" type="line"/>
    </contour>
  </outline>
</glyph>
<glyph name="uni01B8" format="2">
  <advance width="1155"/>
  <unicode hex="01B8"/>
  <outline>
    <contour>
      <point x="884" y="64" type="line"/>
      <point x="856" y="-144"/>
      <point x="809" y="-261"/>
      <point x="602" y="-261" type="curve" smooth="yes"/>
      <point x="385" y="-261"/>
      <point x="300" y="-124"/>
      <point x="300" y="161" type="curve" smooth="yes"/>
      <point x="300" y="472"/>
      <point x="403" y="589"/>
      <point x="620" y="589" type="curve" smooth="yes"/>
      <point x="791" y="589" type="line"/>
      <point x="791" y="740" type="line"/>
      <point x="620" y="740" type="line" smooth="yes"/>
      <point x="311" y="740"/>
      <point x="116" y="568"/>
      <point x="116" y="161" type="curve" smooth="yes"/>
      <point x="116" y="-245"/>
      <point x="313" y="-418"/>
      <point x="602" y="-418" type="curve" smooth="yes"/>
      <point x="904" y="-418"/>
      <point x="1042" y="-209"/>
      <point x="1069" y="64" type="curve"/>
    </contour>
    <contour>
      <point x="728" y="589" type="line"/>
      <point x="807" y="589" type="line"/>
      <point x="807" y="732" type="line"/>
      <point x="262" y="1456" type="line"/>
      <point x="181" y="1456" type="line"/>
      <point x="181" y="1319" type="line"/>
    </contour>
    <contour>
      <point x="258" y="1298" type="line"/>
      <point x="1036" y="1298" type="line"/>
      <point x="1036" y="1456" type="line"/>
      <point x="258" y="1456" type="line"/>
    </contour>
  </outline>
</glyph>
<glyph name="uni01B9" format="2">
  <advance width="1009"/>
  <unicode hex="01B9"/>
  <outline>
    <contour>
      <point x="152" y="1082" type="line"/>
      <point x="152" y="964" type="line"/>
      <point x="559" y="361" type="line"/>
      <point x="674" y="361" type="line"/>
      <point x="674" y="477" type="line"/>
      <point x="380" y="929" type="line"/>
      <point x="882" y="929" type="line"/>
      <point x="882" y="1082" type="line"/>
    </contour>
    <contour>
      <point x="540" y="472" type="line"/>
      <point x="265" y="472"/>
      <point x="105" y="315"/>
      <point x="105" y="31" type="curve" smooth="yes"/>
      <point x="105" y="-240"/>
      <point x="280" y="-395"/>
      <point x="524" y="-395" type="curve" smooth="yes"/>
      <point x="718" y="-395"/>
      <point x="921" y="-268"/>
      <point x="921" y="29" type="curve"/>
      <point x="745" y="29" type="line"/>
      <point x="745" y="-120"/>
      <point x="657" y="-243"/>
      <point x="524" y="-243" type="curve" smooth="yes"/>
      <point x="370" y="-243"/>
      <point x="281" y="-130"/>
      <point x="281" y="27" type="curve" smooth="yes"/>
      <point x="281" y="239"/>
      <point x="371" y="326"/>
      <point x="544" y="326" type="curve" smooth="yes"/>
      <point x="674" y="326" type="line"/>
      <point x="674" y="472" type="line"/>
    </contour>
  </outline>
</glyph>
<glyph name="uni01BA" format="2">
  <advance width="972"/>
  <unicode hex="01BA"/>
  <outline>
    <contour>
      <point x="130" y="1082" type="line" name="hr00"/>
      <point x="130" y="930" type="line"/>
      <point x="617" y="930" type="line"/>
      <point x="290" y="624" type="line"/>
      <point x="290" y="506" type="line"/>
      <point x="431" y="506" type="line"/>
      <point x="867" y="966" type="line"/>
      <point x="866" y="1082" type="line"/>
    </contour>
    <contour>
      <point x="259" y="-130" type="curve" smooth="yes"/>
      <point x="259" y="-48"/>
      <point x="292" y="8"/>
      <point x="451" y="52" type="curve" smooth="yes"/>
      <point x="652" y="105"/>
      <point x="785" y="180"/>
      <point x="785" y="369" type="curve" smooth="yes"/>
      <point x="785" y="540"/>
      <point x="650" y="657"/>
      <point x="443" y="657" type="curve" smooth="yes"/>
      <point x="389" y="657" type="line"/>
      <point x="390" y="506" type="line"/>
      <point x="443" y="506" type="line" smooth="yes"/>
      <point x="562" y="506"/>
      <point x="609" y="453"/>
      <point x="609" y="375" type="curve" smooth="yes"/>
      <point x="609" y="282"/>
      <point x="569" y="244"/>
      <point x="426" y="205" type="curve" smooth="yes"/>
      <point x="200" y="149"/>
      <point x="82" y="58"/>
      <point x="82" y="-116" type="curve" smooth="yes"/>
      <point x="82" y="-306"/>
      <point x="225" y="-437"/>
      <point x="439" y="-437" type="curve" smooth="yes"/>
      <point x="685" y="-437"/>
      <point x="817" y="-262"/>
      <point x="817" y="-83" type="curve"/>
      <point x="640" y="-83" type="line"/>
      <point x="634" y="-236"/>
      <point x="530" y="-285"/>
      <point x="439" y="-285" type="curve" smooth="yes"/>
      <point x="323" y="-285"/>
      <point x="259" y="-219"/>
    </contour>
  </outline>
</glyph>
<glyph name="tonefive" format="2">
  <advance width="901"/>
  <unicode hex="01BD"/>
  <outline>
    <contour>
      <point x="303" y="474" type="line" name="hr00"/>
      <point x="333" y="532"/>
      <point x="381" y="585"/>
      <point x="472" y="585" type="curve" smooth="yes"/>
      <point x="593" y="585"/>
      <point x="654" y="494"/>
      <point x="654" y="360" type="curve" smooth="yes"/>
      <point x="654" y="228"/>
      <point x="599" y="135"/>
      <point x="467" y="135" type="curve" smooth="yes"/>
      <point x="361" y="135"/>
      <point x="286" y="209"/>
      <point x="286" y="321" type="curve"/>
      <point x="116" y="306" type="line"/>
      <point x="116" y="86"/>
      <point x="313" y="-16"/>
      <point x="467" y="-16" type="curve" smooth="yes"/>
      <point x="726" y="-16"/>
      <point x="831" y="148"/>
      <point x="831" y="362" type="curve" smooth="yes"/>
      <point x="831" y="601"/>
      <point x="711" y="740"/>
      <point x="505" y="736" type="curve"/>
      <point x="447" y="734"/>
      <point x="372" y="703"/>
      <point x="334" y="671" type="curve"/>
      <point x="359" y="920" type="line"/>
      <point x="783" y="920" type="line"/>
      <point x="783" y="1082" type="line"/>
      <point x="209" y="1082" type="line"/>
      <point x="152" y="487" type="line"/>
    </contour>
    <contour>
      <point x="313" y="1082" type="line"/>
      <point x="53" y="1082" type="line"/>
      <point x="53" y="920" type="line"/>
      <point x="313" y="920" type="line"/>
    </contour>
  </outline>
</glyph>
<glyph name="glottalstopbarinv" format="2">
  <advance width="939"/>
  <unicode hex="01BE"/>
  <outline>
    <contour>
      <point x="659" y="287" type="curve" smooth="yes"/>
      <point x="659" y="198"/>
      <point x="595" y="132"/>
      <point x="478" y="132" type="curve" smooth="yes"/>
      <point x="388" y="132"/>
      <point x="284" y="181"/>
      <point x="277" y="334" type="curve"/>
      <point x="101" y="334" type="line"/>
      <point x="101" y="155"/>
      <point x="233" y="-20"/>
      <point x="478" y="-20" type="curve" smooth="yes"/>
      <point x="694" y="-20"/>
      <point x="835" y="111"/>
      <point x="835" y="301" type="curve" smooth="yes"/>
      <point x="835" y="603"/>
      <point x="534" y="532"/>
      <point x="534" y="791" type="curve" smooth="yes"/>
      <point x="534" y="1345" type="line"/>
      <point x="357" y="1345" type="line"/>
      <point x="357" y="786" type="line" smooth="yes"/>
      <point x="357" y="450"/>
      <point x="659" y="488"/>
    </contour>
    <contour>
      <point x="697" y="1082" type="line"/>
      <point x="192" y="1082" type="line"/>
      <point x="192" y="940" type="line"/>
      <point x="697" y="940" type="line"/>
    </contour>
  </outline>
</glyph>
<glyph name="wynn" format="2">
  <advance width="1011"/>
  <unicode hex="01BF"/>
  <outline>
    <contour>
      <point x="310" y="874" type="line"/>
      <point x="293" y="1082" type="line"/>
      <point x="133" y="1082" type="line"/>
      <point x="133" y="-416" type="line"/>
      <point x="310" y="-416" type="line"/>
    </contour>
    <contour>
      <point x="264" y="659" type="line"/>
      <point x="289" y="806"/>
      <point x="361" y="946"/>
      <point x="503" y="946" type="curve" smooth="yes"/>
      <point x="667" y="946"/>
      <point x="738" y="768"/>
      <point x="738" y="555" type="curve" smooth="yes"/>
      <point x="738" y="534" type="line" smooth="yes"/>
      <point x="738" y="209"/>
      <point x="531" y="61"/>
      <point x="253" y="-19" type="curve"/>
      <point x="253" y="-171" type="line"/>
      <point x="663" y="-39"/>
      <point x="915" y="119"/>
      <point x="915" y="534" type="curve" smooth="yes"/>
      <point x="915" y="555" type="line" smooth="yes"/>
      <point x="915" y="883"/>
      <point x="789" y="1102"/>
      <point x="557" y="1102" type="curve" smooth="yes"/>
      <point x="323" y="1102"/>
      <point x="204" y="905"/>
      <point x="180" y="586" type="curve"/>
    </contour>
  </outline>
</glyph>
<glyph name="uni01C5" format="2">
  <advance width="1928"/>
  <unicode hex="01C5"/>
  <outline>
    <contour>
      <point x="1847" y="152" type="line"/>
      <point x="1192" y="152" type="line"/>
      <point x="1192" y="0" type="line"/>
      <point x="1847" y="0" type="line"/>
    </contour>
    <contour>
      <point x="1827" y="951" type="line"/>
      <point x="1827" y="1082" type="line"/>
      <point x="1714" y="1082" type="line"/>
      <point x="1124" y="136" type="line"/>
      <point x="1124" y="0" type="line"/>
      <point x="1231" y="0" type="line"/>
    </contour>
    <contour>
      <point x="1749" y="1082" type="line"/>
      <point x="1128" y="1082" type="line"/>
      <point x="1128" y="929" type="line"/>
      <point x="1749" y="929" type="line"/>
    </contour>
    <contour>
      <point x="1362" y="1515" type="line"/>
      <point x="1215" y="1515" type="line"/>
      <point x="1215" y="1494" type="line"/>
      <point x="1431" y="1252" type="line"/>
      <point x="1534" y="1252" type="line"/>
      <point x="1753" y="1497" type="line"/>
      <point x="1753" y="1515" type="line"/>
      <point x="1603" y="1515" type="line"/>
      <point x="1482" y="1365" type="line"/>
    </contour>
    <component base="D"/>
  </outline>
</glyph>
<glyph name="uni01C6" format="2">
  <advance width="1770"/>
  <unicode hex="01C6"/>
  <outline>
    <contour>
      <point x="699" y="210" type="line"/>
      <point x="724" y="0" type="line"/>
      <point x="877" y="0" type="line"/>
      <point x="877" y="1560" type="line"/>
      <point x="699" y="1560" type="line"/>
    </contour>
    <contour>
      <point x="95" y="529" type="line"/>
      <point x="95" y="213"/>
      <point x="243" y="-20"/>
      <point x="457" y="-20" type="curve" smooth="yes"/>
      <point x="691" y="-20"/>
      <point x="803" y="177"/>
      <point x="827" y="494" type="curve"/>
      <point x="827" y="586" type="line"/>
      <point x="804" y="905"/>
      <point x="692" y="1102"/>
      <point x="458" y="1102" type="curve" smooth="yes"/>
      <point x="241" y="1102"/>
      <point x="95" y="880"/>
      <point x="95" y="550" type="curve" smooth="yes"/>
    </contour>
    <contour>
      <point x="273" y="550" type="line"/>
      <point x="273" y="765"/>
      <point x="340" y="946"/>
      <point x="504" y="946" type="curve" smooth="yes"/>
      <point x="647" y="946"/>
      <point x="717" y="806"/>
      <point x="744" y="659" type="curve"/>
      <point x="744" y="418" type="line"/>
      <point x="709" y="268"/>
      <point x="649" y="137"/>
      <point x="503" y="137" type="curve" smooth="yes"/>
      <point x="340" y="137"/>
      <point x="273" y="314"/>
      <point x="273" y="529" type="curve" smooth="yes"/>
    </contour>
    <contour>
      <point x="1689" y="152" type="line"/>
      <point x="1034" y="152" type="line"/>
      <point x="1034" y="0" type="line"/>
      <point x="1689" y="0" type="line"/>
    </contour>
    <contour>
      <point x="1669" y="951" type="line"/>
      <point x="1669" y="1082" type="line"/>
      <point x="1557" y="1082" type="line"/>
      <point x="966" y="136" type="line"/>
      <point x="966" y="0" type="line"/>
      <point x="1073" y="0" type="line"/>
    </contour>
    <contour>
      <point x="1591" y="1082" type="line"/>
      <point x="970" y="1082" type="line"/>
      <point x="970" y="929" type="line"/>
      <point x="1591" y="929" type="line"/>
    </contour>
    <contour>
      <point x="1204" y="1515" type="line"/>
      <point x="1057" y="1515" type="line"/>
      <point x="1057" y="1494" type="line"/>
      <point x="1273" y="1252" type="line"/>
      <point x="1376" y="1252" type="line"/>
      <point x="1595" y="1497" type="line"/>
      <point x="1595" y="1515" type="line"/>
      <point x="1445" y="1515" type="line"/>
      <point x="1324" y="1365" type="line"/>
    </contour>
  </outline>
</glyph>
<glyph name="gbar" format="2">
  <advance width="1010"/>
  <unicode hex="01E5"/>
  <anchor x="498" y="-484" name="markbottom"/>
  <anchor x="498" y="1290" name="top"/>
  <anchor x="498" y="-484" name="bottom"/>
  <anchor x="497" y="-116" name="parenthesses.w3"/>
  <anchor x="990" y="1290" name="top0315"/>
  <outline>
    <contour>
      <point x="974" y="-54" type="line" name="hr00"/>
      <point x="44" y="-54" type="line"/>
      <point x="44" y="-169" type="line"/>
      <point x="974" y="-169" type="line"/>
    </contour>
    <contour>
      <point x="732" y="1082" type="line"/>
      <point x="714" y="844" type="line"/>
      <point x="714" y="-50" type="line" smooth="yes"/>
      <point x="714" y="-239"/>
      <point x="621" y="-340"/>
      <point x="485" y="-340" type="curve" smooth="yes"/>
      <point x="408" y="-340"/>
      <point x="321" y="-304"/>
      <point x="244" y="-193" type="curve"/>
      <point x="154" y="-304" type="line"/>
      <point x="239" y="-445"/>
      <point x="411" y="-491"/>
      <point x="497" y="-491" type="curve" smooth="yes"/>
      <point x="728" y="-491"/>
      <point x="891" y="-328"/>
      <point x="891" y="-41" type="curve" smooth="yes"/>
      <point x="891" y="1082" type="line"/>
    </contour>
    <contour>
      <point x="110" y="529" type="line"/>
      <point x="110" y="213"/>
      <point x="252" y="-20"/>
      <point x="470" y="-20" type="curve" smooth="yes"/>
      <point x="706" y="-20"/>
      <point x="817" y="177"/>
      <point x="842" y="494" type="curve"/>
      <point x="842" y="586" type="line"/>
      <point x="817" y="905"/>
      <point x="706" y="1102"/>
      <point x="471" y="1102" type="curve" smooth="yes"/>
      <point x="249" y="1102"/>
      <point x="110" y="880"/>
      <point x="110" y="550" type="curve" smooth="yes"/>
    </contour>
    <contour>
      <point x="287" y="550" type="line"/>
      <point x="287" y="765"/>
      <point x="354" y="946"/>
      <point x="518" y="946" type="curve" smooth="yes"/>
      <point x="661" y="946"/>
      <point x="731" y="806"/>
      <point x="757" y="659" type="curve"/>
      <point x="757" y="418" type="line"/>
      <point x="723" y="268"/>
      <point x="664" y="137"/>
      <point x="516" y="137" type="curve" smooth="yes"/>
      <point x="354" y="137"/>
      <point x="287" y="314"/>
      <point x="287" y="529" type="curve" smooth="yes"/>
    </contour>
  </outline>
</glyph>
<glyph name="uni01F6" format="2">
  <advance width="1904"/>
  <unicode hex="01F6"/>
  <outline>
    <contour>
      <point x="947" y="830" type="line"/>
      <point x="316" y="830" type="line"/>
      <point x="316" y="673" type="line"/>
      <point x="947" y="673" type="line"/>
    </contour>
    <contour>
      <point x="341" y="1456" type="line"/>
      <point x="157" y="1456" type="line"/>
      <point x="157" y="0" type="line"/>
      <point x="341" y="0" type="line"/>
    </contour>
    <contour>
      <point x="1110" y="1456" type="line"/>
      <point x="927" y="1456" type="line"/>
      <point x="927" y="500" type="line"/>
      <point x="1110" y="500" type="line"/>
    </contour>
    <contour>
      <point x="1597" y="1081" type="line"/>
      <point x="1597" y="465" type="line" smooth="yes"/>
      <point x="1597" y="242"/>
      <point x="1514" y="137"/>
      <point x="1352" y="137" type="curve" smooth="yes"/>
      <point x="1191" y="137"/>
      <point x="1110" y="242"/>
      <point x="1110" y="465" type="curve" smooth="yes"/>
      <point x="1110" y="565" type="line"/>
      <point x="927" y="565" type="line"/>
      <point x="927" y="465" type="line" smooth="yes"/>
      <point x="927" y="142"/>
      <point x="1100" y="-20"/>
      <point x="1352" y="-20" type="curve" smooth="yes"/>
      <point x="1590" y="-20"/>
      <point x="1780" y="142"/>
      <point x="1780" y="465" type="curve" smooth="yes"/>
      <point x="1780" y="1081" type="line"/>
    </contour>
  </outline>
</glyph>
<glyph name="uni01F7" format="2">
  <advance width="1173"/>
  <unicode hex="01F7"/>
  <outline>
    <contour>
      <point x="341" y="1456" type="line"/>
      <point x="157" y="1456" type="line"/>
      <point x="157" y="-418" type="line"/>
      <point x="341" y="-418" type="line"/>
    </contour>
    <contour>
      <point x="244" y="-170" type="line"/>
      <point x="696" y="-101"/>
      <point x="1054" y="310"/>
      <point x="1054" y="818" type="curve" smooth="yes"/>
      <point x="1054" y="871" type="line" smooth="yes"/>
      <point x="1054" y="1278"/>
      <point x="862" y="1476"/>
      <point x="552" y="1476" type="curve" smooth="yes"/>
      <point x="444" y="1476"/>
      <point x="356" y="1430"/>
      <point x="283" y="1347" type="curve"/>
      <point x="280" y="985" type="line"/>
      <point x="306" y="1190"/>
      <point x="370" y="1318"/>
      <point x="552" y="1318" type="curve" smooth="yes"/>
      <point x="770" y="1318"/>
      <point x="871" y="1182"/>
      <point x="871" y="873" type="curve" smooth="yes"/>
      <point x="871" y="818" type="line" smooth="yes"/>
      <point x="871" y="468"/>
      <point x="682" y="70"/>
      <point x="244" y="-12" type="curve"/>
    </contour>
  </outline>
</glyph>
<glyph name="uni021C" format="2">
  <advance width="1072"/>
  <unicode hex="021C"/>
  <outline>
    <contour>
      <point x="169" y="329" type="line"/>
      <point x="602" y="465"/>
      <point x="946" y="713"/>
      <point x="946" y="1061" type="curve" smooth="yes"/>
      <point x="946" y="1334"/>
      <point x="776" y="1476"/>
      <point x="508" y="1476" type="curve" smooth="yes"/>
      <point x="282" y="1476"/>
      <point x="94" y="1321"/>
      <point x="94" y="1073" type="curve"/>
      <point x="278" y="1073" type="line"/>
      <point x="278" y="1220"/>
      <point x="383" y="1319"/>
      <point x="508" y="1319" type="curve" smooth="yes"/>
      <point x="687" y="1319"/>
      <point x="761" y="1202"/>
      <point x="761" y="1065" type="curve" smooth="yes"/>
      <point x="761" y="753"/>
      <point x="551" y="615"/>
      <point x="168" y="474" type="curve"/>
    </contour>
    <contour>
      <point x="656" y="636" type="line"/>
      <point x="748" y="596"/>
      <point x="780" y="509"/>
      <point x="780" y="329" type="curve" smooth="yes"/>
      <point x="780" y="-27"/>
      <point x="554" y="-179"/>
      <point x="169" y="-280" type="curve"/>
      <point x="169" y="-437" type="line"/>
      <point x="626" y="-321"/>
      <point x="964" y="-144"/>
      <point x="964" y="327" type="curve" smooth="yes"/>
      <point x="964" y="555"/>
      <point x="885" y="686"/>
      <point x="746" y="744" type="curve"/>
    </contour>
  </outline>
</glyph>
<glyph name="uni021D" format="2">
  <advance width="905"/>
  <unicode hex="021D"/>
  <outline>
    <contour>
      <point x="158" y="214" type="line"/>
      <point x="460" y="294"/>
      <point x="776" y="493"/>
      <point x="776" y="787" type="curve" smooth="yes"/>
      <point x="776" y="991"/>
      <point x="647" y="1101"/>
      <point x="436" y="1101" type="curve" smooth="yes"/>
      <point x="243" y="1101"/>
      <point x="85" y="978"/>
      <point x="85" y="781" type="curve"/>
      <point x="260" y="781" type="line"/>
      <point x="260" y="876"/>
      <point x="337" y="951"/>
      <point x="436" y="951" type="curve" smooth="yes"/>
      <point x="555" y="951"/>
      <point x="600" y="871"/>
      <point x="600" y="786" type="curve" smooth="yes"/>
      <point x="600" y="531"/>
      <point x="355" y="421"/>
      <point x="157" y="354" type="curve"/>
    </contour>
    <contour>
      <point x="513" y="454" type="line"/>
      <point x="584" y="419"/>
      <point x="616" y="319"/>
      <point x="616" y="191" type="curve" smooth="yes"/>
      <point x="616" y="-94"/>
      <point x="429" y="-210"/>
      <point x="158" y="-288" type="curve"/>
      <point x="158" y="-437" type="line"/>
      <point x="568" y="-367"/>
      <point x="793" y="-180"/>
      <point x="793" y="192" type="curve" smooth="yes"/>
      <point x="793" y="357"/>
      <point x="730" y="494"/>
      <point x="613" y="550" type="curve"/>
    </contour>
  </outline>
</glyph>
<glyph name="uni0220" format="2">
  <advance width="1183"/>
  <unicode hex="0220"/>
  <outline>
    <contour>
      <point x="1053" y="-418" type="line"/>
      <point x="1053" y="993" type="line" smooth="yes"/>
      <point x="1053" y="1315"/>
      <point x="839" y="1476"/>
      <point x="604" y="1476" type="curve" smooth="yes"/>
      <point x="477" y="1476"/>
      <point x="364" y="1424"/>
      <point x="288" y="1363" type="curve"/>
      <point x="288" y="1209" type="line"/>
      <point x="369" y="1277"/>
      <point x="465" y="1320"/>
      <point x="604" y="1320" type="curve" smooth="yes"/>
      <point x="769" y="1320"/>
      <point x="875" y="1218"/>
      <point x="875" y="993" type="curve" smooth="yes"/>
      <point x="875" y="-418" type="line"/>
    </contour>
    <contour>
      <point x="334" y="1456" type="line"/>
      <point x="157" y="1456" type="line"/>
      <point x="157" y="0" type="line"/>
      <point x="334" y="0" type="line"/>
    </contour>
  </outline>
</glyph>
